<mxfile host="app.diagrams.net" agent="Mozilla/5.0 (Windows NT 10.0; Win64; x64) AppleWebKit/537.36 (KHTML, like Gecko) Chrome/131.0.0.0 Safari/537.36" version="26.0.5" pages="3">
  <diagram id="7fUbFVSV3YSxkXmy_-fG" name="C1">
    <mxGraphModel dx="2443" dy="753" grid="1" gridSize="10" guides="1" tooltips="1" connect="1" arrows="1" fold="1" page="1" pageScale="1" pageWidth="850" pageHeight="1100" math="0" shadow="0">
      <root>
        <mxCell id="0" />
        <mxCell id="1" parent="0" />
        <mxCell id="Tn1TakOXSL3-GahyMRJ4-4" style="edgeStyle=orthogonalEdgeStyle;rounded=0;orthogonalLoop=1;jettySize=auto;html=1;" edge="1" parent="1" source="Tn1TakOXSL3-GahyMRJ4-1" target="Tn1TakOXSL3-GahyMRJ4-2">
          <mxGeometry relative="1" as="geometry" />
        </mxCell>
        <mxCell id="Tn1TakOXSL3-GahyMRJ4-6" value="Consulta um determinado CEP" style="edgeLabel;html=1;align=center;verticalAlign=middle;resizable=0;points=[];" vertex="1" connectable="0" parent="Tn1TakOXSL3-GahyMRJ4-4">
          <mxGeometry x="-0.0462" relative="1" as="geometry">
            <mxPoint as="offset" />
          </mxGeometry>
        </mxCell>
        <object placeholders="1" c4Name="Cliente" c4Type="Person" c4Description="Responsavel por consumir a API" label="&lt;font style=&quot;font-size: 16px&quot;&gt;&lt;b&gt;%c4Name%&lt;/b&gt;&lt;/font&gt;&lt;div&gt;[%c4Type%]&lt;/div&gt;&lt;br&gt;&lt;div&gt;&lt;font style=&quot;font-size: 11px&quot;&gt;&lt;font color=&quot;#cccccc&quot;&gt;%c4Description%&lt;/font&gt;&lt;/div&gt;" id="Tn1TakOXSL3-GahyMRJ4-1">
          <mxCell style="html=1;fontSize=11;dashed=0;whiteSpace=wrap;fillColor=#083F75;strokeColor=#06315C;fontColor=#ffffff;shape=mxgraph.c4.person2;align=center;metaEdit=1;points=[[0.5,0,0],[1,0.5,0],[1,0.75,0],[0.75,1,0],[0.5,1,0],[0.25,1,0],[0,0.75,0],[0,0.5,0]];resizable=0;" vertex="1" parent="1">
            <mxGeometry x="-30" y="160" width="200" height="180" as="geometry" />
          </mxCell>
        </object>
        <mxCell id="Tn1TakOXSL3-GahyMRJ4-5" style="edgeStyle=orthogonalEdgeStyle;rounded=0;orthogonalLoop=1;jettySize=auto;html=1;" edge="1" parent="1" source="Tn1TakOXSL3-GahyMRJ4-2" target="Tn1TakOXSL3-GahyMRJ4-3">
          <mxGeometry relative="1" as="geometry" />
        </mxCell>
        <mxCell id="Tn1TakOXSL3-GahyMRJ4-7" value="Busca o CEP no parceiro" style="edgeLabel;html=1;align=center;verticalAlign=middle;resizable=0;points=[];" vertex="1" connectable="0" parent="Tn1TakOXSL3-GahyMRJ4-5">
          <mxGeometry x="-0.3618" y="4" relative="1" as="geometry">
            <mxPoint as="offset" />
          </mxGeometry>
        </mxCell>
        <object placeholders="1" c4Name="ApiLocalizacao" c4Type="Software System" c4Description="Servico responsavel por disponibilizar os endpoints consumidos de busca de CEP" label="&lt;font style=&quot;font-size: 16px&quot;&gt;&lt;b&gt;%c4Name%&lt;/b&gt;&lt;/font&gt;&lt;div&gt;[%c4Type%]&lt;/div&gt;&lt;br&gt;&lt;div&gt;&lt;font style=&quot;font-size: 11px&quot;&gt;&lt;font color=&quot;#cccccc&quot;&gt;%c4Description%&lt;/font&gt;&lt;/div&gt;" id="Tn1TakOXSL3-GahyMRJ4-2">
          <mxCell style="rounded=1;whiteSpace=wrap;html=1;labelBackgroundColor=none;fillColor=#1061B0;fontColor=#ffffff;align=center;arcSize=10;strokeColor=#0D5091;metaEdit=1;resizable=0;points=[[0.25,0,0],[0.5,0,0],[0.75,0,0],[1,0.25,0],[1,0.5,0],[1,0.75,0],[0.75,1,0],[0.5,1,0],[0.25,1,0],[0,0.75,0],[0,0.5,0],[0,0.25,0]];" vertex="1" parent="1">
            <mxGeometry x="430" y="190" width="240" height="120" as="geometry" />
          </mxCell>
        </object>
        <object placeholders="1" c4Name="API Parceiro" c4Type="Software System" c4Description="Servico externo que sera consumido com dados de CEP" label="&lt;font style=&quot;font-size: 16px&quot;&gt;&lt;b&gt;%c4Name%&lt;/b&gt;&lt;/font&gt;&lt;div&gt;[%c4Type%]&lt;/div&gt;&lt;br&gt;&lt;div&gt;&lt;font style=&quot;font-size: 11px&quot;&gt;&lt;font color=&quot;#cccccc&quot;&gt;%c4Description%&lt;/font&gt;&lt;/div&gt;" id="Tn1TakOXSL3-GahyMRJ4-3">
          <mxCell style="rounded=1;whiteSpace=wrap;html=1;labelBackgroundColor=none;fillColor=#8C8496;fontColor=#ffffff;align=center;arcSize=10;strokeColor=#736782;metaEdit=1;resizable=0;points=[[0.25,0,0],[0.5,0,0],[0.75,0,0],[1,0.25,0],[1,0.5,0],[1,0.75,0],[0.75,1,0],[0.5,1,0],[0.25,1,0],[0,0.75,0],[0,0.5,0],[0,0.25,0]];" vertex="1" parent="1">
            <mxGeometry x="950" y="190" width="240" height="120" as="geometry" />
          </mxCell>
        </object>
      </root>
    </mxGraphModel>
  </diagram>
  <diagram id="LwkDf9X6p_eVmsRnvWka" name="C2">
    <mxGraphModel dx="2443" dy="753" grid="1" gridSize="10" guides="1" tooltips="1" connect="1" arrows="1" fold="1" page="1" pageScale="1" pageWidth="850" pageHeight="1100" math="0" shadow="0">
      <root>
        <mxCell id="0" />
        <mxCell id="1" parent="0" />
        <mxCell id="b7ZZcfKRui5Dk4HxedY8-2" style="edgeStyle=orthogonalEdgeStyle;rounded=0;orthogonalLoop=1;jettySize=auto;html=1;" edge="1" parent="1" source="Zt4k0o1TyuMtMduvbOhc-1" target="Zt4k0o1TyuMtMduvbOhc-2">
          <mxGeometry relative="1" as="geometry" />
        </mxCell>
        <mxCell id="b7ZZcfKRui5Dk4HxedY8-5" value="Busca um CEP" style="edgeLabel;html=1;align=center;verticalAlign=middle;resizable=0;points=[];" vertex="1" connectable="0" parent="b7ZZcfKRui5Dk4HxedY8-2">
          <mxGeometry x="-0.2866" relative="1" as="geometry">
            <mxPoint y="1" as="offset" />
          </mxGeometry>
        </mxCell>
        <mxCell id="b7ZZcfKRui5Dk4HxedY8-7" value="Https REST/JSON" style="edgeLabel;html=1;align=center;verticalAlign=middle;resizable=0;points=[];" vertex="1" connectable="0" parent="b7ZZcfKRui5Dk4HxedY8-2">
          <mxGeometry x="0.2849" y="3" relative="1" as="geometry">
            <mxPoint y="1" as="offset" />
          </mxGeometry>
        </mxCell>
        <object placeholders="1" c4Name="Cliente" c4Type="Person" c4Description="Responsavel por consumir a API" label="&lt;font style=&quot;font-size: 16px&quot;&gt;&lt;b&gt;%c4Name%&lt;/b&gt;&lt;/font&gt;&lt;div&gt;[%c4Type%]&lt;/div&gt;&lt;br&gt;&lt;div&gt;&lt;font style=&quot;font-size: 11px&quot;&gt;&lt;font color=&quot;#cccccc&quot;&gt;%c4Description%&lt;/font&gt;&lt;/div&gt;" id="Zt4k0o1TyuMtMduvbOhc-1">
          <mxCell style="html=1;fontSize=11;dashed=0;whiteSpace=wrap;fillColor=#083F75;strokeColor=#06315C;fontColor=#ffffff;shape=mxgraph.c4.person2;align=center;metaEdit=1;points=[[0.5,0,0],[1,0.5,0],[1,0.75,0],[0.75,1,0],[0.5,1,0],[0.25,1,0],[0,0.75,0],[0,0.5,0]];resizable=0;" vertex="1" parent="1">
            <mxGeometry x="190" y="50" width="200" height="180" as="geometry" />
          </mxCell>
        </object>
        <mxCell id="b7ZZcfKRui5Dk4HxedY8-8" style="edgeStyle=orthogonalEdgeStyle;rounded=0;orthogonalLoop=1;jettySize=auto;html=1;" edge="1" parent="1" source="Zt4k0o1TyuMtMduvbOhc-2" target="Zt4k0o1TyuMtMduvbOhc-3">
          <mxGeometry relative="1" as="geometry" />
        </mxCell>
        <mxCell id="b7ZZcfKRui5Dk4HxedY8-9" value="Consulta se já foi feita a transação" style="edgeLabel;html=1;align=center;verticalAlign=middle;resizable=0;points=[];" vertex="1" connectable="0" parent="b7ZZcfKRui5Dk4HxedY8-8">
          <mxGeometry x="0.0429" y="-1" relative="1" as="geometry">
            <mxPoint as="offset" />
          </mxGeometry>
        </mxCell>
        <mxCell id="b7ZZcfKRui5Dk4HxedY8-10" style="edgeStyle=orthogonalEdgeStyle;rounded=0;orthogonalLoop=1;jettySize=auto;html=1;" edge="1" parent="1" source="Zt4k0o1TyuMtMduvbOhc-2" target="Zt4k0o1TyuMtMduvbOhc-4">
          <mxGeometry relative="1" as="geometry" />
        </mxCell>
        <mxCell id="b7ZZcfKRui5Dk4HxedY8-11" value="Dispara Evento de Consulta" style="edgeLabel;html=1;align=center;verticalAlign=middle;resizable=0;points=[];" vertex="1" connectable="0" parent="b7ZZcfKRui5Dk4HxedY8-10">
          <mxGeometry x="-0.0765" y="-3" relative="1" as="geometry">
            <mxPoint as="offset" />
          </mxGeometry>
        </mxCell>
        <object placeholders="1" c4Name="Container name" c4Type="Container" c4Technology="e.g. SpringBoot, ElasticSearch, etc." c4Description="Description of container role/responsibility." label="&lt;font style=&quot;font-size: 16px&quot;&gt;&lt;b&gt;%c4Name%&lt;/b&gt;&lt;/font&gt;&lt;div&gt;[%c4Type%: %c4Technology%]&lt;/div&gt;&lt;br&gt;&lt;div&gt;&lt;font style=&quot;font-size: 11px&quot;&gt;&lt;font color=&quot;#E6E6E6&quot;&gt;%c4Description%&lt;/font&gt;&lt;/div&gt;" id="Zt4k0o1TyuMtMduvbOhc-2">
          <mxCell style="rounded=1;whiteSpace=wrap;html=1;fontSize=11;labelBackgroundColor=none;fillColor=#23A2D9;fontColor=#ffffff;align=center;arcSize=10;strokeColor=#0E7DAD;metaEdit=1;resizable=0;points=[[0.25,0,0],[0.5,0,0],[0.75,0,0],[1,0.25,0],[1,0.5,0],[1,0.75,0],[0.75,1,0],[0.5,1,0],[0.25,1,0],[0,0.75,0],[0,0.5,0],[0,0.25,0]];" vertex="1" parent="1">
            <mxGeometry x="170" y="370" width="240" height="120" as="geometry" />
          </mxCell>
        </object>
        <object placeholders="1" c4Name="Container name" c4Type="Container" c4Technology="e.g. Oracle Database 12" c4Description="Description of storage type container role/responsibility." label="&lt;font style=&quot;font-size: 16px&quot;&gt;&lt;b&gt;%c4Name%&lt;/b&gt;&lt;/font&gt;&lt;div&gt;[%c4Type%:&amp;nbsp;%c4Technology%]&lt;/div&gt;&lt;br&gt;&lt;div&gt;&lt;font style=&quot;font-size: 11px&quot;&gt;&lt;font color=&quot;#E6E6E6&quot;&gt;%c4Description%&lt;/font&gt;&lt;/div&gt;" id="Zt4k0o1TyuMtMduvbOhc-3">
          <mxCell style="shape=cylinder3;size=15;whiteSpace=wrap;html=1;boundedLbl=1;rounded=0;labelBackgroundColor=none;fillColor=#23A2D9;fontSize=12;fontColor=#ffffff;align=center;strokeColor=#0E7DAD;metaEdit=1;points=[[0.5,0,0],[1,0.25,0],[1,0.5,0],[1,0.75,0],[0.5,1,0],[0,0.75,0],[0,0.5,0],[0,0.25,0]];resizable=0;" vertex="1" parent="1">
            <mxGeometry x="-330" y="370" width="240" height="120" as="geometry" />
          </mxCell>
        </object>
        <object placeholders="1" c4Name="Container name" c4Type="Container" c4Technology="e.g. Apache Kafka, etc." c4Description="Description of message bus type container role/responsibility." label="&lt;font style=&quot;font-size: 16px&quot;&gt;&lt;b&gt;%c4Name%&lt;/b&gt;&lt;/font&gt;&lt;div&gt;[%c4Type%:&amp;nbsp;%c4Technology%]&lt;/div&gt;&lt;br&gt;&lt;div&gt;&lt;font style=&quot;font-size: 11px&quot;&gt;&lt;font color=&quot;#E6E6E6&quot;&gt;%c4Description%&lt;/font&gt;&lt;/div&gt;" id="Zt4k0o1TyuMtMduvbOhc-4">
          <mxCell style="shape=cylinder3;size=15;direction=south;whiteSpace=wrap;html=1;boundedLbl=1;rounded=0;labelBackgroundColor=none;fillColor=#23A2D9;fontSize=12;fontColor=#ffffff;align=center;strokeColor=#0E7DAD;metaEdit=1;points=[[0.5,0,0],[1,0.25,0],[1,0.5,0],[1,0.75,0],[0.5,1,0],[0,0.75,0],[0,0.5,0],[0,0.25,0]];resizable=0;" vertex="1" parent="1">
            <mxGeometry x="650" y="370" width="240" height="120" as="geometry" />
          </mxCell>
        </object>
        <object placeholders="1" c4Name="API Parceiro" c4Type="Software System" c4Description="Servico externo que sera consumido com dados de CEP" label="&lt;font style=&quot;font-size: 16px&quot;&gt;&lt;b&gt;%c4Name%&lt;/b&gt;&lt;/font&gt;&lt;div&gt;[%c4Type%]&lt;/div&gt;&lt;br&gt;&lt;div&gt;&lt;font style=&quot;font-size: 11px&quot;&gt;&lt;font color=&quot;#cccccc&quot;&gt;%c4Description%&lt;/font&gt;&lt;/div&gt;" id="b7ZZcfKRui5Dk4HxedY8-1">
          <mxCell style="rounded=1;whiteSpace=wrap;html=1;labelBackgroundColor=none;fillColor=#8C8496;fontColor=#ffffff;align=center;arcSize=10;strokeColor=#736782;metaEdit=1;resizable=0;points=[[0.25,0,0],[0.5,0,0],[0.75,0,0],[1,0.25,0],[1,0.5,0],[1,0.75,0],[0.75,1,0],[0.5,1,0],[0.25,1,0],[0,0.75,0],[0,0.5,0],[0,0.25,0]];" vertex="1" parent="1">
            <mxGeometry x="160" y="690" width="240" height="120" as="geometry" />
          </mxCell>
        </object>
        <mxCell id="b7ZZcfKRui5Dk4HxedY8-12" style="edgeStyle=orthogonalEdgeStyle;rounded=0;orthogonalLoop=1;jettySize=auto;html=1;exitX=0;exitY=0.75;exitDx=0;exitDy=0;exitPerimeter=0;entryX=1;entryY=0.75;entryDx=0;entryDy=0;entryPerimeter=0;" edge="1" parent="1" source="Zt4k0o1TyuMtMduvbOhc-2" target="Zt4k0o1TyuMtMduvbOhc-3">
          <mxGeometry relative="1" as="geometry" />
        </mxCell>
        <mxCell id="b7ZZcfKRui5Dk4HxedY8-13" value="Grava Requisição" style="edgeLabel;html=1;align=center;verticalAlign=middle;resizable=0;points=[];" vertex="1" connectable="0" parent="b7ZZcfKRui5Dk4HxedY8-12">
          <mxGeometry x="0.2493" y="3" relative="1" as="geometry">
            <mxPoint as="offset" />
          </mxGeometry>
        </mxCell>
        <mxCell id="b7ZZcfKRui5Dk4HxedY8-14" style="edgeStyle=orthogonalEdgeStyle;rounded=0;orthogonalLoop=1;jettySize=auto;html=1;exitX=1;exitY=0.75;exitDx=0;exitDy=0;exitPerimeter=0;entryX=0.75;entryY=1;entryDx=0;entryDy=0;entryPerimeter=0;" edge="1" parent="1" source="Zt4k0o1TyuMtMduvbOhc-4" target="Zt4k0o1TyuMtMduvbOhc-2">
          <mxGeometry relative="1" as="geometry" />
        </mxCell>
        <mxCell id="b7ZZcfKRui5Dk4HxedY8-15" value="Escuta evento de consulta" style="edgeLabel;html=1;align=center;verticalAlign=middle;resizable=0;points=[];" vertex="1" connectable="0" parent="b7ZZcfKRui5Dk4HxedY8-14">
          <mxGeometry x="0.1764" y="-3" relative="1" as="geometry">
            <mxPoint as="offset" />
          </mxGeometry>
        </mxCell>
        <mxCell id="b7ZZcfKRui5Dk4HxedY8-16" style="edgeStyle=orthogonalEdgeStyle;rounded=0;orthogonalLoop=1;jettySize=auto;html=1;entryX=0.546;entryY=0.024;entryDx=0;entryDy=0;entryPerimeter=0;" edge="1" parent="1" source="Zt4k0o1TyuMtMduvbOhc-2" target="b7ZZcfKRui5Dk4HxedY8-1">
          <mxGeometry relative="1" as="geometry" />
        </mxCell>
        <mxCell id="b7ZZcfKRui5Dk4HxedY8-17" value="Consulta um CEP" style="edgeLabel;html=1;align=center;verticalAlign=middle;resizable=0;points=[];" vertex="1" connectable="0" parent="b7ZZcfKRui5Dk4HxedY8-16">
          <mxGeometry x="-0.0084" y="2" relative="1" as="geometry">
            <mxPoint x="-1" y="-2" as="offset" />
          </mxGeometry>
        </mxCell>
      </root>
    </mxGraphModel>
  </diagram>
  <diagram id="JVQn2zQruuuOXMPjY3rz" name="Arquitetura">
    <mxGraphModel dx="1128" dy="533" grid="1" gridSize="10" guides="1" tooltips="1" connect="1" arrows="1" fold="1" page="1" pageScale="1" pageWidth="850" pageHeight="1100" math="0" shadow="0">
      <root>
        <mxCell id="0" />
        <mxCell id="1" parent="0" />
        <mxCell id="UWpe6jo6Uluqze3PuRvI-5" style="edgeStyle=orthogonalEdgeStyle;rounded=0;orthogonalLoop=1;jettySize=auto;html=1;entryX=0;entryY=0.5;entryDx=0;entryDy=0;" edge="1" parent="1" source="UWpe6jo6Uluqze3PuRvI-2" target="UWpe6jo6Uluqze3PuRvI-3">
          <mxGeometry relative="1" as="geometry" />
        </mxCell>
        <mxCell id="UWpe6jo6Uluqze3PuRvI-2" value="Actor" style="shape=umlActor;verticalLabelPosition=bottom;verticalAlign=top;html=1;outlineConnect=0;" vertex="1" parent="1">
          <mxGeometry x="130" y="210" width="30" height="60" as="geometry" />
        </mxCell>
        <mxCell id="UWpe6jo6Uluqze3PuRvI-9" style="edgeStyle=orthogonalEdgeStyle;rounded=0;orthogonalLoop=1;jettySize=auto;html=1;" edge="1" parent="1" source="UWpe6jo6Uluqze3PuRvI-3" target="UWpe6jo6Uluqze3PuRvI-8">
          <mxGeometry relative="1" as="geometry" />
        </mxCell>
        <mxCell id="UWpe6jo6Uluqze3PuRvI-3" value="ApiLocalizacao" style="whiteSpace=wrap;html=1;" vertex="1" parent="1">
          <mxGeometry x="300" y="210" width="120" height="60" as="geometry" />
        </mxCell>
        <mxCell id="UWpe6jo6Uluqze3PuRvI-4" value="Dynamodb" style="shape=cylinder3;whiteSpace=wrap;html=1;boundedLbl=1;backgroundOutline=1;size=15;" vertex="1" parent="1">
          <mxGeometry x="330" y="410" width="60" height="80" as="geometry" />
        </mxCell>
        <mxCell id="UWpe6jo6Uluqze3PuRvI-6" style="edgeStyle=orthogonalEdgeStyle;rounded=0;orthogonalLoop=1;jettySize=auto;html=1;entryX=0.5;entryY=0;entryDx=0;entryDy=0;entryPerimeter=0;" edge="1" parent="1" source="UWpe6jo6Uluqze3PuRvI-3" target="UWpe6jo6Uluqze3PuRvI-4">
          <mxGeometry relative="1" as="geometry" />
        </mxCell>
        <mxCell id="UWpe6jo6Uluqze3PuRvI-7" value="" style="sketch=0;outlineConnect=0;fontColor=#232F3E;gradientColor=none;strokeColor=#232F3E;fillColor=#ffffff;dashed=0;verticalLabelPosition=bottom;verticalAlign=top;align=center;html=1;fontSize=12;fontStyle=0;aspect=fixed;shape=mxgraph.aws4.resourceIcon;resIcon=mxgraph.aws4.cache_node;" vertex="1" parent="1">
          <mxGeometry x="395" y="170" width="60" height="60" as="geometry" />
        </mxCell>
        <mxCell id="UWpe6jo6Uluqze3PuRvI-8" value="SNS/SQS" style="shape=cylinder3;whiteSpace=wrap;html=1;boundedLbl=1;backgroundOutline=1;size=15;rotation=-90;" vertex="1" parent="1">
          <mxGeometry x="520" y="200" width="60" height="80" as="geometry" />
        </mxCell>
        <mxCell id="UWpe6jo6Uluqze3PuRvI-11" value="" style="edgeStyle=orthogonalEdgeStyle;rounded=0;orthogonalLoop=1;jettySize=auto;html=1;" edge="1" parent="1" source="UWpe6jo6Uluqze3PuRvI-10" target="UWpe6jo6Uluqze3PuRvI-8">
          <mxGeometry relative="1" as="geometry">
            <Array as="points">
              <mxPoint x="750" y="240" />
            </Array>
          </mxGeometry>
        </mxCell>
        <mxCell id="UWpe6jo6Uluqze3PuRvI-13" value="" style="edgeStyle=orthogonalEdgeStyle;rounded=0;orthogonalLoop=1;jettySize=auto;html=1;" edge="1" parent="1" source="UWpe6jo6Uluqze3PuRvI-10" target="UWpe6jo6Uluqze3PuRvI-12">
          <mxGeometry relative="1" as="geometry" />
        </mxCell>
        <mxCell id="aMVBu54jZsCjfHD0HlwL-2" style="edgeStyle=orthogonalEdgeStyle;rounded=0;orthogonalLoop=1;jettySize=auto;html=1;exitX=0.75;exitY=0;exitDx=0;exitDy=0;" edge="1" parent="1" source="UWpe6jo6Uluqze3PuRvI-10" target="aMVBu54jZsCjfHD0HlwL-1">
          <mxGeometry relative="1" as="geometry" />
        </mxCell>
        <mxCell id="UWpe6jo6Uluqze3PuRvI-10" value="ServicoConsulta" style="whiteSpace=wrap;html=1;" vertex="1" parent="1">
          <mxGeometry x="690" y="260" width="120" height="60" as="geometry" />
        </mxCell>
        <mxCell id="UWpe6jo6Uluqze3PuRvI-12" value="ApiParceiro" style="whiteSpace=wrap;html=1;" vertex="1" parent="1">
          <mxGeometry x="690" y="430" width="120" height="60" as="geometry" />
        </mxCell>
        <mxCell id="UWpe6jo6Uluqze3PuRvI-14" style="edgeStyle=orthogonalEdgeStyle;rounded=0;orthogonalLoop=1;jettySize=auto;html=1;entryX=1;entryY=0.5;entryDx=0;entryDy=0;entryPerimeter=0;" edge="1" parent="1" source="UWpe6jo6Uluqze3PuRvI-10" target="UWpe6jo6Uluqze3PuRvI-4">
          <mxGeometry relative="1" as="geometry">
            <Array as="points">
              <mxPoint x="460" y="290" />
              <mxPoint x="460" y="450" />
            </Array>
          </mxGeometry>
        </mxCell>
        <mxCell id="UWpe6jo6Uluqze3PuRvI-15" value="batch_reprocessamento" style="whiteSpace=wrap;html=1;" vertex="1" parent="1">
          <mxGeometry x="490" y="480" width="120" height="60" as="geometry" />
        </mxCell>
        <mxCell id="UWpe6jo6Uluqze3PuRvI-16" style="edgeStyle=orthogonalEdgeStyle;rounded=0;orthogonalLoop=1;jettySize=auto;html=1;entryX=0.5;entryY=1;entryDx=0;entryDy=0;entryPerimeter=0;" edge="1" parent="1" source="UWpe6jo6Uluqze3PuRvI-15" target="UWpe6jo6Uluqze3PuRvI-4">
          <mxGeometry relative="1" as="geometry" />
        </mxCell>
        <mxCell id="UWpe6jo6Uluqze3PuRvI-17" style="edgeStyle=orthogonalEdgeStyle;rounded=0;orthogonalLoop=1;jettySize=auto;html=1;entryX=0;entryY=0.5;entryDx=0;entryDy=0;entryPerimeter=0;" edge="1" parent="1" source="UWpe6jo6Uluqze3PuRvI-15" target="UWpe6jo6Uluqze3PuRvI-8">
          <mxGeometry relative="1" as="geometry" />
        </mxCell>
        <mxCell id="UWpe6jo6Uluqze3PuRvI-24" value="" style="shape=image;verticalLabelPosition=bottom;labelBackgroundColor=default;verticalAlign=top;aspect=fixed;imageAspect=0;image=data:image/png,iVBORw0KGgoAAAANSUhEUgAAA7wAAAJaCAIAAACDS9xLAAAgAElEQVR4Aey9d1gUyb64v8+996R7n3t292xw9246u+6qu3oMKGYFhSWDApKRUYIkQZJIlpxzzjlKRsk5SYaRnOMQBoYwCWaYmZ4fX/u383DIjCOIVv+hPdVd1VXvp8Pb1dXNR3QwAQKAACAACAACgAAgAAgAAoDAlgQ+2nIpWAgIAAKAACAACAACgAAgAAgAAnQgzWAnAAQAAUAAEAAEAAFAABAABLYhAKR5G0BgMSAACAACgAAgAAgAAoAAIACkGewDgAAgAAgAAoAAIAAIAAKAwDYEgDRvAwgsBgQAAUAAEAAEAAFAABAABIA0g30AEAAEAAFAABAABAABQAAQ2IYAkOZtAIHFgAAgAAgAAoAAIAAIAAKAAJBmsA8AAoDAO0EAgqCZmZlXr14hkcipqSkajUan03E4XGtr69zc3PoqQhCExWJJJNL6RaxNWVhYePXqFYFA2GGxS0tLvb29LS0t/f39ZDJ5h7l2vhoEQaOjoz09PRAEUanU+fl5CoWyq+zd3d09PT07r9vs7GxrayscFwiC6HQ6kUhsaWmpXzU1NTXNzs4ODw8z0pBIJBqNhtffefXAmoAAIAAIvLMEgDS/s6EBFQMEPiACEASVlJQICAj8+Hri4OCIi4uDIOjly5dnz57NyspazwKJRGpra3d1da1fxNqUkpKSs2fPNjc3b1ssjUZrb29XUFD417/+dfjw4RMnThgbG09MTGybcVcrUKlUU1PTW7duUSiU3NxcAwMDDAazqxIkJSXFxcXHx8e3zbW4uJieni4oKPjLL78cPnyYg4MjPDycSCS2trYePnz40KFD3/8xHT9+/MWLF3p6ep9//vl33333/fff//jjjzdu3Hjx4gWVSt12Q2AFQAAQAATefQJAmt/9GIEaAgLvP4Hp6WlBQUEODo6AgIDQ0FAhIaETJ0709vb29/fb2toikUgKhTI9PT0yMjI3N0ej0ZaWlry9vU+cOJGbmws7GYlEQr2eiEQinU6nUqloNHpmZgaNRo+NjRGJRCwWOzo6Oj09zej7XF5enpycHB0dnZmZYSQyWNNoNDhvYWHhyZMn6+vr6XQ6oxrz8/NwXzhjfTqd3tPTIyQk9Ouvvzo5OSUkJDx58uTnn392cnJaXl6G+8VHRkYmJyfhLl4qlTo+Pj47Ozs2NjY+Ps5IxGAwIyMjGAwGbtfCwsL4+DiFQoEgCIPBTE5OUigUPT29mzdvLiws6OrqXr16lSH0OBxubGwMhULh8fjVFYPnSSTS+Pj49PS0jIwMDw/P2NgYnU6HE1Eo1OLi4vosJSUl//rXv4SEhKKioiIjIwUFBX/44YcXL140NTV9+eWXYmJiMTExz15P6enpY2Njampqx48fDwwMTEpK8vPzO3bsGDs7+/T09PqSQQogAAgAAgeOAJDmAxcyUGFA4D0k0NPTc/LkyYcPH+JwOBqNVlRUJCkpWVVV1dDQ8Pvvv+fn52dmZgoKCp45c0ZeXr6urq6xsfHkyZN/+ctfjhw5Mjs7Oz8/7+rqeun1ZGlpOTs7i8FgdHR07t69y8/Pf/HiRV1dXWVl5bNnzwoKCnZ0dMADP5ydnbm4uNjY2ISFhSsrK9dgzc3N5ePjO3/+vKKiIhsbW319PQRBz58/FxAQOHXqlLKycnNz82pvplAoYWFhn376aXx8PDxeYmlp6dGjR8bGxkQisbu7++HDh2fOnLlx40ZYWNjS0tLMzIy4uLisrOz58+evXr0aHBwMQVBZWdnt27fPnDkjISFRXFxMpVLDwsIkJCTGxsZIJJKVlZWysjJDmjMzM3/44Yf/+Z//OXfuHJ1O7+7u1tDQuHDhAtzeNd3P8/PzDg4OV65cERISunHjBizNCwsLLi4u165du3jxopmZ2czMzBoI6urqp06damtro9PpEAQ1Njby8fFFREQ0NDR89dVXZmZm8C0KI5eamtqNGzfgPmwikXj//v3PP/8cBs5YB8wAAoAAIHBACQBpPqCBA9UGBN4rAgQCQVlZ+fvvv+fm5raxscnPz+/o6FhaWiovLz98+HBiYuKZM2cuXbqkr68Pu3V/f/+DBw++/fZbExMTHA4XFhb2ww8/iImJ3bt37/vvvzc1NR0bG5OQkPj000/V1dXFxMT+8pe/sLGxPXny5KefflJQUKDRaDExMV988YW0tLSmpuahQ4dkZWVnZ2cZTFtbW0+fPn3lyhVNTc3vvvvul19+qa+vb2trY2Nju3r1qoGBwfHjx+/cubOwsMDIQiKRTExMPv3009UeOT8/v7CwQKVSpaSkDh8+rKOjIyQkdPTo0czMzMnJyWPHjv3444/Ozs5iYmIrBba3t/Pw8Jw+ffrx48fs7OwyMjILCwtOTk7s7OwDAwNLS0vq6uq///47Q5o7OjqEhISOHDni5uaGxWL19fV//fVXXV1dSUnJjz/+OCwsjFE3KpUaEBDw6aefioqKwlh4eHiGhoY8PT0///xzUVHRu3fvHjp0yNbWdnXl6XQ6Ozu7nJwcFouFi6JQKGg0mkgkNjU1ffHFF+zs7Orq6lqvJ0dHx9nZWTU1tQsXLpSXl3d2dhYXF589e/bo0aMsH6DCaBeYAQQAAUBgLwkAad5L2mBbgAAgsCkBFArl7u5+586dU6dOffPNNxISEv39/bA0x8fHs7GxcXJyurq62tnZJSQkkMnkyMjIM2fOvHr1CovFysjIHD582NfX19vb++LFi5999llXV5eEhMTJkyeJRGJycvLf//73iIiIyclJUVHRq1ev4nC47OxsNTW1qKgof3//X3/9lYuLa3h4GK4clUr19fX98ssvc3NzIQhydXX96aefamtrHR0dv/zyS319/ZCQEAQC8fnnn/f39zPas7S0pK+v/9VXX61+LY9KpcLDPD777DMnJycymTw8PHz9+vUHDx6MjY0dO3bM2tqaTqe/ePHiyJEjmZmZvLy8Fy5csLe3d3FxCQkJWVxc3EKaKRSKmZkZNzc3Go3G4/EhISGmpqapqalmZmaff/7548ePGXVbeZ9STEzs3LlzExMTaDT6woULPDw8bW1t586d++c//+ns7BwQEHDmzBkuLq6RkRFGLjqdfvz4cRUVldUvQcIDRZqbm7/44ouffvqJi4uL5/Wkqqo6NTWlpqb2t7/97aeffvr555+//fbbU6dOhYeHrwayunAwDwgAAoDAwSIApPlgxQvUFhB4Pwm8evXK1ta2tbV1dna2ra3N0dHxm2++sbGxKSsrO3z4cHJycnx8/Llz5z755JPvvvvO0NCQSCQypHl6epqXl/fPf/7zZ5999o9//OO///u//+u//qu+vl5CQuL69et0Oj09Pf3jjz9+8eLFzMyMhITEpUuX5ufns7KyTp48+fXXX3///feffPLJjRs3hoaGYLhkMtnKyuqbb75pbW2l0+kFBQVHjhypqqp69OjRf/7nf3788cefffbZ3//+9z/96U8NDQ2MeJDJZBsbm//93/9dPS4iLS3NwcGhtLT0iy++iI2NhT92cefOHQkJiYGBgd9++83Pz4+xiYyMjJycnCtXrnzyySfffPONiorKmp5mNTW11T3Nq6WZQCA4OTn9/PPPhw4d+u677/7617/q6Ogw6jY9Pc3NzS0pKYnD4SAIEhYW5uHhqa2tPXz48J///Od//OMfn3322X//93+fP39+zYuVXFxc4uLijK+XzM/PW1paxsXFvXz58tChQ3p6evCI8JmZGXiQt5qa2m+//ebr6xsXF5eWloZEIpeWlhjVADOAACAACBxoAkCaD3T4QOUBgfeEQH5+/ldffWVnZzczM4PD4YqKio4ePaqjo1NSUnL48GFvb29TU9OioqL6+noxMbF//vOf4+PjkZGRp06dqq2tnZ+fl5GRERQUnJ+fn5ubCwoKMjExGRgYkJCQ4ODgYEhzdnY2Q5onJyeFhIS+/fbb1NTUvr6+q1evrpZmGo0WHBx86NChjIwMIpHo7e0N9zQ7ODj89ttvFRUVS0tLJSUlJiYmaDSaEQAajZaTk/P999/r6elNTk7i8fiBgYFr166Jior29vZ+9tlnNjY2WCy2u7v78uXLmpqaKBTq+PHj/v7+DGkOCwuztrbOzMxsa2u7d+/ep59+Ojg46OnpeerUKSQSOTk5KSwsvF6aOTk5h4aGOjs72djYbt261d7enpeX9+233z569IhRNwKBICUlxcbGNjAwMDk5efHiRbinmY2NjYeHZ3R0lEAgeL+eGH4M53V3d//hhx9SU1NxONzCwkJsbOwXX3xhYWFRW1t76NAhQ0PDmZkZwh/T8vLy6jHNjK2DGUAAEAAE3g8CQJrfjziCVgACB5sAGo2Wlpb+8ccfxcTElJSULl68+Ntvv5WVlcHDM4KDgy9evHjz5k1zc3MODg4uLi4MBpOenv7tt99KS0tPT08HBwcfPnwYgUBoaWn9/PPPd+/eHRoa2kKa0Wj0vXv3Dh06pKOjg0AgPvnkk8uXL/f09DAgdnV1XblyhZOT08DA4JfXU319fXNzMzs7Oy8vr7m5+eXLl2/cuLHmuxDT09M6OjqfffbZ7du3VVVVOTg4jhw5kpSURKVSpaWljx8/bmBgICEhceLECXhM8xppjomJERAQuHTpkrm5OT8/Pxsb28TERG5u7i+//CItLa2srPz111/z8fExxjRTKBQXF5fvvvtOXV29p6eHg4Pj2rVrlpaWvLy8f/nLXxAIBKM5NBotMjLy0KFD0tLSCATiyy+/hMc0Ozs7f/311/Ly8tra2t9++62uru78/DwjF51O7+zs5OLiOnbsmKKi4r17944cOXL+/PmWlhZ4eMa5c+dUVVU1/5jy8vJUVVUZLwKuLgfMAwKAACDwHhAA0vweBBE0ARA48AQgCBoaGnJ2dhYREbl586a6unp5eTmFQmlpaREXFy8qKqqoqFBXV+fh4VFVVX358iX8vTYNDQ1eXt7h4eGFhYXo6Ojbt2+LiIg4OzuPj49jMBgTExM1NTU6nV5eXs7NzV1dXT0/P29sbKysrIzD4bq6uh49eiQgIKCpqWlpaXnnzp2mpibGh+eoVGpTU5OysrKQkJC5ubmcnFxnZyeVSi0vL1dSUuLh4dHV1W1sbFzzBWL477OEhYVJS0tzc3MjEIi8vDz4U24DAwN2dnZ8fHyysrJZWVmLi4sYDEZaWjolJYVOp9fV1UlISJSXlzc1NT169IiXl1dRUbGwsHDFj3E4XGBgoJCQEAKBePz4sb6+PpVK9fT01NTUpFKpSCRSRkbm9u3bs7OzhYWFMjIyAgICjx8/vnfvnpyc3OqxyDgcLiEhQVxcXElJCYFAaGtro9HohYWFqKiolbYLCws7ODiMj48zCMC7FIVC6ezstLa2FhAQ4OPjMzc3b29vp1AoPT09PDw8ly9fvrZqio6OdnBw0NDQWHMvceD3TtAAQAAQAAReEwDSDHYEQAAQAAQAAUAAEAAEAAFAYBsCQJq3AQQWAwKAACAACAACgAAgAAgAAkCawT4ACAACgAAgAAgAAoAAIAAIbEMASPM2gMBiQAAQAAQAAUAAEAAEAAFAAEgz2AcAAUAAEAAEAAFAABAABACBbQgAad4GEFgMCAACgAAgAAgAAoAAIAAIAGkG+wAgAAgAAoAAIAAIAAKAACCwDQEgzdsAAosBAUAAEAAEAAFAABAABAABIM1gHwAEAAFAABAABAABQAAQAAS2IQCkeRtAYDEgAAgAAoAAIAAIAAKAACAApBnsA4AAIAAIAAKAACAACAACgMA2BIA0bwMILAYEAAFAABAABAABQAAQAASANIN9ABAABAABQAAQAAQAAUAAENiGADPSvLi4iHnnJzKZvE3T39piIpH4zuPZtwrOzc3RaLS3xv5AFkylUvctHjvY8OLi4mqsB+Lw30GzNl1laWlpdXvfv8MZh8NBELS6jR/g/Hu/G2+6fzO7AIvF7vDU/f4dMpsxm5ubW33sUCiUzdY8cOlrmkalUufn59+dVszPz1Op1NXw92yeGWmOiooKCgoKeYcnKyurmpqaPYO4ZkPx8fHe3t7vMJ79rNqTJ08wGMwaYh/4z/7+fh0dnf2Myubb9vPzi42NXR2gqKgod3f3zXMc7CUuLi4pKSmr2xvwejrYrVpVex8fn6CgoDU3Qqvb+4HMR0dHBwYGrgIDZrci4O/v7+fnt0akNttVgoKCfHx8tirufVmmqam5GkJvb6++vv770Thtbe3VTRseHnZxcXlHmhYcHOzu7j44OLi6hns2z4w029jYzMzM4N/hKS0trbS0dM8grtmQn59fT0/PO4xnP6v25MmTiYmJNcQ+8J+vXr2ytrbez6hsvm0UCmVnZ7c6QNbW1kgkcvMcB3tJbW2tl5fX6vYaGBig0eiD3apVtR8cHAwKCsLj8avb+AHO29jYvE9hXRXhtzI7MTEREhKCRqN3sqs8efJkaGjordTjHStUTExsNZCmpiY7O7t3rI5MVkdOTm510zo6OsLDw5ksi9XZsFhsbGxsW1vb6hru2TyT0rzmCeaeVXeHG8rNzS0rK9vhyixfzd/fH4VCsbzY96NAU1NTIM1rQvnq1StHR8c1ie/Iz/n5+fXS3Nvb+45Uj+XVaG1tXS/NBAKB5RvarwLRaHRYWBiQZhsbGyKRuF9ROHDbxWKxERERO5fm6enpA9dGJip8586d1bmamppcXV1XpxzceQUFhdWV7+joWPPIcfXSPZ6n0WjPnj0D0sxK7ECaWUmTpWUBaV6PE0jzeib7lQKkeb/I7/F2gTTvCjiQ5g1xAWneEMvbTgTSzHrCQJpZz5RFJQJpXg8SSPN6JvuVAqR5v8jv8XaBNO8KOJDmDXEBad4Qy9tOBNLMesJAmlnPlEUlAmleDxJI83om+5UCpHm/yO/xdoE07wo4kOYNcQFp3hDL204E0sx6wkCaWc+URSUCaV4PEkjzeib7lQKkeb/I7/F2gTTvCjiQ5g1xAWneEMvbTgTSzHrCQJpZz5RFJQJpXg8SSPN6JvuVAqR5v8jv8XaBNO8KOJDmDXEBad4Qy9tOBNLMesJAmlnPlEUlAmleDxJI83om+5UCpHm/yO/xdoE07wo4kOYNcQFp3hDL204E0sx6wkCaWc+URSUCaV4PEkjzeib7lQKkeb/I7/F2gTTvCjiQ5g1xAWneEMvbTgTSzHrCQJpZz5RFJQJpXg8SSPN6JvuVAqR5v8jv8XaBNO8KOJDmDXEBad4Qy9tOBNLMesJAmlnPlEUlAmleDxJI83om+5UCpHm/yO/xdoE07wo4kOYNcQFp3hDL2058D6UZgqDx8fHAwMA7d+7w8/Nra2sjkcjl5eXw8HAnJ6fe3l4LC4sd/m0hIpH4/PnzHa7MCNW7L80QBL148YKDgyM9PZ1GozFqvnqGRqM5OTmVlpa+ePFCXV19ZmZm9VIm5oeGhqSlpTEYjIeHR0FBARMlvHkWIM3rGe5EmrFYbG5uLgKB4OPjk5eXT0tLw+Fw64tan9LY2Kiqqrq4uLh+0U5SmPiLgIWFhTdv3rx+/TonJ6eAgICFhcXAwAAEQTvZHAvXgSAoOjra0NBwampKV1e3v79/J4UzIc0kEun58+eysrI3b96Ul5dPTk5eXl4eHx+XlpZ2dnZm/PHU+Ph4d3d3Mpnc399vbm7Ow8PDx8dnb28/ODgIV6yxsVFfX39+fr6hoUFbW5uLi0tERMTX1xeNRkMQRKVS29vbTU1NhYWFb926ZWtru3Iihalisdi4uDhRUVFubm4lJaXCwkLGRtc3GfxFQJjJttK8vLxcWFiIQCBu3rwpIyMTGxtLJpPX89w6ZWxszMTEZHJycuvV4KU0Gq2jo8PKykpISEhYWNjJyWl4eHgnGXe4Tmtrq6KiIgqFqq6ubmho2GEueDWWSzMEQYWFhVxcXOnp6ZudHObm5oyNjbu7u1+8eHH9+vVr165xcHDw8PBoaWkNDQ1tlmvn7ZqbmzMyMurr69t5ljVr7laafX19HR0d4T9FWVNT8/vvvyckJMANSU9PV1dXx2AwazYxODioqKi4+my/Mv/06dPi4uI1a277c35+/vHjx69evdp2TTqdvtu/CIhGo+Xl5ZFI5NaF4/H4zMzMubm59avl5+eLiYltce5iZHkPpRmHwxkYGCgpKWVkZOTn51tYWFy8eLGurs7d3d3Q0BCDwVRXV+/wT5i2tbVxcXENDAwweO1k5t2XZhwOp6urKycnd//+/Q13IDqdDkFQfX396OhoQkKCqKjo1NTUTtq+xTp9fX3Xrl3DYDBNTU2sPR1vsdE1i4A0rwFCp9O3lealpSU/Pz9BQcHo6OiioqKAgIBr166Fh4dvdru1ehOVlZW3bt3a4eG2OiM8z4Q0Z2RkiIiIvHjxoqioKCUl5e7duzIyMjv0hvUVYDqFRqN5e3sjEAgUCiUjI9PZ2bmTopiQ5traWjExMT8/v9zcXC8vr0uXLhUXFw8PD1++fPnHH3/Mz8+HtxsQEGBqajo7O6ulpaWurp6VlZWeno5AIB49egQf7P7+/u7u7oODg/Ly8qamptnZ2QkJCby8vGZmZng8vq6ujpeX19zcPDc3NycnR1dXV0FBYWhoaHl5OTY2lpOTMzY2Njs7297e/vr165WVlZs1FkgzTGZbae7s7BQTE3Nzc8vLywsICODk5MzJydmM6mbpOByusrJyh3+GvaurS1xc3NTUND8/PzMz8969e4qKikyY+maVqa+v5+XlbW9vl5OTi4mJ2Wy1DdNZLs0EAuHhw4e3bt3S0tLCYrEbbnRpaamysnJ2djYhIUFMTCwrK6u4uDgjI+POnTsKCgpv/qfg4fLn5+c33PpOEncrzeXl5VJSUlNTUxAEBQQEXLx4UVlZmUgkQhD04MEDY2Pj5eXlNdvt6enh5eVdXcmFhQX4BLJmzW1/YjAYBQWF+vr6bddkQponJiZu3LhRW1u7deG1tbW8vLwoFGr9aqmpqefPn99J/857KM2FhYUiIiJIJJLREWJoaFhcXOzq6mpoaDg4OOjt7Y3BYODjUFVV1d7eHoYYGxvr6+vr7OyspqaWlZU1MTGhp6f31VdfGRkZzczMYLHY8PBwVVVVOzu78fHx9dAZKe++NHd3d0tKShYUFPDw8MA3/bOzs15eXhEREaqqqp6enmg0mkajhYaG1tXVrZdmCIKGhobMzc0fPHiQkJAAn5RxOFxAQICampqHhwcOh4MgqLm52dTUVFVV1cPDA4PBwNI8MzMTFRVVWloaEhIi/3qSk5NTVlZuaGjA4/GJiYlaWlqamprZ2dk0Gg0uxNDQ0MDAoLq6mkKhwN1a6urqWlpapaWlNBqNQqHU1tbq6elpa2sXFBRsbXJAmhl7KWNmW2keHh4WExNLS0ujUql0Op1MJickJISHh5NIpMHBQXNzcxUVFcZBhMfjQ0JC1NTU3Nzc4Gu2gIBAcnLyw4cPnZ2dZ2dn6XQ6Dofz8fF58OCBu7v71jdjzEnzvXv34EsajUYbHR29fPlyUFCQlZVVR0cHXH83N7fU1FQ/P7/y8nITExM9Pb2GhgYIgpaWlnJzcx89eqSmppaYmAh3r3p7e8fExGhoaISFhXV1dZmZmZmYmMA9x2QyubS0dOW6q6urW11dTaPRqFRqU1OTrq6uqamppqamgoICCoWSlJQMCQnR1tZ2cHAYGRlhkF8/w4Q0JyUlKSkpwU/DFhcXg4ODs7KyhoeHBQUFJSUlZWVlp6en6XQ6LM3Dw8MiIiJpaWm011NTU5ObmxvMRE9P7+XLl0gkUlxcHD550mi0iooKNzc3FAqlrq7+4MED+Lim0+lTU1NSUlIODg5YLNbS0vLhw4ewXREIBH9/fyDN6yO7JmVbac7Ly5OWloY7F0gkUmxsbEpKCp1On5iYcHV1ffDgQXBw8OzsLJFIDAkJiY2N1dTU9Hg9wZ2CU1NT2traNTU1Hh4eMzMzBAIhISFBXV3dwcFhYGCARqPNzMx4eHg8ePDA1dV1fn6eSqUaGBgoKCjAt5c0Gq2lpcXExGRubg6Px0dHR6uoqFhZWfX09EAQVFRUFBsb6+joqK6unpSUtLS0BD/u0NLSMjQ0rKmpoVAoubm5ISEh8Bnj2bNn+fn5tbW1v//+u7+//5EjR7i4uEpLS0kkUn5+vp6enrq6elRU1Ba+wnJp7uvr4+DgSEhIkJSUhPs+h4aGHB0dc3JytLS0vL295+fnsVgsfBuZkJCgpqa2sLAA317Gx8efPXt2cHCwp6fH0tLywYMH8Nlvfn7e19c3JSXl0aNHL1++JBAIsbGxMHO4Z2psbMzW1lZNTS0yMhKPx8Plj4yMZGVleXl5PX78ODQ0lEwmFxUVqamp6erq1tbWbn052600j42NSUhIdHR0UKlUXV3dp0+fsrOzj4+PYzAYTk7OzMxMCIK6u7vNzMwePnyYkZGxvLzc09PDw8OTlZWlra3t7OyMRqNhaQ4KCrKwsNDW1q6oqIAgaHl5+eXLlzo6Otra2kVFRfC1u7+/39raWlVVNTIyEovFMqR5cXExMDAwLi5ui9bttqd5YmLi+vXrDg4OmpqaK0GZmJig0+lEIhE+NB4+fFhQUDAyMqKsrPx///d/tra2OBxuZmbGy8tLTU3N398fh8OlpqaeOXMmMjJSQ0PDx8dns85EOp3+HkqzjY2NoqIiiURafZ6i0WgeHh6GhoZIJFJBQWHlZPT06VNRUdHw8PBHjx4hEAg0Gv3kyZMzZ86Eh4dHRUVdu3atuLg4OTmZjY0tOzsbj8ebmZkx1ldQUNhizMa7L81JSUnq6urT09Oampqenp5UKhWFQl24cEFaWhruf3r69CmFQnn48GF6evp6ae7t7eXg4DAyMgoPD+fk5LS3t5+amlJSUpKWlo6Kirpz546JiQkSibx8+bKjo2NkZCQHB4eJiQkszWg02sDAID4+vq2tLScnJzMzU1VVlYuLq7Oz08PDQ0BAIDIy0sHB4dixYy0tLfY7mXcAACAASURBVE1NTb/88outra2zs/OZM2cqKio8PT3FxMQSExPt7OzOnj3b2tpaVFTEwcHh7Ozs6el58eLF58+fb/HgDEjz6oMCnt9Wmpuamvj5+UdHR9fkHRwcvHTpkq2tbWJiIg8Pj56e3uTkpLa2toiISGRkpKysrLa2dn5+/tGjRyUlJd3c3K5fv25oaIjH4588eSImJhYREaGuri4vL7/F6ekNpRmusJKSko2Nzb1790xMTCgUSkdHBxsbW2lp6d27dzk4OFJTUx0dHS9fvtzb25ueni4gIBAeHu7r63vmzJmioqKSkpKTJ08aGxvHx8dfvnyZk5Pz2bNn+vr69+/fJxAIqamp165d8/X1dXJyunTpUmlpaUdHh4CAgJ2dnY+Pz5kzZ2RlZVEoFB8fHzc3d3h4+IMHD+7evbvFE0AmpLm7u1tYWFhdXT02Nra5uRmGOTw8LCoqWlFRIScnt6LLFAoFlmYcDmdpacnHx+fl5VVYWIhCoeC+pcHBQU1NzaWlJTQaraysLCIiEhISUl5ePj09TaVSh4eH2djYysrKGDsAjUbz8vLi5eWdnp7Oy8s7ffr0kydPkpOTOzo68Hj8Fgcg6GmGGW4rzSgUSlxcXFFRMSoqqqGhAX5uvrCwoKqqqqCgEBkZKS8vr6Ojs7CwoKioePPmTS8vr5SUlNu3bzc2NkIQFBsbKywsjEQiYfMOCwsTEBCIiorS0dHR0NDo7u6WkJCAC5eWllZRURkfHz969GhwcDCsuYxAk0gkJycncXHx2NhYAwMDERGRiYmJ4ODgs2fPhoaGJicn8/Pz5+fnNzU18fDwBAcHrwyAlJWVHR4e9vHx0dDQoFAodDrdysoqICAA7uQrLCzk5uZe6XCZmJjIycm5cOFCYGCgj4/PL7/8kpaWxtjumhnWSjMEQWFhYSudNSgUSktLy9/fH4IgJBJ57tw5GRmZmJgYWVlZVVVVFAolLS3d3NyckJCgpKQ0NjaGxWInJiYMDQ15eHja2tpWnPXp06cr1zI4UuPj41JSUtzc3L6+vo2NjWZmZtzc3BEREUpKSggEYnBwUFpaWllZOSws7M6dO4aGhmg0WkpKqrW11dHR8ezZs9bW1llZWUlJSTdu3AgLC1sZG7kyGuTly5dbHE27leYVc3348GFubi4Khbp//35hYSEnJ2dhYWFtbe358+dnZ2f7+vo4OTn19fUDAgK4uLgCAwO7u7uvXr3Ky8sbGhqKQCDk5OTGxsbU1dX/9a9/2dnZ6enpXbx4sbu7u7Cw8MaNG+7u7p6enlevXs3JyRkeHr5z546Ojk5ERISQkNDTp0+np6cVFBRKS0v9/f3v3r279QN8JqT51KlT/Pz8kZGRqqqqKioqGAzGzc1NVFQ0JibGzs7uypUrdXV1ERER7OzsKz0ds7OzioqK9+/fj4qKEhUVdXR0TEhI+Pvf/66kpOTi4nLixAlXV9fNyL+H0mxkZKSqqrr6JgaCoDXS3NraevToUU9Pz/r6+qKiIhERkZKSEkNDQw0NDRwOt7y8rKCgkJSUhEQib968OTAwMD09ffToUS8vr/r6+uLiYmFh4S3G9Lz70qyvr+/s7IzFYoOCghAIxOzsLAqFunXrFnzXWFVVJSQkNDk5uaE0U6lUf3//33//He7SKCwslJSUfP78+eHDh+EnLyuX2KysrK6urrS0tJUer4aGBjU1tVu3bq2W5sTERDqdvry8nJ+fz8PDU1ZWRqFQCgoKqqqqenp6ioqKTp8+vXKna2JioqiouLS0tLi4mJGRgUQiy8vLW1paenp68vLyTpw4kZ2dbWtra2Jisvx6cnd3FxQUhLsE1px24Z9Amtdj2Vaa6+rq+Pj4Vt8lQq+n8fHxyMjI4eHhlY5JCwsLCQmJqqoqNja2mpoaOp0+MjKSnJycl5fHycnZ0dFBoVD8/PyuXLnS0dFx8+bNlJSUxsbGlJSU06dPV1VVra8VnMISadbS0rK2tk5LS+Pk5BwYGAgPD5eQkIDHIYSFhcG9dydOnKioqFg53isqKgYGBioqKm7evOnv719SUiIsLDwxMYHBYBAIhLu7O51OLygoEBIS6u/v19fXd3Nzo9FoZDLZyMhIUVExNDRUWVkZ3mPNzc3hnmZxcfEXL17AF+ZLly51dXVt1l4mpJlCoTQ2Ntra2t6/f19cXFxJSamjowOW5ubm5uzsbFFR0fb2dliaSSTS9PR0dHS0pqbmyqARSUnJ8PBwCIKKi4sdHR3h8+Tg4GBQUJCKiork6yktLa2jo+P48ePNzc2MakMQFBERceXKlZW+Bvgps6mpKQKBuH37to6OTk9PD2PNNTNAmmEg20ozjUZrbW11cnJSVFQUFxe/d+/eq1ev6uvreXh4MjIyGhoawsLCfv311/7+fgQCERUVRafT8Xj848ePrayssFispqZmXFxcf3+/tLR0b2+vqKhoUlISjUZDo9F5eXnp6emnT5/u7u6m0+mTk5OCgoKlpaVff/11XFzcalFYeWo/MTEhLS1dWlpKp9PhZybPnj0LCgqCb7GWlpZ0dHT8/f3r6+v5+fljYmJaWlpqamrgR0kbSnNra6u0tDQ8PKOpqSknJ6e/v7+yshJWrjV7C+Mna6UZ5uPp6YnFYn18fMTFxRcXF+FrPfyMpaKi4vDhww0NDQxpZmNjk5aWvnv37p07dwQFBXNycqanp58/fz42NoZEIs3Nzc+fP49CocTExDIyMuh0+tDQ0PXr1wsLC+HTS2xsbGpq6s2bNwsLCxsaGvz9/f/5z392dXXB0uzg4KCtrU18Penp6fn6+tLpdBKJpK+vr62tvcU99m6lmUwmW1tbh4eHFxcXKykpTUxM6OvrP336dGVXkZeXh58tw5fjuro6KyurCxcuNDY2cnNzV1VVQRDU2Nj422+/lZaWqqur29nZ0Wi0ycnJy5cv5+Xl2drawh1ty8vLzs7O4uLiiYmJ8vLyMzMzNBotPz//0qVLr169WrmFu3fvHjs7e11d3WpDYwSaMcOENF+5ciU1NZVGo42Pj9+6dauuri4nJ6e6urq7u7ugoICTk7OkpKSqqoqHhweFQr169ers2bPwGOj+/v6CgoL4+PijR4/29/dTKBQrKysEArFZDd9Dafb29lZQUGAMXYcgqK6urrW1FR6eAfc0l5aWfvLJJ7dv34bvNmRlZUtLSw0NDWH9WjlBKCsrx8XFMaS5q6vrk08+ERUVVXw9ycrKlpSUrD6/MIJNp9PfcWnGYDDHjh3j4OCQlJT8/ffff/3119LSUvjWE7756+3tFRYWbmtr21CaSSQS/EQe3qW6u7tlZGT8/PxOnDgBP3qGIIhMJo+OjmpqasrKympqagoJCfHz86+XZvgoSk1NpVKpEASlp6fLyMjcv3/f0NDw2LFjcXFx8G0fzHZ5eXlpaSkjI0NOTm7l1QQ9Pb3Dhw+npqYaGhoGBQXB62RnZ58/f35sbGx1OFbPA2leTQOe31aaW1tbhYSEent7GXlRKFRdXd3Q0JCBgYGsrKyampqiouLt27ezsrIuXbq0ejeorKwUERGBB0vExMScPn26urr63LlzCgoKioqKCASCn59/i/vPN5dmCILu3Lnj7e2NRqP5+PhiY2Pv3bv37Nmz6elpeXl52Abm5uaOHz9eUlLy8uVLuFtIV1f39OnTXl5eJSUlMjIyJBJpbm5ORUUlPT2dTqeXl5cLCAi0tbWt9LikpqbCWCIiIvj5+a2srMzNzeEzQ3Bw8P3791EolLy8PPy+3ejoKA8PT0lJCYPkmpndSjMEQX19fSMjIyQSaX5+vq2tTUtLS1ZWtqurS1RUtLm5eX5+/smTJ3Jych4eHqampmg0uqmpifB6Ghsbi42NvXjx4sTEhJ+fX1ZWFp1On5mZ6erqIpFIWCx2aGgoKCgIvthcvXoVHh4A3+vSaDRra2sJCYmZmZn29va5ubmlpaWZmZmWlpb79+/b2dmtHxwJtxRIM8xha2mGIGhgYKC/v59MJi8sLHR2dhoZGd26dSslJeXMmTN3795VVFS8e/cuLy9vU1MTAoGAx8NAEJSTk3P69Om6ujopKan5+XlYmhneA48ugIehc3Nzw+92k8lkBQWFjIyMy5cvu7m5MQKHw+HgI4IxIh+LxT569MjJyQke7LS8vEyhUAwNDb29vbFYbHBwsLS0NB8f38OHD8fGxuCe5uXlZQiCLC0tGT3Nq6W5vr5eTk5u5WKtp6d37tw5JyenNYcD4ydrpRmJRF68eJGbm1tSUnLl3vjLL7+srKxEIpG3bt2Cm9/T03P8+PHs7GyGNEtISBQWFtbU1DQ0NAwNDa08hsVgMJaWltLS0qqqqlJSUqdOnYKlGb4lfvXqFScnJ3xbAo/7iouLO336NOwP8vLyv//+e319PUOabW1taTQaFotVU1PLzMyEG+7v7y8uLr5FH9BupZlGo8XHxxsbG1tZWdnY2CwtLWVlZYmJiRkYGMTExCwvL9va2p45cwaupIyMjLS0dGVlpYCAAIxleHj4woUL8GNq+EyIw+GuXr2anp7+5MmT0NBQuNrp6elXr151cnLS1dWFH/h3dnZevny5sLDwzp07N27cYGdnz87O3kyf4EKYkGZubu6WlhY6nU4gEO7evZufn5+SkiIrK3v//n0jI6MLFy6sPOVgSHNhYeHVq1dhVYCHl6SmprKzs8Ov33h7e0tJSa156sLYG99DaW5paeHn56+vr4cH1szNzV24cMHOzs7R0ZExPKOlpeXo0aPV1dWw4VVXV6PRaENDQ1NTU3j/WCPNExMTR44cqampgflWVVVtMRbzXZZm+A0AAQEB+BRQUVGBQCAMDAxGRkakpKRaWlrgG0pBQcGpqanV0jw5OQn3L1IoFHd3dz4+PhKJBEFQbW3tnTt3UlNTv//++46ODgiCsFisjY2NhYWFsLBwb28vHo+3s7Pj4+NbI81EIlFDQwM+dCEIwuFw58+fd3Z2npmZwWAwFy9efPbsma6u7sOHD6lU6vLycnR0dEBAgJSUVGBg4Nzc3MTExJkzZzIyMiwsLKytreExmgEBAdzc3KvfWmDs6PAMkOY1QHbyIuDExISkpGRsbCx8b0Mmk+3t7WVlZT09PY8dO9bd3b20tBQdHX379u2ysrKTJ0+2t7dDEDQ/P29ubp6UlMR4ERCWZiQSyc/PPzMzAwe9oKAAHnS7vmJ0Op1paYZH38LddWxsbIWFhVQq1dPTU1RUVFJScnJycmZmRl5evqKigk6nz83NnThxIjc318DAwNDQcGJiAovF3r59G5ZmWVlZMpkMSzN8PSsvL+fn5+/u7tbW1g4MDIQ7aC0tLeXk5IKCguAONjKZ7OTkBL8IKCUlBY+Z7uzsXBkEBV9KN2wvE9Jsampqbm6+uLgIf+MiPDycg4OjpaUFlmY6nd7W1nbixAkuLi5TU9OXL1+eP3/+1atX8Lmxq6vr6tWrr169srCwaHj9QYOcnBxJSUn4ixkQBLW2tl67dq2ystLIyEhQUBCLxa74tK6ubkpKiqCgYHBw8PT0tJycXFxcHIVCgSvg7Oz8+PHjzcanAmmG476tNNvb22toaMBjXWg0WlJSEjs7e2ZmJnyjAkHQzMxMbm4uGo1GIBAvX76Ei8VgMJcvX9bQ0DAzM6NQKLA0d3d38/PzZ2VlQRA0OzsbGBgYHh5+8uTJkZERCILweLygoGBZWZmbm9utW7dQKBQcx7KyslOnTuXm5q58hKqurg6CIDQaLSMjExcXFxQUZG1tzZBmLy+voaGhxsbGhYUF2LFevHgRHBwMfzaHTCY/fPiQIc1tbW3S0tLR0dEkEgmBQGhoaKBQKCwWKy4uvmfSHBgYiEAgSktLa2pqysrKxMXF79+/39jYCL8iBkFQQ0PDjz/+uLqnmTGmGeYMQdDz588FBATa29vxeHxkZOTp06fHxsbExMTgr2H09/fDnx+AIIhAIDx+/NjHx0dKSopMJkMQNDU1BfdSM6TZzs4OXlNLSwt++LNy1TMxMVFTU9vsUKLT6buVZjqdXldXJykpycXFBe8PGAyGm5tbRESkubmZRqP5+vqqqKjAx/Lg4GBBQUF7ezsvL+/o6CgEQW1tbSvdbXBPM3yPDUvzyvzTp08dHBzgq7C3t7eQkFB0dDTcdwlBUHl5OTs7e0tLy927d4uLi318fBQUFLYwKOZeBOTg4CgrK4N38tu3bxcXF//yyy8eHh6zs7MYDIafnx9+lA33NDc2Np46dQoeo49Go728vEJDQxkvAsLB+oCkmUQiwRf1sLCwqKgoTU3NlStlZ2cn/PUMuKcZ7iTT1NSE3wdSUVEZGhpaL80DAwPXrl2LjIzEYDB6enrw+v7+/srKyoxPNa2/+L3L0oxGo2/evOnr68t49JCcnAwP4L569aqBgUFmZqahoaGdnd3qMc3s7Ox+fn6xr6eKior6+npBQUEPD4/MzEw1NbWVQeSjo6NKSkqGhoaZmZlGRkZ6enpeXl7CwsIvXrxISEgQEBDg5OTs6em5du0aPKY5IiLi6dOn586dCw0Nzc7Ozs/P7+jo4OXlNTY2zsnJcXV1PX78eHx8fHl5OScnJxxHPj4+uO/Z3t4+Ly/P2dn5yJEjKSkpOTk54uLiERER8Fsd0dHRW9zCAmlev7tu29MMv/kHD4SNi4uztrbm5uZOS0t79uzZ6dOns7KyMjIybt26JSIi0tPTo6WlpaOjk5mZaWZmpq6unpmZuUaa5+bmDA0NdXV109PTXVxcpKSk4Jc21leMaWmGR+DFxMT4+vqKiorq6enBz50aGxvZ2dnhnuD10pyXl/f06VMtLa28vLygoKBz587Z2dkVFxdvJs3Dw8OJiYkSEhLx8fExMTHw+/Xt7e1379719/ePi4sTEBCQl5dHoVBCQkKamporH7eysLBQVVXd4nnrbqWZTqdXVVWJiYmZmJhERER4eHgICQmtjLkaGhpiSDOVSk1OTv7yyy+NjY3RaPSjR4/k5eX9/f3DwsK0tLTk5eUHBgaMjIzgTpfBwcEV0VdWVg4NDQ0JCVFQUNDQ0IDf4lVQUICv6GJiYkePHr1y5Upzc/Pi4mJsbOzNmzft7e0jIiJcXFyEhIS2+IwXkGZ4P99amul0ektLi4SExOPHjyMiIry9vcXExFZeWpqamtLU1DQ1NV3p53v69Cn87aPV0gxBkI+Pz9GjR+FPicHSPDw87O/vr6qqmpaW5uLisvLWQXNz80pHmpmZWWZmpo2NjZqa2sTEBPywUVtbOyYmJjg4WEZGxtjYmEAgODg4aGlpZWZment7y8jIjI6Orpfm+vp6BAIRHx+fmJgoKytbW1v78uXLW7duhYaGwndxQUFB8Jjmrq4udXV1NTW1lQcU2tra9+7dy8nJCQoKOnXqlKWl5Wanbhb2NOPxeAQCERoaCisRBEGZmZmnTp2KjIxkZ2c3MjJKSUmBx0WsHtO8XprhUZ1ZWVlpaWlycnJHjhwZGRlhSDMej4dfgs/IyLCxsZGTk2tsbEQgEPA4MSMjo/v3709OTq6RZgqFEhcXJysrm5qaGhMTIyEhUVBQsBkT5qR5ZWSCqKjo2bNnGb3gd+/eFRAQgL9tAHe3u7u7p6SkqKqqWlhYdHd3c3JyGhgYpKWlrZwllJSURkZGGF/PgKU5JycnOztbUlIyOjo6ISFBWlo6Pj6+r68PgUC4uLikpaWtDDJ58uQJPKa5vr5+Zmbm3r17gYGBm1kpc9J87tw5TU3NjIwMa2trXV3dkZGRS5curYycycnJcXZ2Pnfu3IsXL9rb28+fP//s2bPx8XEVFRULC4vMzEwDAwNra+vo6OgPV5rhh4wrL7+bmZkZGRl5eXnB7wsXFRWlpqaOjY1FRETAXZUhISHW1taOjo719fVUKjU1NTUjIwMOZHR0dF1dHZlMDggI8Pb2np6eHh8fZ6zf0NCwRbzfZWkeGhp68uQJ/AAdPn2vvC799OnTnJyc27dv29vbW1tbBwUFTUxM0Gi0hIQEJBJZX1//8OFDPT09/ddTZGQkgUBobGx0cnKytraOjIyEP2EzOjrq5+dnY2Pj4+MzPj4+PT3t5+dna2sbGhqakpJiZ2eHQqFcXFxwOFxKSkpRUZGjo6OOjo7F62mlK7q2traystLe3t7FxSUzMzMoKKi0tHR5eTk3N9fe3t7R0TEvLw+Px9fU1NjZ2cGHoqura0VFBYFAyM/Pt7W1tbOzS0tL2/obSUCa17vpttJMp9MXFxfLysqsrKyePHlia2tbUVFBIpFmZ2dDQ0NtbW39/f0LCwt9fX3hwfEBAQHwbjA2NtbX1+fn5wcHpba2duURBARBY2Nj3t7eVlZW7u7uzc3NWxxKTPQ0I5FIY2NjeHc1MzNbeXua8Ynx2dlZKSmpoqIieABoWFgYPOaESCSuPGld+aRMZ2enm5sb/FJIcHDwihN3dHTA11cikRgTEwOPgevt7fX29p6bm8PhcFlZWdbW1vCNHDywvrq62sbGxtXV1c/PLzIycn5+PigoKCEhAX47cOvPsjIhzfB763Z2dvr6+qampqmpqXBoAgICGIc5hUJxdXVNT0+nUCjj4+Ph4eHwF2l8fX37+vra2toCAgLgb+BQqdTu7m4fHx99fX34df7x8XH4sj02NhYSEmJqamphYQGfCc3MzObn5wkEwsql3cLCAh4fWVBQsMUXBoE071CaqVRqQ0ODo6Ojvr6+iYlJUlIS/DChu7vb3d3dysrKx8enu7t7cXExMjJy9TtV09PTlpaWcMr09HRISAgGg5mdnY2MjLSxsfHy8mpra6NQKH19ffAx6OnpufIpJLgPZWBgIDAwcGWMoomJSVxcHHzgoNHo8PBw+GhtaGiAv6ny4sULKpVKo9FW3oUtLi4mEAhpaWn2r6fnz58TiUQSiRQfH29hYeHn5xcfH19dXT04OOjl5TU7O1teXr7yklxVVVVnZ6ejo6ODg0NCQkJsbOyzZ882OxWwUJrn5uZcXFxWDzaDBXflzdcbN26Eh4fb2toGBwdPTU3hcLiQkJDR0dH6+vq4uLg1Pb5YLDY2Ntba2trPzy81NdXY2HhycjIgIIDx7sfU1FRISIiNjY2np+fg4CD83Aa+aPr5+Q0MDOBwuODgYBQKlZeXl5ubCx9lWCw2IyPD0tLS3t6+sLCQMVpm/XmbOWleXl6OjIxc+SgCoznZ2dlhYWHwOAoqlVpdXe3g4GBtbR0aGjo9PT01NeXp6fn8+XM7Ozs/P7+RkZHFxcX4+Hj4kyNLS0vOzs7t7e1EIjEvL8/GxsbOzi4zM5NMJsPfEXJ2draxsQkPD5+amiIQCBEREfDOtjKGPigoaM3XGla3cbfDMxYWFpydncPCwuzs7Nzc3GDgVVVV9vb2rq6uWVlZwcHBdXV1i4uLzs7OwcHBWCy2v7/fx8fHxsYmMDBwcnKyubnZwcEBBl5SUhIcHLzZ7cp7ODxjNfp9mX+XpXkzICgUSk5ObotXlDbLeLDSgTSvj9dOpHl9rr1JYUKaN6sYHo/Pz89XUlLa+nuRm2Xfm3QmpPnNK0YmkwkEwmZXiM3KJ5PJMzMzm1nOZrmANMNktu1p3gzgh5nOQmneDOBK95CAgMAWA4g3y7iP6UwMz9jH2u5q07uV5l0V/oYrA2l+Q4AbZD+I0oxGo42NjbcYc7JBOw9gEpDm9UH7QKQ5ICBAQEAgJSUF/gzWeg7vQsq+SPNeNhxIM0wbSPOu9ro9kOaenh5NTc03/5Mlu2rXG64MpPkNATKXHUgzc9y2ynUQpZlCoUxMTGw9tmGrNh+QZUCa1wfqA5HmlU/rDw4OMh5KrufwLqQAaX4XorAHdQDSvCvIeyDNJBJpbGyM8arPrqq3XysDad4X8kCaWY/9IEoz6ym8kyUCaV4flg9Emtc3/B1MAdL8DgblbVQJSPOuqO6BNO+qPu/IykCa9yUQQJpZjx1IM+uZsqhEIM3rQQJpXs9kv1KANO8X+T3eLpDmXQEH0rwhLiDNG2J524lAmllPGEgz65myqEQgzetBAmlez2S/UoA07xf5Pd4ukOZdAQfSvCEuIM0bYnnbiUCaWU8YSDPrmbKoRCDN60ECaV7PZL9SgDTvF/k93i6Q5l0BB9K8IS4gzRtieduJQJpZTxhIM+uZsqhEIM3rQQJpXs9kv1KANO8X+T3eLpDmXQEH0rwhLiDNG2J524lAmllPGEgz65myqEQgzetBAmlez2S/UoA07xf5Pd4ukOZdAQfSvCEuIM0bYnnbiUCaWU8YSDPrmbKoRCDN60ECaV7PZL9SgDTvF/k93i6Q5l0BB9K8IS4gzRtieduJQJpZTxhIM+uZsqhEIM3rQQJpXs9kv1KANO8X+T3eLpDmXQEH0rwhLiDNG2J524kHT5odHR2TkpJSWTclJCSkpKSwrrzUp0+fFhUVve3IbVa+j49PWFgYC5vzJkUlJyezNlhvUpnU1FQlJaXJycnN0H2Y6W1tbYqKim8IlpE9MTExOTmZ8fMNZ2JiYlxcXFbHxcHBwc/P7w2L3Xn2Z6+nna//hmt6eXn5+/uvbq+JiUl8fPwbFruT7AkJCTtZ7Q3XiYiIcHZ2JhAIq9v4Ac47OTntDfDdxisxMZG1V8PdVmDD9WNjYx0dHaenp3eyq5ibm0dGRm5YzttLjIuLe3uFb1aykJDQaiAtLS0qKiqbrcyq9L05JYqKiq5uWldXl5WVFUua8Oan0+TkZDs7u46OjtU13LP5j5jY0ujoaBNLJ2Vl5ezsbBYWWV9fj8FgmGgaS7KwnM+bkMnKyrK1tX2TElibt7m5+b3/q4e73YsIBEJdXR2rOOvp6T179oxVpTU2No6Nja1u0ejoaENDA6vK37YcX1/fyMjIbVdj1QoNDQ3j4+Or2zs4OMiqwrcop7GxUUNDo7GxcYt1WLKosbGxt7eXSqWubuMHOP9OnaUZkW1oaDA1NS0qKmKkvCMzjY2N3d3dy8vLO9lVhoaGTvZcywAAIABJREFU9mBPXkOGl5eXhWfRNYVv8XM1EDwevwd1iIiI8Pf336JKrFq0umlEIrG1tZUlJUtKSr55Oa2trUQicXUN92yeGWlmeeUMDQ2Hh4dZXiwokE6n9/X1RUREABQfDgFHR8dXr169N+3Nzs6urq5+b5qzWUMgCLKwsIAgaLMVQPqHQIBKpfr6+qLR6A+hsaxt4+3bt3fo9Kzd7t6XVllZmZubu/fbZdUWlZWVWVXUvpQDpHlfsO/dRoE07x3rd2NLQJrfjTjsrhZAmnfH6z1dG0gz04EF0sw0uj3OCKSZBcBBTzMLIG5SBJDmTcC8t8lAmg9iaIE0H8SosbzOQJqZRgqkmWl0e5wRSDMLgANpZgHETYoA0rwJmPc2GUjzQQwtkOaDGDWW1xlIM9NIgTQzjW6PMwJpZgFwIM0sgLhJEUCaNwHz3iYDaT6IoQXSfBCjxvI6A2lmGimQZqbR7XFGIM0sAA6kmQUQNykCSPMmYN7bZCDNBzG0QJoPYtRYXmcgzUwjBdLMNLo9zgikmQXAgTSzAOImRQBp3gTMe5sMpPkghhZI80GMGsvrDKSZaaRAmplGt8cZgTSzADiQZhZA3KQIIM2bgHlvk4E0H8TQAmk+iFFjeZ2BNDONFEgz0+j2OCOQZhYAB9LMAoibFAGkeRMw720ykOaDGFogzQcxaiyvM5BmppECaWYa3R5nBNLMAuDvrDSTyeS3+r10Eon0VssHf9yEBXvnQSsCSPNBi9j/qy+Q5oMYNZbXGUgz00iBNDONbo8zAmlmAfC3JM14PF5ZWVlcXFxWVlZHR6enpwePx9NotMXFRRqNRqFQcDgcgUCAIGh5eRmLxRIIBCqVurS0RKfTKRQKkUhUUVHp7++H18RisQzBJRKJ6enpGhoaDx48CAsLIxKJVCqVQCDgcDgKhbK0tEQkEuH55eXlhYUFAoFAo9GWlpYoFAqVSl1cXExJSamoqFBVVR0cHFxfPguY/lEE6Gn+g8SH8j+Q5oMYaSDNBzFqLK8zkGamkQJpZhrdHmcE0swC4G9JmnE4nIWFRW9vL5FIXFxcnJ+fd3Nza2hoSExMnJubKysrCw0NDQwM7OvrKyoqCg8PDw0NRSKRCQkJVCq1tbU1OTn54sWLOTk5VVVVkZGRoaGhRUVFFAoFgqDy8nILC4uRkZGJiYnExMSxsbH29vaIiIiwsLCSkpKEhIS4uLiEhITCwsLnz5+Hh4dHRUWNjo4mJSV1d3f39/dHRUVFRETExcVduXIlLy9vTfksALqqCCDNq2B8ELNAmg9imIE0H8SosbzOQJqZRgqkmWl0e5wRSDMLgL89aZaXl0cgEJqamu7u7mg0Oj8/X0REJCoqCoVCPXr0qLi4ODg4WF9f383Nrb29veH1ZG5uTqFQiouLY2Nj+fn5u7q66uvra2trk5OT7ezscDgclUoNDw/PzMyEH6ouLS0tLy8HBgYWFhZ2dHQ8ffoULrm9vd3GxkZTU9PLy6u4uHhqasrKyqq6urqxsdHAwCAsLKygoEBERKSnp6ehoaGmpiY1NdXGxgaLxb4h0JmZGTQazSgESDMDxQcyA6T5IAYaSPNBjBrL6wykmWmkQJqZRrfHGYE0swD425NmU1NTJBKJRqPn5uaoVOqKGQsKCmZkZAwMDIiIiOjo6GhraxsZGbm7u09PT09OTra2tpqZmZFIpNzc3Pj4eGFh4d7e3vDwcAMDA0NDQ2NjYywWS6PRMjIy/P39yWQyiUSqrKzs6+tzdXVFIpFzc3Ompqaampo9PT0TExPOzs4lJSXOzs737t2rqKiwsbGpqKh4+fKljo5OWFhYWVmZmJgYLLX6+vrGxsZGRkbz8/NvCDQzM1NCQmJiYgKCIDCm+Q1hHsTsQJoPYtSANB/EqLG8zkCamUYKpJlpdHucEUgzC4C/JWnG4/G6urre3t7R0dHJyclIJNLQ0DAhIcHZ2XloaMjX1zcqKsrb2zsnJycsLCwmJsbb27uystLZ2Tk1NdXJySkhIUFFRSUhIcHJySk5OTkxMXGlFxmW2vHxcXt7+4CAgLCwMDs7u+Hh4efPn/v6+kZERHh7e9va2vb19U1OTrq4uHh7e8fFxdna2tbU1Dx79szLy8vDw0NXVzcmJqaysvLBgwdJSUkuLi7PXk8WFhZzc3NvCDQjI+Nvf/sbAoHo6uqCIAj0NL8hzwOXHUjzgQsZeBHwIIbsbdQZSDPTVIE0M41ujzMCaWYB8LckzVQqtaOjo/71hEQiUShUZ2fn8vLy8PAwHo+fn59va2vr6OhYXFzEYDBtbW19fX1LS0sTExOtra09PT0zMzODg4P9/f0oFKqrq6u/v394eBh+FxCCIAwGg3w9TU5OQhBEIBC6urra2trm5+fHxsYWFxfJZDIKhZqamkIikd3d3YuLi3g8vrOzs6ura3BwcGpqamFhYXBwcGBgYH35b8I0IyPjr3/969/+9jcJCYnR0VEgzW8C8yDmBdJ8EKMGepoPYtRYXmcgzUwjBdLMNLo9zgikmQXADQ0Nh4aGVi4bYHpzAunp6X/9618/+uij//iP/5CTk6uuro6IiGBBkEARB4QAkOYDEqh/q+bKgW9hYQEPqfq3BeDHh0QASDPT0QbSzDS6Pc4IpJkFwA0MDNLS0jLBxAoCJiYmf/rTnz56Pf3pT3/i4eHx8vJiQZBAEQeEAJDmAxKof6smkOZ/w/Gh/gDSzHTkgTQzjW6PMwJpZgHwx48fl5SUwOMowL9vSMDV1fXPf/4zLM1ffPGFnp6ev78/C4IEijggBIA0H5BA/Vs1gTT/G44P9QeQZqYjD6SZaXR7nBFIMwuAv6UxzSyo2QEsAh7T/NFHH3388cfJycmdnZ1geMYBDCPzVQbSzDy7/csJpHn/2L9DWwbSzHQwgDQzjW6PMwJpZgFwIM0sgPhHEbA0f/fdd35+fiQSCbwI+AeYD+V/IM0HMdJAmg9i1FheZyDNTCMF0sw0uj3OCKSZBcCBNLMA4h9FZGRkHDp0KCQkBP46HpDmP8B8KP8DaT6IkQbSfBCjxvI6A2lmGimQZqbR7XFGIM0sAA6kmQUQ/yiipqYmMTGRQqHACUCa/wDzofwPpPkgRhpI80GMGsvrDKSZaaRAmplGt8cZgTSzADiQZhZA/KOI5dfTH7/oQJoZKD6QGSDNBzHQQJoPYtRYXmcgzUwjBdLMNLo9zgikmQXAgTSzAOImRQBp3gTMe5sMpPkghhZI80GMGsvrDKSZaaRAmplGt8cZgTSzADiQZhZA3KQIIM2bgHlvk4E0H8TQAmk+iFFjeZ2BNDONFEgz0+j2OCOQZhYAB9LMAoibFAGkeRMw720ykOaDGFogzQcxaiyvM5BmppECaWYa3R5nBNLMAuBAmlkAcZMigDRvAua9TQbSfBBDC6T5IEaN5XUG0sw0UiDNTKPb44xAmlkA/G1IMxqNxuPxO6/c8vIyBoMhEAiLi4twrsXFRRwOt1kJJBJpfHx8ampqeXl5s3XedvrS0tK2bQTS/Laj8K6VD6T5XYvITuoDpHknlN77dYA0Mx1iIM1Mo9vjjECaWQB8M2mmUqm41xOFQiEQCDQajUQiUSgUGo2Gfz1BEASvg8fjqVQqiUSivZ6IRKKuri4SiaRSqQQCYWFhgUQiwRVlfFxiaWmJQqEsLS0tLCwsLi52dHQ8ePCguLi4paUFLjMtLc3T05NCoeBwOCwWS3k94XA4PB5Po9EGBgasrKy8vb0nJydpNBqcDkEQmUzGYrGLi4sQBDG2iMfjcTjc8vIyjUYjEokLCwvLy8sQBOHxeLhkCIKIRCIOh6NQKIwWMVqHw+HgduHx+IWFBTKZTCKR8Hh8TU1NQUEBjUYjEAhYLJZMJjOI0Wg0eOtAmlmwgx6oIoA0H6hw/f+VBdJ8EKPG8joDaWYaKZBmptHtcUYgzSwAvqE0U6nUkpISLy8vPz+//Px8Dw+P4uLiyMjInp6e0tJSDw8Pd3f3+vr6kpIST09PDw+Purq62NjYiYmJ4eFhPz8/QUHByMjIxsbGwMBALy+v0NBQIpFIp9Orq6uLiorweLyfn19LS0toaKiPj4+3t3dJScmDBw8yMzMrKiqysrI8PT21tbWdnJzKysp8fX2trKxyc3MLCwt9Xk+NjY2ZmZleXl6+vr41NTX5+fnu7u5ubm6NjY1JSUkuLi4BAQEzMzMwmsrKSktLy6CgoIiICCQS6ePj4+vr++zZs6qqKg8PD3jTra2t7u7uXl5ez58/r6qqsre39/Dw6O7ufvnypZOTk6OjY1tbW3Nzs7+/v6ura2xsbHh4uIWFhYODQ1JSUm9vr4+Pj7Ozc2hoaGlpqePrqaOjA956X1+fg4NDTk5O5luesrKySkpKuru7GfcnLNgzQBG7JwCkeffM9j8HkOb9j8E7UAMgzUwHAUgz0+j2OCOQZhYA31Ca5+bmDA0NA15PNjY2L1++5OHh8fHxGR0dlZOT8/b2dnZ2VlBQcHR0bG5u7u/vb2trc3NzGx4e7u7u9vHxUVJS6ujo6OzsfPbsWVxc3MOHD8fHx+l0eldXl5+fX0VFhaOjY39/P7z00aNHCQkJKioqsbGxcXFxCARiYGAgLi7O1dW1srJy5W+FmJqa6unpOTo69vT0jIyMVFZWGhgYYDCYhoYGY2NjYWHhoKAgR0dHDQ0NV1dXOzu7+Pj42dlZGE12draPj09/f7+qqurT11NKSoqSkpKKigoSiUSj0a2trZaWliYmJsHBwQgEIiEh4fHjx2FhYX19fRkZGSYmJkFBQV1dXU1NTampqf7+/gYGBiYmJtHR0Tk5OVFRUb29vbGxsT4+PrKysqGhocbGxkFBQT09PfDW+/r6PDw8mpqa6t7yBN88BAQEBAUFYTAYFuwWoAimCABpZgrbPmcC0rzPAXg3Ng+kmek4AGlmGt0eZwTSzALgG0rz9PT048ePIyMjk5OTCwsL29vbL1265O7uPjQ0JCUlFR4enpiYGBsba29v39fXNzk5Wf//sXemQW2caeInyU5mJrNz7GZqd2trqram5sNObU3VfpjZ2dlNdjK7/0llJpPEyeR0nDhxHB9gGzA35r6FEAIJARYIJAQIxCEkhLjFDeLGXOIQIECAQNw3Qkf/U+4aymO7E7vz0lYrT39wxKP3efrp39NO/dz1SnR3JyQkzMzMDA8Ps9nsS5cujYyMSCQSBoOhUCjc3d3n5+cxDNvb24uNjY2IiKioqGhubvb398/Pz8f/xKU5JyfnwoULGxsb1dXVTCYzLi4uJSUlPj7ezc0tNjZ2aWlpe3u7tbXVy8vLarVqtdrr16+/+uqr+fn5hYWFZWVlQ0NDJSUlFy5caGlpwXdoVFZWisVio9Ho6urq5+cXHx9fVlaWk5Pj5eU1Pz+/s7PT09Pj5+fHYDCKi4vz8vJ0Ol1VVVVgYGBycvL09HR1dXVYWFh0dDSPx0tKShKJRL6+vgEBAWq1uqGhIScnRyQShYaGZmVlffDBB11dXVVVVWFhYQkJCVarFcOo/uUmVqs19+5hNpsR3BlQ4vEJgDQ/PrMnnwHS/ORn4AAdgDSTHgJIM2l0FCeCNCMA/lBptlgsMplMIBCI7x4RERFtbW23b98eGBgoLCy8fft2ampqSUmJUqnMzMzkcrlqtVoqlYrF4oyMjNu3b8fHxwuFwry8PIlEUl1dHRgYiEszhmEVFRXXrl0zGo0dHR0pKSl1dXUhISGlpaVBQUEKhaK1tVUsFhcWFjIYDC6Xm5aWJpPJOBxOaGioUCjkcrl8Pr+yspLP5wsEAj6fr1KphEIhn8/n8XgymUwoFIpEoujo6OHhYRxNc3OzXC5fXV0NDw/HnzqXlpampqaWlZXxeLycnBy5XN7c3MxkMkUiUWZmZkVFRWpqakpKSlFRUW1tbcbdQ3j3kMvlJSUloaGh8fHxHR0dGo2mrKysoKBAIBAUFBR8/vnneXl5/LtHQUEBruzU72ne29tLTU3Fn+sjuDmgxGMSAGl+TGAOsRyk2SHG8KSbAGkmPQGQZtLoKE4EaUYA/KHSjGHY/v7+2NjYF09z19bWZmZm7Ha7yWTa2Ngwm83j4+Narfbo6Gh/f398fFyn05nN5q2tLa1WOzU1ZTKZlpeXJyYm1tbWJiYmZmZm5ufnDw8P8V53d3f1er3dbj86OpqamtLpdHq9fnV1dXZ2dn19fWdnx2w2T05OTkxMLC8vm0ymiYkJvV4/Pz9vMpmYTCaDwTg4ONjb2xsZGZmcnDw6OjKbzWN3D7PZvL6+Pjw8rNfr8Qe9GIZtbW2tra0dHx/Pzc3t7+/r9fo7d+7gEZ1Op9Vq8U8x6vX6kZGRzc3Nw8PDsbExfHPw/v6+VqsdGRk5ODjY2toaHx+fmZmZm5szGAz4RyTxb/zAr3FmZmZzc1Or1Q4PD59cLPXSbLPZJBLJyMgIgjsDSjw+AZDmx2f25DNAmp/8DBygA5Bm0kMAaSaNjuJEkGYEwImkGUFppCVWVlaCg4NVKhXSqqdbjHppttvtZWVlfX19p3thUJ2AAEgzARiHDoM0O/R4qGoOpJk0aZBm0ugoTgRpRgCcLtKM4FIpL/GgNJ88hD6lXkCaTwnsI5YFaX5EUA61DKTZocbxpJoBaSZNHqSZNDqKE0GaEQAHaUYAkaDEvdJst9v1en1KSgrBWjRhkGY0HMlWAWkmS+5J5oE0P0n6DnNukGbSowBpJo2O4kSQZgTAQZoRQCQocSLNdrtdp9O99dZbZ86cIViLJmy326VS6dDQEJpyUOUxCYA0PyYwh1gO0uwQY3jSTYA0k54ASDNpdBQngjQjAA7SjAAiQQlcmu12+8LCwhdfa/2d73zn9ddfJ1iLJmw2mzMzM2dnZ9GUgyqPSQCk+TGBOcRykGaHGMOTbgKkmfQEQJpJo6M4EaQZAXCQZgQQCUrodLrs7Owvvl7j/Pnz3/rWt1xcXE5VmvHf45iVlbW3t0fQEYRPlwBI8+nyPZ3qIM2nw5VmVUGaSQ8MpJk0OooTQZoRAAdpRgCRoIROpwsNDX377befffZZl7vHKUnz8fHx1NRUenp6RETE7Ows/i3RBE1B+BQJgDSfItxTKw3SfGpo6VQYpJn0tECaSaOjOBGkGQFwkGYEEAlK6HS6l19++cc//jFuzC4uLj/5yU8+PoXjs88+CwkJqa+vPzo6IugFwlQQAGmmgjLqc4A0oyZKy3ogzaTHBtJMGh3FiSDNCICDNCOASFBCp9OxWKyoqKi/+7u/O9UnzQTnhzDVBECaqSaO4nwgzSgo0r4GSDPpEYI0k0ZHcSJIMwLgIM0IIBKUwD8IuL29zefzf/jDH572nmaCLiBMHQGQZupYozsTSDM6ljSuBNJMenggzaTRUZwI0owAOEgzAogEJU6+cu7o6CguLu7v//7vT2lPM8H5IUw1AZBmqomjOB9IMwqKtK8B0kx6hCDNpNFRnAjSjAA4SDMCiAQlTqQZw7DV1dXo6OizZ88SrIWwMxAAaabjFEGa6Tg15D2DNJNGCtJMGh3FiSDNCICDNCOASFDiXmnGMGxvb6+lpYVgLYSdgQBIMx2nCNJMx6kh7xmkmTRSkGbS6ChOBGlGABykGQFEghL3STPBKgg7DwGQZjrOEqSZjlND3jNIM2mkIM2k0VGcCNKMADhIMwKIBCVAmgnAOG0YpJmOowVppuPUkPcM0kwaKUgzaXQUJ4I0IwAO0owAIkEJkGYCME4bBmmm42hBmuk4NeQ9gzSTRgrSTBodxYkgzQiAgzQjgEhQAqSZAIzThkGa6ThakGY6Tg15zyDNpJGCNJNGR3EiSDMC4CDNCCASlKC1NNvtdqvVSnBl6MMUnw79BdytCNJ8SmBPtSxI86nipUtxkGbSkwJpJo2O4kSQZgTAQZoRQCQogVCa79y5o1ar8fMMDQ0NDAzYbLZ7T2u1Wmtra81ms1qtzsvLUyqVq6ur9y543Nc6na6+vv6UvHlnZ6ehoeHeSzAYDB0dHfdGHrfhR1y/v7/f3Ny8s7PziOsfaxlI82PhcpDFIM0OMogn2wZIM2n+IM2k0VGcCNKMADhIMwKIBCUQSvP8/LyXl9fOzo7NZuNwOK2trXNzc4WFhU1NTTs7O+Xl5SqVislkTk1NnT17lsfjCQSCubm5qamp/Pz8lpaWg4OD8fHxvLy8ysrK3d1dvN/p6WmRSKRWqw/uHhUVFeXl5dvb2xiGWSwWHo/3ySefzM3NjY2N5eXldXV1ra6uKhSKioqKxsbGuro6lUq1tbWFl9rd3a2qqpJKpYuLi3hkYWGhtrZWqVROTEwUFRU1NDSYzebx8fGCgoL6+vqenh6JRHJwcFBdXV1YWLi6ulpWVnbjxo2ZmZna2trKykq9Xi+Xy5VK5YndHh8ft7W1FRUV6fX6+fl5lUpVVlbW29urVCq7u7stFgt+3sXFxYKCArVafXh4aDQaCwoKSktLj46OFhcXS0pK6urqFhYWoqOj8/LyZDLZ2tqa0WiUSqW1tbX7+/t4ha/zJ0jz16H3pHJBmp8UeYc6L0gz6XGANJNGR3EiSDMC4CDNCCASlEAozRiGJScnazSa1dVVHx+fqampGzduCIXC+Ph4mUz20ksvSSSSc+fOzc/Pe3p61tXVubq6qtVqJpMpl8tTU1Pb29vDw8NLSkrCw8Pr6+sxDNvd3Y2MjMzPz+dwOENDQ0lJSfHx8Ww2OyMjA8Mwm82Wl5fn6enZ1dUVGBhYWloaExMjlUr/67/+SyaTXb58WSqVpqenq1Qqm81mtVrxH8vKylgs1sbGht1ur6mp8fT0VKvVAQEB2dnZXl5eubm5CQkJcrncw8MjOjra29u7p6fH398/NTU1KyurtrY2LCxMr9efO3cuLy/Pz88vKysLfwvvp7q62tPTUygUxsbGymQyV1dXoVB45syZsrKymJiYpaUlDMP29/d9fX2lUimfz+/p6YmOjpZIJDdv3lQoFElJSbm5uQwGo7q62sPDIzMzMzExUSQS3bx5UyAQsNns8vJygjF+Wfjo6OjE1zEMA2n+MliO+h5Is6NOhtK+QJpJ4wZpJo2O4kSQZgTAQZoRQCQogVaaNRpNdnY2h8ORyWTDw8NnzpwRi8Xx8fF8Pv8Pf/jD1tbWjRs3tre3ExIStFqtm5tbcXExl8vd399fXV3V6/WZmZlCodDX17e4uBjDsKOjo4KCAhaLxePxNBrNe++9l5yczOVy/fz88Kupr6+Pj4+vrKx0c3MTi8VRUVGZmZnvvffexsZGdHT0/Px8U1NTXl6e1Wrd29tLTEycmpra29tjs9k6nc5ut1dXV0skksnJyY8++kggEMTGxl6/fj0tLW1vb08mkyUmJnp7e09NTcXFxSUmJpaUlHR1dWVmZm5sbNy8eVOr1V68eHFra2t6etrNzQ3vNjY21s/PLzMz09vbu6ioKC0tbXJy8uLFiysrK8nJyTqdDsOwqakpd3d3u92+vr6+sLCQk5MjEonc3NyioqKio6ONRqPJZBobG2MymQaDob29PTQ09NVXXxWLxYmJiVlZWQRjJAzb7fbKysrGxka73Y4vAmkmhOXAb4A0O/BwqGsNpJk0a5Bm0ugoTgRpRgAcpBkBRIISaKV5cXExMjLy/fff393dNRqNH374YXd3d1FRkVQq/eMf/7i/v+/u7n6vNKtUqtjY2IWFBZlMJhQKr127ptPpYmJiJBIJhmHb29sZGRnT09NJSUlFRUU3btwoKCioqalJSUnBr0atVoeGhjY3N/v5+Y2Pj+fk5OAPs3d2dmJjYxcXF0+k2Ww283i86urq2dnZkJCQxcVFXJpLSkrW1tY8PDw6OjoyMzPxh9nz8/OxsbH4k+aurq78/Hy1Wv3qq692dnZyOJyVlRVvb++lpaXLly93dHTU1taGhITg20Wys7PDwsJ6enqSk5NLSkoyMjKmpqYuX768urrK4XBwad7Y2Lh48eL09HRlZaVUKn3nnXdGR0eDgoLi4+OjoqIGBgby8/NLS0sTExONRqNGo0lKSnr//fc7OjqUSmVZWRnBGAnDNpstIiLi17/+9dTUFL4IpJkQlgO/AdLswMOhrjWQZtKsQZpJo6M4EaQZAXCQZgQQCUqgleajoyOpVIq7nd1u7+rq8vLySkxM1Ov1UVFRZrNZIBDs7+/L5XKDwcDn82dmZtrb2z09PQUCwfLycmpqanR0NJfLbWhowDDMbre3tbVdvXqVyWSurKyYTKaoqCh/f//JyUn8agwGQ3BwcHd3d3V19bVr1/h8/ujoKJvNPjg4KCkpWV9fHx0dbW5uxj+6ZzQa4+LivLy87ty5gz92HRgY0Gg0dru9t7fXx8cHf9CrUCg8PT1dXV1v374tFAq3traYTKa7u3tfX9/KygqTyWxtbRUKhYeHh4uLiyEhIZGRkSebpHd3dzMyMvDNJz09PbW1tUajMT09fXt7u6KiAt+egWHY4OCgl5dXamrq2tqaRCKJiopKSUkRiURDQ0O3bt3icrkGg6G8vHxjY2NiYkKtVvf19Xl7e0dHRy8sLBCMkTBss9lCQkKeeuqpX/ziF+3t7RaLBaSZEJYDvwHS7MDDoa41kGbSrEGaSaOjOBGkGQFwkGYEEAlKoJVmgpPQJry+vi6RSIqKimJjY7u7u0+2NNDmAh5oFJdmFxeXp5566oUXXmhpaYmNjR0cHHxgIV0DKpWqvb2drt0/ct8gzY+MypkXgjSTni5IM2l0FCeCNCMADtKMACJBCZ1Ox+VyJyYmtHBotUNDQ9XV1QUFBQqFor+/3wmQjIyMuLq6utw9/uZv/uaFF1549913QZoJ/jY4bhik2XFnQ2FnIM2kYYM0k0ZHcSJIMwLgIM0IIBKU0Ol0AQEBTCYzAg5nJBAeHv7SSy/h0uzi4vIP//AP//7v/w7STPC3wXHDIM2OOxsKOwNpJg0bpJk0OooTQZoRAAdpRgCRoARszyAA4yThk+0ZLi4u//zP/5y24pglAAAgAElEQVScnBwSEgLSTLvpgjTTbmSn0TBIM2mqIM2k0VGcCNKMADhIMwKIBCVAmgnAOEn4RJqff/55Lpe7vb0NHwSk42hBmuk4NeQ9gzSTRgrSTBodxYkgzQiAgzQjgEhQAqSZAIyThHFpfvbZZ7Ozs81mM/xyE5rOFaSZpoND2zZIM2meIM2k0VGcCNKMADhIMwKIBCVAmgnAOEnYbrfz+Xwej3fySwHhSTMdRwvSTMepIe8ZpJk0UpBm0ugoTgRpRgAcpBkBRIISIM0EYJwnvLi4uLm5eXI9IM0nKGj0AqSZRsM6vVZBmkmzBWkmjY7iRJBmBMBBmhFAJCgB0kwAxmnDIM10HC1IMx2nhrxnkGbSSEGaSaOjOBGkGQFwkGYEEAlKgDQTgHHaMEgzHUcL0kzHqSHvGaSZNFKQZtLoKE4EaUYAHKQZAUSCEiDNBGCcNgzSTMfRgjTTcWrIewZpJo0UpJk0OooTQZoRAAdpRgCRoARIMwEYpw2DNNNxtCDNdJwa8p5BmkkjBWkmjY7iRJBmBMBBmhFAJChBL2m2WCx7d4/9/f2Tr4M4uTKz2Wy1Wk9+RPXCYrHYbLZ7qx0dHd0XufddB38N0uzgA3poeyDND8XyTQuCNJOeOEgzaXQUJ4I0IwAO0owAIkEJeknz0NBQXFycQCDg8/lVVVVHR0cnl2W1WhsbG/V6/UkEyQubzTY0NLSysnJvtZKSktXV1XsjNHoN0kyjYZ20CtJ8guKb/AKkmfT0QZpJo6M4EaQZAXCQZgQQCUrQS5obGhoSEhLm5uZ6e3vDw8ONRuPS0hKDweDxePPz8++++25KSsre3p5AIIiLi9Pr9V1dXZGRkdnZ2YmJiWw2u7Ky8ujoqKSkxMvLq6CgAH8sfXh4mJGRweFwhoeHWXcPk8lkMBhYLBaHwykqKiopKRkfHy8uLvb3929ubh4ZGXn55ZclEolIJOLxeCqVKiMjIygoqLe31263E2B2oDBIswMN45FbAWl+ZFTOvBCkmfR0QZpJo6M4EaQZAXCQZgQQCUo8KM2nscOB4OSPHa6rq/Py8qqoqEhPT4+JiVlcXLx+/bpCoeDxeAwG4/bt293d3RwOJzs7u6WlxdXVNS0tLSEhobW19e233x4fH/fy8mppaUlNTdVqta+//vrIyAiGYdvb259//nlra+vVq1fz8/MlEkl0dHR8fLxKpeLz+efPn+fxeGVlZWfOnGlubhYKhcfHxwEBARMTE+fOnZNKpWlpafn5+dPT0xEREQaD4bEvifIEkGbKkSM4IUgzAoj0LwHSTHqGIM2k0VGcCNKMADhIMwKIBCXuk+bd3d3KykqCtU8+XFtbe/XqVT6ff+7cufLy8rm5uXfeeSctLY3D4URGRmZkZGg0Gi8vr+7ubpPJ9Omnn6alpSkUipGRES8vr62trfDw8IqKCg6HIxKJXn/99d7eXlya/fz8JiYm8FKpqakBAQG3bt3S6XQ9PT2enp48Hq+5uZnL5bLZ7NTU1MPDw1u3bk1OTp47d256eprL5Y6Ojh4cHCQnJ4+NjT15Rl/VAUjzVxFyxPdBmh1xKpT3BNJMGjlIM2l0FCeCNCMADtKMACJBiXul2WQy+fv7v//++wRrn3y4sbExIyPj4OCgvb09LCxsZmYmJCQkOzs7JSUlMzMzNTVVLpcLhcLk5OTi4mIfHx+RSFRRUTEyMuLt7b29vR0REZGSkhIZGdnU1PT73/9eo9Hg0uzv728ymcLDw9PS0rKystLS0lJTU3Nzc1ks1oULF3g8nlKp9PHxkcvlXl5ee3t7AQEBDQ0NZ8+eXVpaKikpSU9Pb2hoiImJWVpaevKMvqoDkOavIuSI74M0O+JUKO8JpJk0cpBm0ugoTgRpRgAcpBkBRIISJ9K8v78fFhb2gx/84PXXXydY++TDs7OzAwMDNpvNbDar1WqDwWAymYRCYU5Ozvb2dk9PT2Vl5f7+fllZmVAoXFxcHB8f1+l0q6ur9fX1R0dHLS0ter2++O6hUqmmpqYwDDObzQ0NDUdHRzs7O7m5uQKBwGg0arXarKysyMjIgICAzs5Oo9GoVqs5HE5HR4fdbm9paamrqyspKdnf3z84OJDL5WlpaVqtFvY0U3+LqFSqL/4FRf15KT4jSDPFwB3zdCDNpOcC0kwaHcWJIM0IgIM0I4BIUAKX5vX19YSEhB/96EcuLi6OLM0EF4E4bLVaFQpFbm4uh8NRKpX0/Xa5h3KBJ80PxeLgQZBmBx8QNe2BNJPmDNJMGh3FiSDNCICDNCOASFBCp9MxmcyAgIDvf//7LncPkGYMw7a2tgYGBkZHR+/9VjsChDQLgzTTbGB32wVppuPUkPcM0kwaKUgzaXQUJ4I0IwAO0owAIkEJnU73wgsvfO9738ON2cXF5cc//vH/g8N5CfzsZz8bHBwkuB3oF4btGfSbGXRMlgBIM1lyGEgzaXQUJ4I0IwAO0owAIkEJnU4XERFx/vz57373u7g3v/baazY4nJdAXFwcSDPB3wbHDcOTZsedDYWdgTSThg3STBodxYkgzQiAgzQjgEhQQqfTZWdn6/X6q1evPv3007CnmYCT84RhewYdZwnSTMepIe8ZpJk0UpBm0ugoTgRpRgAcpBkBRIISJ9+esbm5eeXKle985zuwp5kAlZOEQZrpOEiQZjpODXnPIM2kkYI0k0ZHcSJIMwLgIM0IIBKUOJFmu90+PT19/vz5N954g2AthJ2BAEgzHacI0kzHqSHvGaSZNFKQZtLoKE4EaUYAHKQZAUSCEifSjGGYzWabn58XiUQEayHsDARAmuk4RZBmOk4Nec8gzaSRgjSTRkdxIkgzAuAgzQggEpS4V5rxJRaLhWAthJ2BAEgzHacI0kzHqSHvGaSZNFKQZtLoKE4EaUYAHKQZAUSCEg9KM8FCCDsJAZBmOg4SpJmOU0PeM0gzaaQgzaTRUZwI0owAOEgzAogEJUCaCcA4bRikmY6jBWmm49SQ9wzSTBopSDNpdBQngjQjAA7SjAAiQQmQZgIwThsGaabjaEGa6Tg15D2DNJNGCtJMGh3FiSDNCICDNCOASFACpJkAzNcK2+32r5V/mskgzadJ97RqgzSfFlla1QVpJj0ukGbS6ChOBGlGABykGQFEghIgzQ8Fc3h4qFarS0pKZDJZV1fX4eHhQ5fZ7Xa9Xr+2tnbyrt1un5ubW15ePonc98JqtXZ1dVmt1vvilP0I0kwZaoQnAmlGCJO+pUCaSc8OpJk0OooTQZoRAAdpRgCRoARI80PBLC8vBwUF1dfXt7W1MRiMhoYGm822sLAwOjq6tbVlsVj0ev3Y2Nj8/HxTU5Ner9/a2hodHZ2bmzs6OkpLS5PJZFtbW1qt1mAwLC0tDQ0Nzc3N4aJ8cHBw8eJFrVY7PT19eHg4NTVls9k2NjbW1tZMJtPIyMjS0pLNZtve3h4dHZ2ZmTk+Pt7a2hoeHp6YmCBy94deAlEQpJmIjCPHQZodeTqU9QbSTBo1SDNpdBQngjQjAA7SjAAiQQmQ5oeCMRqN4eHh8/Pzm5ubqampMplsdnbW29s7NDQ0Nja2ra3Nz88vNjb2vffe8/X1bWpq4vF4gXePsbExLy8vNptdXl7+xhtv8Pn8mzdvxsTE+Pr66vV6DMP29/f/8Ic/hIWFBQUFqVSqP/3pT7u7u0VFRSkpKUwmMzg4ODAwcHp6ms/nh4eHh4SEtLa2xsTExMbGent719XVPbTbxwrSXZptNtu916tSqdrb2++NOOVrkGanHOvjXhRI8+MSO1kP0nyCwsFfgDQjGBBIMwKIBCVAmh8Kxmg0fvTRR97e3h999NGtW7cWFxczMzO9vLxKS0s///zz4ODgysrKg4ODa9eu+fr6NjY2pqamJiQkSCSShYUFiUTS1NSkVCrZbLbBYBCJRDKZ7ObNm93d3bg0nz17dmVlpbW1NS4uDpdmqVTK4XASExNTUlIKCwuHhoaYTKbJZFpcXJyZmSksLFSpVFFRUdnZ2Q/t9rGCdJfmxsZGrVZ7os4gzY81fVhMawIgzaTHB9JMGh3FiSDNCICDNCOASFACpPmhYPAnzXNzcwMDA+Hh4VqtViKReHl5qVSq6OjopKSk0tLS9fX1ixcv4tKsVCorKipu3rxZVVWVl5dXU1OjVCozMjLa2to8PDwqKys9PDw6OjpwaX733XenpqZqampSUlLefPPNhYUFLpebnJxcXl6uVCo/+eSTioqK+Pj4+fn5/v5+pVLp5uZWX18fFxfH5/Mf2u1jBekuzcHBwX/84x/v3LmDezNI82NNHxbTmgBIM+nxgTSTRkdxIkgzAuAgzQggEpQAaX4oGKPRGBsbu7a2ZrVaCwoKEhMTV1ZWfH1933rrraSkJK1We+PGjY8//viDDz4ICAhobW3Ny8t76623Ll++PDU1VVhY6O7uLpfLBQLBxMTEuXPnvLy8Ll682NjYiEvzG2+8cenSpatXr05MTIjF4vfff//DDz9MT0/ncrlnzpxxd3efm5srLS1999133d3d+/v7b9686e7ufv36dS6X+9BuHytId2m+devWM88888Ybb8zOzmIYBtL8WNOHxbQmANJMenwgzaTRUZwI0owAOEgzAogEJUCaCcB8WXhsbKympqa/vz8gIGB1dfXLljree04gzS4uLk8//fTrr78+Pj6uVCphT7Pj3WXQ0akQAGkmjRWkmTQ6ihNBmhEAB2lGAJGghE6ny87OtlqtFjgemcDCwkJJSUlhYaFGozGbzY+c5xALY2Nj+/v7HaIVUk0EBga63D2+9a1vvfbaa3FxcW1tbQR3t/OE4YOAzjPLr3ElIM2k4YE0k0ZHcSJIMwLgIM0IIBKU0Ol0rq6un3zyydtwPDKBP//5z2+++eaZM2f+/Oc/P3KSoyz8xS9+8fvf/95Runn8Pn7+85/j0uzi4vKtb33r3/7t3xoaGgjubucJgzQ7zyy/xpWANJOGB9JMGh3FiSDNCICDNCOASFACtmcQgHHasHNsz3BxcXn22Wfffffd5ORkeNLstDcrXNhfEwBp/msej/ETSPNjwHqiS0GaEeAHaUYAkaAESDMBGKcNO4c0P/fccxcuXJibm4M9zU57p8KFPUAApPkBJI8aAGl+VFJPeh1IM4IJgDQjgEhQAqSZAIzThp1Amp999tmPPvoI/2Ux8O0ZTnunwoU9QACk+QEkjxoAaX5UUk96HUgzggmANCOASFACpJkAjNOG6S7NERERZ86cmZmZsdvt8JVzTnubwoU9jABI88OoPFIMpPmRMDnAIpBmBEMAaUYAkaAESDMBGKcN012a29raFhYWTsYDT5pPUMALpycA0kx6xCDNpNFRnAjSjAA4SDMCiAQlQJoJwDhtmO7SbLVa8WfM+IRAmp32ToULe4AASPMDSB41ANL8qKSe9DqQZgQTAGlGAJGgBEgzARinDaelpWm1Wqe5PJBmpxklXMhXEgBp/kpERAtAmonIOFocpBnBRECaEUAkKAHSTADGacMLCwt7e3tOc3kgzU4zSriQryQA0vyViIgWgDQTkXG0OEgzgomANCOASFACpJkADITpQQCkmR5zgi5REABpJk0RpJk0OooTQZoRAAdpRgCRoARIMwGY+8P37qO9/71T+Jni053CFVBUEqSZItBwGgcgANJMegggzaTRUZwI0owAOEgzAogEJegozcfHxx0dHVtbWxiGHRwcDAwMHB4e3nd9Kysr09PTJpOppqZmampqZGTka2poZWXl9vb2fWdB8qPNZhsdHb33Eo6Pj4eGhjY2NsjVt9ls3d3dpNPJnfRJZYE0PynycF7qCYA0k2YO0kwaHcWJIM0IgIM0I4BIUIKO0mw2m2NiYtra2ux2e39/f1JS0tbWVmNjY0VFhdFoHB8fr6qqEolEZWVlHA7nnXfeqaury8zM3N7erq+vl8vlJpNpd3e3urq6tLR0bm4OB7O7u1tXV1deXr64uGi1WkdGRuRyuU6nw9+dm5v79a9/3dTUtLa2plKpqqur19bWNBpNW1tbbW1tX19feXn59PQ07uVWq3VsbKy4uPjOnTvHx8cYhh0dHXV3d+MFW1tblUrl6urq1tZWTU1NVVVVf39/WlraxsbG+Pi4TCa7c+fOwsLC9evXFQrF5OSkUqkcGRm5c+eOQqGYmprC+7FYLBUVFU1NTe3t7cfHxwsLC3K5XKPR4O8eHx/7+PgIhcKampq9vb2VlZXKykqZTLa0tDQwMNDa2lpVVWUymba3txUKhVqt3t/f39nZqa2traurOzg4wIvQ5U+QZrpMCvr8+gRAmkkzBGkmjY7iRJBmBMBBmhFAJChBR2nGMKy6ulokEpnNZgaD0djYWFBQEBQUlJOTw+Px2Gz2tWvXOBwOl8vNz89nMpkdHR3e3t4SiSQpKamoqIjD4aSlpWVkZAiFwuTkZJvNZrVaKysrGQyGVCrNycmZmJi4dOlSQUFBYGCg0WjEMGxjY+PFF1/s7+9PTk5OTU0ViUS3b98+e/Ysh8OJjIz08/OrqKhgs9n40+Lx8fHQ0NDGxsbw8PCBgQEMw9bW1tzd3fl8fl5eXkxMjFAoDA8PF4lEHA4nNzf3/PnzFy9e1Ol0sbGxEonE19e3r68vKCiopaWFz+d7enpKpVJXV1epVHrr1q3l5WUMw3Z3d//1X/9VLpdHRES0trb6+PgUFRW5urp2dnZiGHZ8fOzu7h4UFJSQkMDhcMRicW5uLpfLTUhIcHd3z8zMLCsr4/F4AQEBAoEgISGhoaEhMTExNTWVyWTyeDyCO8VRwjab7d5WQJrvpQGvnZsASDPp+YI0k0ZHcSJIMwLgIM0IIBKUoKk0Ly4uJiUltbW1+fv7z8/Pe3p6pqen5+TkeHt7s1gshUJRXV2dkpLS0tKSm5vb39/v5uYWHx8/NTVltVoXFhY6OjpKSkpYLFZgYCD+vb89PT1BQUF8Pr+rq0ssFp8/f14qlfr6+nZ3d+PkXnnllcHBwatXrxYWFmZnZ0dFRb355pvz8/O5ubmVlZXLy8vx8fFbW1t2u722tlYikWAYVlRUpFKp7Hb72tpafHz88vJyeHh4ZGRkXl6eq6urj4/P+Pj4wcFBcHDwZ599Njs7i2trUVHR/Pw8l8udnJzMyclRKpV8Pl8sFh8cHDCZTFyLd3d3f/vb3+7v7+fk5ERFRfn5+WEY1tbWFhAQgEuzv7//4ODg+Pj4W2+91dHRUVhYyGAwAgICAgMD9Xr91NSUn5/fe++9h2HY9vb22NiYm5vbwsLC1NTUa6+9RnCnOEpYJpN1dHRYLBa8IZBmRxkM9HH6BECaSTMGaSaNjuJEkGYEwEGaEUAkKEFTaTabzQKB4NatW1KpdG9vLyYmJjk5WalUcjgcFotVWVlZU1NzrzS7u7vzeDy1Wq3X68VicXBwsFwuFwqFPj4+VqvVZrN1dXUVFRVJpdL4+Pjy8vJPP/20urqawWCc7ND4wx/+0NfX5+fnJ5VKFQrF7du333nnnZWVlby8vLq6uuXlZSaTiUtze3s7m83e3NzEz4hLM4vFWltb4/P58fHxFRUVkZGRcXFxarV6fHzc1dX1s88+m56eLigoqKysvHDhQlNTU1JSUn9/v1gsrqqqwp8o63S64ODgkZER/EnzSy+9dHR0JBaLeTzejRs35ubmUlNT09LScGn29vaWyWSVlZXu7u4MBqO0tDQ1NdXT0zMwMHB+fn5qaioqKurjjz8eHx9vampSq9Xe3t6tra21tbWfffYZwZ3iKOGgoKAXXnihubkZ92aQZkcZDPRx+gRAmkkzBmkmjY7iRJBmBMBBmhFAJChBU2nGMGx0dDQyMtJkMmEYtrKyEhsb6+np2dLSUlJS0t3d3dvbK5fLh4aG6uvrdTpdZmbm/Px8VFSUt7f34OBgQ0NDYGBgUlISh8OxWq0Yhi0uLkZFRXl4eDQ1Ne3t7Ukkkhs3bhQUFOCbkjEMS0lJyc7OvnPnjr+/v6+vb09PT2xs7Obmplqt7u/v39zcLCoqwr//eH9/v7S09MqVK2KxeGdnB3+aW1xcvLW1ZTQaWSyWh4dHa2vr2NhYaGjorVu3vL294+Pj19bWlErljRs3eDze2tqaVCrlcrm1tbXd3d17e3tCofDmzZsqlQrv9vDw0Nvb+/j4uL6+vr29vbm52cPDg8Ph4PtDLBbL7du3Q0NDw8PDDQZDRUVFREQEl8vl8/mZmZkDAwM6na6srGx0dNTLyys2NnZ5eVmn04WEhERERBgMBoI7xVHCt27devrpp3/5y192dHRgGAbS7CiDgT5OnwBIM2nGIM2k0VGcCNKMADhIMwKIBCXoK80EF0SPsM1ma2xsrK6uxvcT7+/vU9Z3UlLS8PAwZadDfqJbt265uLg89dRT//3f/93f319eXt7e3o78LI5W0G63h4aGfs1vgHG0i4J+HpcASPPjEjtZD9J8gsLBX4A0IxgQSDMCiAQldDodl8sdHx8fhYNCAiMjI7W1tfHx8XFxcdXV1SMjI5Sd3MvLSyaTUXY65Ce6fPmyy93j6aef/s1vfuPt7d3S0kJwdztPGKTZeWb5Na4EpJk0PJBm0ugoTgRpRgAcpBkBRIISOp0uNDQ0MzMzBY5vBoEzZ84EBATQ91pfeeUVXJpdXFy+/e1v//a3v21sbCS4u50nDNLsPLP8GlcC0kwaHkgzaXQUJ4I0IwAO0owAIkEJ2J5BAMZpwwwGY3BwkL6Xh2/PcHFx+d73vufm5padnQ3bM+g7Tej8sQiAND8WrnsXgzTfS8ORX4M0I5gOSDMCiAQlQJoJwDht2Dmk+Uc/+pGvr+/29jZ8ENBp71S4sAcIgDQ/gORRAyDNj0rqSa8DaUYwAZBmBBAJSoA0E4Bx2rATSPNzzz138+bNpaUl+PYMp71N4cIeRgCk+WFUHikG0vxImBxgEUgzgiGANCOASFACpJkAjNOG6S7NkZGRHh4e+Hf5gTQ77W0KF/YwAiDND6PySDGQ5kfC5ACLQJoRDAGkGQFEghIgzQRgnDZMd2keHBxcXV09GQ9szzhBAS+cngBIM+kRgzSTRkdxIkgzAuAgzQggEpQAaSYA47RhukuzzWa7dzYgzffSgNfOTQCkmfR8QZpJo6M4EaQZAXCQZgQQCUqANBOAcdow3aX5vsGANN8HBH50YgIgzaSHC9JMGh3FiSDNCICDNCOASFACpJkAjNOGQZrpOFr4nmY6Tg15zyDNpJGCNJNGR3EiSDMC4CDNCCASlABpJgDjtGGQZjqOFqSZjlND3jNIM2mkIM2k0VGcCNKMADhIMwKIBCUcR5q/0AK73U7QJr3DDnVdIM10vJlAmuk4NeQ9gzSTRgrSTBodxYkgzQiAgzQjgEhQ4klJ8+Li4sDAwL022d/fr9VqCdpEGV5cXOzs7Lz31PdVPzw87Orq2t3dvS/+KD/u7Oz09fXdW7yvr6+3t3d2dnZycvJRKuBrLBaLVCo9PDx89JSTlRaLpbu7e21t7SRy7wuQ5ntp0OU1SDNdJnWqfYI0k8YL0kwaHcWJIM0IgIM0I4BIUOJLpNlut3d3d2dlZZWUlLS3tysUCrFY3NvbKxKJBALBzMxMa2vr/v7+1NRUX1/f6OhoRkaGSCQyGAwYhtlsts7OzsLCwtra2qamJj6f39LSsre3V1NTk5GRoVAoVCpVbm7u/Py8UCjMzc1dXl4ODw+PjIycmJgQi8Xl5eXDw8MCgaCiosJiseC9b25uFhQU5Ofnr6ystLe3S6XS3NxctVqdl5c3NDSEr7FarRqNJiMjo62tzWKxdHR0pKWllZSUHBwcdHV13b59u6GhobOzMzg4OCsrS6FQbG1t9fb2ZmZmNjc3Hx8f40U0Go1AINBqtVlZWbm5uRsbGzs7O4WFhSKRSK/X42uOjo6ampoyMjK6u7sHBwfVavXs7KxarTYYDEKhcHJyMj09vbi4eGFhwcvLy8fHp6Kioqqqqr+/XyAQ9Pb2Yhi2tbVVXl4uk8nKy8s3NzdHRkYEAkFNTY3ZbMYw7Ojo6OzZs4WFhfn5+aurqwaDITc3NzMzc25uTqPRFBcXi0Si2dnZubm57OxsfI3JZBIKhQUFBSaTqaampry8/F53x9vGMAyk+QQFjV6ANNNoWKfXKkgzabYgzaTRUZwI0owAOEgzAogEJb5Emk0mk5+fX39//9tvv81gMLy8vAYHB/l8vkajSU5OjouLS0lJmZiYSEhIqKqqyszMHBsbk0qlAoHAcvdgsVgZGRmtra0RERFjY2M3b97kcrkcDmdqasrV1TUhIYHBYOD+XVxc3NjYKBAIlErlwMDA9evXOzs7P/jgg/7+fhaLVVJSgmGY2WwODg4uLCyUyWRMJhPPTU9Pd3V1bWhoYLFYuPLqdLoPPvhgYGAgKytrdnY2ISFhbGzs4sWL+fn5sbGxIyMj8fHx5eXln3zyyfDwMJPJLCgo+PDDD/v6+hITE/v6+jAMs9vt3t7eAwMDKSkpMplMoVA0NTVxOByxWNzU1JScnGyxWOx2e2NjY1BQ0MjICJPJ7OnpuXHjho+PT319vV6vDwwMDAkJwbX1zp076enp2dnZcrlcLBZnZ2czGAyTyYRh2Nzc3MWLF0dGRkQikUQieeONN+7cuZOYmKhSqU6kWSwWFxUVpaSk5OXlNTU1CQSC8PDwxMREqVSqVqujo6ODg4Ob7h5FRUVubm6tra3FxcVpaWlra2sMBmN7e/vBsYM0P8jE8SMgzY4/Iwo6BGkmDRmkmTQ6ihNBmhEAB2lGAJGgxJdIc3t7O4PBsNvtTCYzNjY2NTV1e3tbqVQmJCRcvHgxODhYKpWWlZWdP3/eYDCUlpYymUwfHx8Oh3N8fGyxWFgs1tjYWHl5+YcffhgfH3/58uXPP/+8qqrKarWmpKSw2ey4uLi2traAgIDQ0NC+vr6cnJz6+vrBwcHExMTe3t5Lly7Z7fbW1lYPDw8Mw0wm09tvv33r1sOdC6EAACAASURBVK2goKCLFy8mJSXhD7+TkpLGxsbi4uLwnQz19fVBQUE2m211dXVtbS0tLY3JZL722msRERECgcBsNi8vL7e1tSUnJx8fH4vF4tDQ0JdeeikuLs7Nza2mpgbDsP39/ffee29nZwcvFRYW1tDQcO3ateDg4LCwMA8PD7PZbLFYvpDyTz/9NCYm5vLly6OjoykpKR9//PHS0tIXj6LDwsKUSmVgYGBUVNTIyAj+JLi8vDwnJycvL0+pVOIPgOfm5kJDQw8PDxUKRWho6JUrV+x2e3V1NYvFwqX5ww8/3NzcnJycvHnzZk1NTUJCgqur6/Xr1/l8fnd39/j4uI+Pj6+v79bW1uHh4cDAwGeffWa322dmZm7evLm3t8dkMufm5jAMMxgM6+vrJ/MHaT5BQaMXIM00GtbptQrSTJotSDNpdBQngjQjAA7SjAAiQYkvkeaFhYXQ0NCOjo6PP/44Njb29u3bi4uLfn5+paWlkZGRAQEBPT09ly5dyszMXF5eDggIUKvV6enpiYmJuFayWCydTjc4OBgREVFdXc1ms7OystLT0/v6+jw9PRMSEuLi4hoaGgoLC1ksFpvNzs/PFwgEnZ2dycnJS0tLV65caW1t5XK5ubm5uMuGh4cLBAJ8h0ZycnJnZ6dCoeByuePj4yfSPDEx4erq2tbWlpeX19jY6Orq2tjYePbsWQ6Hw2azNRoNj8dTKBQ8Hs9iseAbHi5evFheXi4QCCYmJnBb/eijj4xGY01NjUKhSE5OTklJ4XK5fD5fJpMVFBRYrVabzaZWq8PCwiorK7OyslpbW/39/aOiokpKSqampoKCgkpKSiorK+Pi4hQKRV5eHovFKiwszMnJyc/Pr6ysxEfxhdGGhYUdHh6Wl5fz+fzz58+3tbVxuVy5XH7ypFkmk0kkEjab7e/vL5FIEhMTP//884yMjN7e3omJifDw8IiIiNq7h0wmwx91S6VSLpe7u7vLZDIXFxftdntKSkpYWNjJFm2QZoK/Cg4dBml26PFQ1RxIM2nSIM2k0VGcCNKMADhIMwKIBCW+RJqPjo5qamry8vLOnz+fl5fX09NzeHjY0tJSVlamUCiUSuX29nZBQcHW1tbx8XFDQ0NZWZlSqcQ3E9tstra2tvX1dbPZ3NzcLBQKlUrl/Pw8/sDV29tbLpe3tLTMzMzk3j3m5+d1Ol1BQYFWq+3o6LDZbIODgzk5OeXl5ScfhjMajfg+Zp1O19HRYTAYxsbGNBrN6upqS0sLvj3DYrG0tLTk5OS0tbVtb2+XlpYqlcri4uK+vj6NRpOTk6NWq/V6fWdnp81mGxgYmJqaamtry8nJqaqq2tvbwyElJCTU1dVNTEzk5ubm5eXNz8+vrq5KpdKcnJzh4WH8OfHe3l5dXZ1IJGpsbGy9eywsLFRXVxuNxoaGhtHRUaFQKJVKFxcXp6enCwoK2tvbBwYGBgcHcTXHMGxzc7OhocFisYzdPbq6uvA29vf3MQyzWCxFRUVyubywsHBpaUmj0ZSWlpaXl0ul0i/+rbK4uLi6utra2qrVavPz84uLi41G4+zsrFgslkqlRqNxfn4+KSnp6OjIZrOFhIR8//vfj4mJwb0ZpJngr4JDh0GaHXo8VDUH0kyaNEgzaXQUJ4I0IwAO0owAIkGJL5HmnZ2d+Pj41tbWCxcuGI1GggKPGrbb7f39/SKRqKuri8FgLC0tPWom5etmZma4XC4ur5SfHMEJbTabTCZrb2/HP5EZEhLi4uLy3HPPRURE4HudBwcHEZzGMUrAbwR0jDlAF1QQAGkmTRmkmTQ6ihNBmhEAB2lGAJGgxJdIM4ZhIyMjMplseHiYIPvxwoeHh/gT06mpKZvN9njJFK62Wq3T09MnD54pPDOaU1kslvHx8YODg3ul2cXF5Uc/+lFkZGRgYCBIMxrQFFaBJ80UwnbcU4E0k54NSDNpdBQngjQjAA7SjAAiQQmdTvfF58Z8fHzc4HBGAq6urr/61a9c/nL84z/+489//nOQZoK/DY4bBml23NlQ2BlIM2nYIM2k0VGcCNKMADhIMwKIBCW+/EkzQRKEaUMA39OMO/Mzzzzzpz/9ydXVFaSZNvP7S6MgzX8h8Y3+L0gz6fGDNJNGR3EiSDMC4CDNCCASlABpJgDjJOETaX7mmWdefvnl7u7uuLg4kGbaTRekmXYjO42GQZpJUwVpJo2O4kSQZgTAQZoRQCQoAdJMAMZJwrg0P/3006+99trg4KDVaoVvz6DjaEGa6Tg15D2DNJNGCtJMGh3FiSDNCICDNCOASFACpJkAjJOEv/jAZVhY2O9+97uTrysBaabjaEGa6Tg15D2DNJNGCtJMGh3FiSDNCICDNCOASFACpJkAjJOE7Xa7Wq3u7e3Fv14awzCQZjqOFqSZjlND3jNIM2mkIM2k0VGcCNKMADhIMwKIBCVAmgnAOE/4+Pj43i/4A2mm42hBmuk4NeQ9gzSTRgrSTBodxYkgzQiAgzQjgEhQAqSZAIzThtlsNqov3nYERvDLTRxhCtADNQRAmklzBmkmjY7iRJBmBMBBmhFAJCgB0kwAxmnDBoOBvr+35cGpgDQ/yAQizkoApJn0ZEGaSaOjOBGkGQFwkGYEEAlKgDQTgIEwPQiANNNjTtAlCgIgzaQpgjSTRkdxIkgzAuAgzQggEpQAaSYAA2F6EABppsecoEsUBECaSVMEaSaNjuJEkGYEwEGaEUAkKAHSTADma4VtNpterz/5wgoMw/b29gwGw72Rr3WCuwUXFxfv/YTffQV3d3c3NzfvC9rtdqPRuL+/f1+cxI8Wi8VkMlksFhK5CFNAmhHChFIOTgCkmfSAQJpJo6M4EaQZAXCQZgQQCUqANBOA+Yrw9vb2zMzM9PT06urq2NjY3Nzc8fHx2trayMjI7Ozs8vJyaGjo/v7+zMyMVqvd3t6uq6sLDQ1dXV2dn58fHx9fX1+fnJwcGxs78VebzbawsDA+Pr6zs7OysoLH5+bmjo6O5ubmRkdHNzc319fXDQbD5OTkxsaGSqWKjo7e2NgwmUxarXZlZeVEoLe3t7VabXFxcUlJidlsHh8fPzF4i8USExOjUqkmJyf39/fX19d3dnaOjo4WFxc3NzfHxsZ0Op3FYjGbzZN3j4ODA7PZrNPptFrtzs4ODsVqtRoMhs7OTiaTubKyYjQatVrtxsbGCbLNzU2tVot/M/TW1tbY2Nj8/PzBwYHBYMBfI1RtkOYT7PDC6QmANJMeMUgzaXQUJ4I0IwAO0owAIkEJkGYCMF8Wttvt9fX1n3/+uVAoTEpK4vF40dHRzc3NCQkJXC7Xx8dHIpG8+uqr7e3tbDY7ISEhJycnLy/v448/7uzs9PPz43K56enpLBYrJCREKpXisjs3NxceHp6YmMjj8YRCYUtLy+rqqq+vr0ajiY6OTk1N5fP5WVlZHh4emZmZAoEgJSXlypUrfX194eHhPB6PzWYbDAYMwywWS9LdA1+ZkZERFxcXGho6Pj6OYdjx8XFwcLCrq2t8fHxBQUFhYWFjY+P09HR4eLhYLE5MTAwKCurq6qqsrIyJiWGxWBUVFTKZjMFgxMTE5Ofn41AmJiYCAgIYDMann346NTUVFhaWnJwcGxu7tbWFNxAfH5+YmBgQELC0tMTn87lcbmBgYFVVlYeHB5/PZ7FYw8PDqB66gzR/2Z0K7zkXAZBm0vMEaSaNjuJEkGYEwEGaEUAkKAHSTADmy8I2m628vDwpKWloaCgoKKi1tTUzM9PDwyMmJubo6EgikeTk5Lz44ovV1dWhoaEqlWpkZKSlpYXFYk1PTzMYjKWlpe7u7ra2tqSkJB8fH6vVimFYSkoKbt6urq6lpaXp6ek8Hi83NzcpKUkikXR2dkZERAQEBAiFwtnZ2ejo6NbWVjabrVAo2Gz2/v5+dna2Wq3GMGxmZsbb29tsNpeXl8fExPz2t7/t7OwUiUQREREn0lxVVaXT6a5cuZKVlVVdXT0xMeHp6clmsxkMRn19vVarvXXr1urq6ubmpl6v7+npaWtry8zMDAgIwDDMZrNlZ2fn5OQsLCxERERkZWXdvHmzq6vL3d1do9FgGDY8POzm5nZ0dDQ6Otrd3e3v79/W1paamurv7x8XF7e3t6dUKktLS/Gr/jLKj/aeE0tzXV3dyfecwPc0P9rt4OSrQJpJDxikmTQ6ihNBmhEAB2lGAJGgBEgzAZgvC+PSnJOTMzY2du3atczMTCaTGR0dHRUVtbu7K7p7vPjii0NDQyUlJUlJSX5+fvX19bGxsTqdjsvlLi4uxsXFpaSk3Lp16/r167g+pqWlXb58WSAQBAYGDgwMREZGnjt3zmQycTicsLCw3NxcBoMRERFRVlZmMBhiYmJaW1vj4+PLy8vj4uI2NzfT09MbGhowDJufnw8ICNjf31cqlQwG46WXXsrIyGAymWKx+ESa5XL5yMjIjRs3cnNzFQpFZ2fnpUuXVCqVRCK5desWh8MJDQ2dnZ1dWFhoaWmJjY3lcDhRUVEeHh64NEskEpFIZDAYIiMjRSLR2bNnRSKRn5+fVqvFMGxiYsLV1XVra6u2tra5ufny5cuZmZnR0dFsNjsyMnJ7e7u0tFQul59sJvky0I/wnhNL88svv8xisfB9LyDNj3AvOP8SkGbSMwZpJo2O4kSQZgTAQZoRQCQoAdJMAObLwna7vaamRiqV7u7uSiQSPz+/0NBQjUaTnp7u7e195cqVnJyc119/fXBwMCIiwt3dXSAQDA8PX7hwoaysTCAQmEym1NTU8PBw/F18g+/c3FxUVJSPj092dvbm5mZqampycrLNZhsbG4uMjMTjGRkZlZWVi4uLycnJWq32+vXr+J4QX1/f5ORko9GIa3FBQUF0dLS/v39+fn5paamvr6+fn9/k5CS+dyI0NNTDw8PX17eqqqqrq8vf3z84ODggIKCkpMTb2/vGjRvNzc3t7e3+/v63bt1qbGzMyMgIDg6OiYnx9PTEoczNzeEG7+XlNTk5GRsb6+Pjw+Fw8O0ZZrM5MzPTx8eHwWCYTKbc3Fw/P7+AgIDKysqrV68GBgYyGIzp6WnYnvFld9jd937zm9/80z/9E4PBsFgsIM1fieubsACkmfSUQZpJo6M4EaQZAXCQZgQQCUqANBOAeezw2tqaSqUymUxCobCxsfGx86lKeFK/RntycpLNZpvNZrQX6sRPmv/zP//TxcXlmWeeSUlJ2d7eDg0NRfUvDbQjgGqUEQBpJo0apJk0OooTQZoRAAdpRgCRoIROpxMIBHt7e7twfD0Cy8vLIpGIxWJlZ2fr9fqvV+wUsyMjIzUazSmegKC0TqeTSqVbW1sE75MMl5aW1tfXk0x27LT/+I//cLl7PP/883Fxce7u7iDNBP8b+6aEQZpJTxqkmTQ6ihNBmhEAB2lGAJGghE6nCwwMTExMjIbjaxMIDw8PCgoKCwv72pVOscArr7xy48aNUzwBQemoqKjw8HCCN8mHz58/f/nyZfL5Dpz5k5/8BJdmFxeXn/70p6+88gpIM8H/xr4pYZBm0pMGaSaNjuJEkGYEwEGaEUAkKAHbMwjAOG34SW3POCWgTr89w8XF5dvf/ravry88aT6lW4hGZUGaSQ8LpJk0OooTQZoRAAdpRgCRoARIMwEYpw2DNNNltPie5h/+8IchISEmkwn2NNNlcKfXJ0gzabYgzaTRUZwI0owAOEgzAogEJUCaCcA4bRikmS6j/c1vfvP8888HBwfv7+/Dt2fQZWqn2idIM2m8IM2k0VGcCNKMADhIMwKIBCVAmgnAOG0YpJkuo/3d7373xfcDbm5uYhgG0kyXqZ1qnyDNpPGCNJNGR3EiSDMC4CDNCCASlABpJgDjtGGQZrqMViwW7+7u4t2CNNNlaqfaJ0gzabwgzaTRUZwI0owAOEgzAogEJUCaCcA4bRikmS6jPTo6OmkVpPkExTf5BUgz6emDNJNGR3EiSDMC4CDNCCASlABpJgDjtGGQZjqOFqSZjlND3jNIM2mkIM2k0VGcCNKMADhIMwKIBCVAmgnAOG0YpJmOowVppuPUkPcM0kwaKUgzaXQUJ4I0IwAO0owAIkEJkGYCME4bBmmm42hBmuk4NeQ9gzSTRgrSTBodxYkgzQiAgzQjgEhQAqSZAIzThkGa6ThakGY6Tg15zyDNpJGCNJNGR3EiSDMC4I8lzZubm6Ojo1ar9euc2GQyTU1N2Wy2kyJms3lgYODej+acvPXgi52dHYPB8GCcyojNZlteXt7a2vryk4I0fzkf53sXpJmOMwVppuPUkPcM0kwaKUgzaXQUJ4I0IwBOJM02m21iYqK3t3d8fFyr1TY0NMzOzhYXF3/66acGg2FhYaGhoUGr1W5vb2vuHr29vf39/RqNZnNzc2Njo6mpqbW19UQrt7a2Wlpaurq6Njc3U1NTAwMDTSbTxMREfX396OhoR0fHa6+9Njw8PDExYbfb19bWlpaWJicn1Wr19PT0iV4fHBx0dHTk5OSwWKyjoyP8dCffG7W1taXRaNrb2xcWFjY3Nzs6OoaGhhYXF5ubmycmJjAMW1hYaGpqGh8ft1qti4uLjY2NWq324OBgeHi4oaHBYDDY7fahoaHGxsalpSUMw+bn5xsaGrq6ura3t8fGxjQazeDg4MHBgV6vr6urY7PZLS0t99Z/cBggzQ8yce4ISDMd5wvSTMepIe8ZpJk0UpBm0ugoTgRpRgD8Pmk+eYpsNpsjIiKio6MLCgpiYmKqqqo4HE5GRsbFixcHBgbYbHZ1dTWHwyktLf3Tn/5UWFgYEBAgFotLSkrEYnFSUpJCoeDxeGVlZRiGmc3m3Nzc7OzsnJyclpaWtLS04ODgnp4eDodTVVXFYDBkMtnrr7/e1dXFYDAsFktra6tAILh69WpJSUlGRgauxRaLJTMzMyMjg8FghISEKBSK5OTkrKys9PR0i8WCYVhfX99HH31UUlISFRWlUqmuXbtWV1fn6ekpk8kiIyPb29vj4+NLS0t9fHwGBgaSkpIqKyuTkpIkEklISEh5eblYLB4dHXVzcysoKBCJRAcHBykpKSqV6tKlS2VlZQEBAU1NTSwWSy6Xh4eHy+XyGzduyOXy69evl5WVRUdHj46OPjgMkOYHmTh3BKSZjvMFaabj1JD3DNJMGilIM2l0FCeCNCMAfq80Hx0dKRSKw8NDDMOOjo68vLw0Gg2fzw8ODs7Ozr5x48bt27eDg4Obm5v5fL7NZqutrWUyme+///7m5mZiYuLk5OT4+HhycnJtbW1+fn5AQEBycjKGYcfHxyUlJZ6engKBYHZ2Vi6Xp6WlGY1GpVKZnp7u5uZWVVX1ySefTE5OhoSEWCyW+vr6jIwMNze3iIiI6upqs9mMYZjJZPL09FxfX+/p6YmNjb18+XJERERycvIbb7yxt7eHYVhnZ2dcXNzu7m54eDiHw+HxeC0tLV5eXhiGyeXys2fPxsfHWywWk8mkVquvX7+elZUVGBgYExNz48aN2NjY9vb2xcXFCxcuxMXFdXR0mM3mmpoaoVD45ptvJiYmpqSk7O3t5ebm+vv7c7lc/J8BMTEx3t7eGIaVlJRwudwHhwHS/CAT546ANNNxviDNdJwa8p5BmkkjBWkmjY7iRJBmBMBPpNlisUgkkl/+8pcbGxsn0nznzh2pVBoZGVlZWZmRkVFaWurl5dXa2spms1dWViQSSXJy8kcffbS7u5uUlDQ9PT0xMREeHn758mWFQsFisdhsNi7NbW1tlZWVTCYzJydHLpcnJCSoVKrw8PDy8vKbN2+qVKpz586Njo6GhIQYjcb8/HwulysSieRyuYeHx+LiIoZh29vboaGhY2NjdXV10dHRoaGhLBaroKCAw+HgVt3Z2ent7T05ORkUFCQUCm/fvj0yMnL16tXFxUXc9aOjow0GQ0FBgUqlCggIKC8vz8zMlMlkRUVFpaWlwcHBfX19QqGwoKDg+vXrY2Njfn5+KpXqvffeYzKZaWlp+/v7eXl5MTExLBZrZWUlLS0tNTX10qVLi4uLaWlp+fn5Dw4DpPlBJs4dAWmm43xBmuk4NeQ9gzSTRgrSTBodxYkgzQiA49JsNpuLior+5V/+5W//9m/X19dx0+Xz+Xq93mg0CoXCpKSkwsLCkZGRoKCgjo6OsrIyNpudnZ3d29vLZDIPDg5kMtnS0pLBYCgsLExLSxOJRHw+H1dJq9Xa1dXFZrOTkpJ6e3tHRkZiY2Nra2tTUlIkEgmbze7u7g4LC2tqaiouLuZyufi+iIyMDBaLlZWVhW/PsNvtg4ODfD6fw+GIxeKxsbHU1NTExMSGhgZ807NGo3n77bc5HI5CoRgcHKyoqDg+Psbrf7HZY3l5WaFQsNns27dv46+TkpJu377d29ubnp6emJhYVFRkNBqTk5NxF19fX09PT8/Pz2cwGNnZ2Uql8ujoSK1WNzY2lpaWCgQCNpvd29srFosTExOzs7Pxf2ncNw+Q5vuAOP2PIM10HDFIMx2nhrxnkGbSSEGaSaOjOBGkGQFwPz8/nU5XVFT0/PPPu7i4PPfcc7g0IyhNbYnOzs7Y2NiTPdnUnvzhZwNpfjgX542CNNNxtiDNdJwa8p5BmkkjBWkmjY7iRJBmBMB9fHwYDMbPfvYzl7vHd7/73YGBAT0Nj8bGxtu3b09PTztO742NjZmZmQiGBCVoQgCkmSaD+qs2QZr/Csc39QeQZtKTB2kmjY7iRJBmBMA9PT3/93//9+mnn8al+dvf/nZaWpoYDhQEEhISeDwegiFBCZoQAGmmyaD+qk2Q5r/C8U39AaSZ9ORBmkmjozgRpBkBcD8/v6Kiol//+te4ND/33HPLy8vHcKAgMDY2JhQKEQwJStCEAEgzTQb1V22CNP8Vjm/qDyDNpCcP0kwaHcWJIM0IgPv5+U1PT7e0tPzqV7966qmn6LunGQEL1CVgTzNqoo5eD6TZ0Sf0sP5Amh9G5RsXA2kmPXKQZtLoKE4EaUYAHP/2DIvF0tPT8+KLL/7gBz+g6QcBEbBAXQKkGTVRR68H0uzoE3pYfyDND6PyjYuBNJMeOUgzaXQUJ4I0IwB+8j3Ndrv9i19D/fLLL29ubiKoCyUwDKT5m3YXgDTTceIgzXScGvKeQZpJIwVpJo2O4kSQZgTAT6QZwzCr1drd3Y3/rhAEpb/xJUCav2m3AEgzHScO0kzHqSHvGaSZNFKQZtLoKE4EaUYA/F5pxjDMbrcjKAol7hIAaf6m3QggzXScOEgzHaeGvGeQZtJIQZpJo6M4EaQZAfD7pBlBRSjxFwIgzX8h8U35L0gzHScN0kzHqSHvGaSZNFKQZtLoKE4EaUYAHKQZAUSCEiDNBGCcNgzSTMfRgjTTcWrIewZpJo0UpJk0OooTQZoRAAdpRgCRoARIMwEYpw2DNNNxtCDNdJwa8p5BmkkjBWkmjY7iRJBmBMBBmhFAJCgB0kwAxmnDIM10HO03UJq/uGRUH1+x2Wx0HPqDPYM0P8jkESMgzY8I6okvA2lGMAKQZgQQCUqANBOAcdowSDMdR/tNk2aLxdLV1WUymb7+sMxmc3Nz89HR0dcv9cQrgDSTHgFIM2l0FCeCNCMADtKMACJBCZBmAjBOGwZppuNo6S7Ndrt9aWmpqalJo9FsbGyMjo7W19cPDQ0dHx8bjcampqbOzs79/f2JiYnd3d3l5WWNRnPz5s3a2tqNjY2Ojo66urrp6Wn8gbHVah0ZGVGr1Vqtdnp6enl52WazDQ0NbW5uDg0NNTQ0TExMmEymxsZGjUYzOjo6MDBw+fLl+fn5mZmZxsbG/v5++n5jKUgz6b+8IM2k0VGcCNKMADhIMwKIBCVAmgnAOG0YpJmOo6W7NO/s7HC53NLSUrFYLBAILl68mJeXJ5FIFhYWIiIiCgsLU1NTh4eHuVzuzMyMWq2OiYnx9PRsbGzs6enJy8sTi8VBQUFbW1sYhs3NzUVERFRWVvr4+HA4HLlcPjc3FxkZWVtbGxkZqVKpkpKSlErlBx98UFlZGR4e3tDQcPXq1eHh4cuXLyuVyoSEhKamJjreA/ivKeDxeCsrKzTt/wm2DdL8BOE/1qlBmh8L18MXgzQ/nAuKKEgzCop0qgHSTKdp/aXXB6V5e3v74ODgL+87+n/1ev2f//znDz/88K233vLx8YmNjX3nnXdYLNbg4OCVK1e2t7cPDw+3t7eTkpKmp6fr6+sTEhLi4uJ0Ot3k5KS/v//58+c//fTT5eVlDMNkMtkLL7xw/vz5//mf/2GxWGw2Oz8/XygUpqWlvfzyy+fOnfu///s/gUDg7++/vr4eFRXV1dUVEhKiVqvd3NwwDKuvr4+OjnZ0XgT9wZNmAjBfHQZp/mpGjrECpBnBHECaEUAkKAHSTADGacMgzXQc7b3SbLPZxsbGLl261NPTQ5drWV1dZTAYjY2NDQ0NNTU1+fn57e3tAQEBbW1tPj4+Go2muLi4q6uLx+M1NTWlpaVFR0fHxMS0trbyeLyMjIza2trPPvtsaWkJw7CBgYGoqKju7u68vLyZmZno6OgrV66Mjo5WV1ezWKyurq7y8vKamprAwMCNjY3o6Oju7m5fX9/Ozs6PP/54eHg4IyMjPz+fLtzu6xOk+T4gj/4jSPOjs3qyK0GaEfAHaUYAkaAESDMBGKcNgzTTcbQn0myz2fr7+//4xz/+9Kc/7ezspMu1WK3W3t5eiURSWFg4MDAgl8vz8/NlMtnm5mZfX19+fn5hYeH6+npXV1dRUVFeXl5tbW1VVVVl5f9n78yD27jPuy85jZO4k7yuO0maNGkzk3baNP0j43TSNmkTu06msV0rjq1YtizrskRRoijxECmKNwjeJEiQAHjf932IpCiS4iFSvO8bvAnwBoj7Bha7r17umC8re2Vq9RPIhZ79w1w+2N+zz36+oPIJZgHc6e3tLSsrq62tzc3NlcvlBEEYDIba2tr8/Pzi4mKVStXb25uV+JBvtQAAIABJREFUlWUwGGQyWVVVVUFBQV1d3eTkZHV1tU6nq6+vF4lEubm5QqGwvr4+Ly+vvLxcJpMxhdsjc4I0PwJk/7+CNO+f1cEeCdKMgD9IMwKIFC1AminA2G0ZpJmJ0e5K88TExOuvv/6Vr3zlRz/6EYOkmSAIHMfNZrPFYsFx3Gq1ms1mDMPIumVnIwjCarWS+1arFcMwi8WyW8EwbPcT6DAM211OHklmulvHcZxsTq4i++w9KROfA3BP89OkBtL8NPRsuRakGQFtkGYEEClagDRTgLHbMkgzE6N9aIG+vr5CofDYsWNHjx49cuQI46SZidgP28zwSjPtRECaaaOz8UKQZgTAQZoRQKRoAdJMAcZuyyDNTIz24Ue2OTg4vP322y+++OKRne2VV165ceMGH7bniQCPx3N0dIRPz6DxJwzSTAPagSwBaUaAHaQZAUSKFiDNFGDstgzSzMRocRy/ceNGeHj4//k//4eU5h/+8Ie1tbXrsD1PBFZWViIjI0GaafwJgzTTgHYgS0CaEWAHaUYAkaIFSDMFGLstgzQzMVrynmadTsdms0lvhtszmJjjU84Mt2fQBgjSTBudjReCNCMADtKMACJFC5BmCjB2WwZpZmK0u28E3N7eZrPZr7zyCkgzE3N8yplBmmkDBGmmjc7GC0GaEQAHaUYAkaIFSDMFGLstgzQzMdpdacZxXCaTRUZG/vjHP2bWp2cwEfthmxmkmXYiIM200dl4IUgzAuAgzQggUrQAaaYAY7dlkGYmRrsrzeTwGIbl5ORMTU0x8VpgZtoEQJppowNppo3OxgtBmhEAB2lGAJGiBUgzBRi7LYM0MzHaR6SZIAij0WixWJh4LTAzbQIgzbTRgTTTRmfjhSDNCICDNCOASNECpJkCjN2WQZqZGO3npZmJVwEzPyUBkGbaAEGaaaOz8UKQZgTAQZoRQKRoAdJMAcZuyyDNTIwWpJmJqSGfGaSZNlKQZtrobLwQpBkBcJBmBBApWoA0U4Cx2zJIMxOjBWlmYmrIZwZppo0UpJk2OhsvBGlGABykGQFEihYgzRRg7LYM0szEaEGamZga8plBmmkjBWmmjc7GC0GaEQAHaUYAkaIFSDMFGLstgzQzMVqQZiamhnzmZyrNGIbpdDocx5GPTTbEMEyr1T6j5l/aFqT5SxEdkgNAmhEEAdKMACJFC5BmCjB2WwZpZmK0IM1MTA35zI+RZhzHCwoK/vCHP7i4uLi6ujY0NGxvb6vVaq1Wq1AoMAyTSqUikUiv12MYtrm5uby8rNPplEol+TEscrm8tLSUw+FoNBqZTLa8vCyVSq1WK0EQGIZ1dHT4+PjcuHHj5s2b3d3dOI4rFIrl5WW5XK7X66VS6dramkwms1gsGxsbYrFYp9NhGCaTyQiC2N7e7uzszMzMzMrK4nK5Wq1WJpMtLS3t9icIQqPRLC8vV1ZWlpeXazQasVgskUjIsxMEsby8HBwc7OHh4enpmZeX9/B70x0cHC5cuODi4uLu7r69vR0YGHjixAnXna2pqWl34V7+IM17aRzmfZBmBOmANCOASNECpJkCjN2WQZqZGC1IMxNTQz7z46W5vLw8Pz/fuLOZzeampqa0tLTCwsLm5ubl5eW4uLjU1NTMzMyenh4+n5+enl5YWEh+2vfm5mZOTk5ISMj169eHhoYEAkFWVpZAIFhbWyMIQiaTeXh4PHjwQK1Wj4yMtLS0bG5upqen5+TkxMfHNzQ0+Pv7l5eXp6end3V1hYSEpKSk1NTUyOVyPp9vtVq5XG5GRkZycnJwcLCrq+vQ0FBiYmJ2drZAIFhfXycIQqfT5eXlpaen37x5MzMzMyEhISUlhcfjCYVCgiBMJhObzc7KylIqlSsrK5WVlcvLy76+vvPz8+SV4jgeFRV17949nU5XVFQUHR1tNps/Tx6k+fNMDmcFpBlBLiDNCCBStABppgBjt2WQZiZGC9LMxNSQz/x4ac7KyvrXf/3Xd99999SpU21tbWq1+sqVK9evX9/e3s7Ozo6IiOjo6HBwcHB2du7q6tJqtTMzM1FRUf39/SKRiMPhFBUV8Xi8jY2Nzs7Oe/fueXp6Dg8PEwSxuLjo4uJiMpkIgrBarSaTqbGxMT8/X6vV5uXleXl5hYaGymSyxMTEjIyM48ePl5aWLiwsSCQSLy8vDMPc3Nx4PF56enp+fn5CQsLGxkZXV1dzc7Onp+fIyAhBEDMzM+Hh4TqdrrKyMjAw8Ny5c1qttrGxMTY2liAIpVL5ySefrK6ukjBNJpNcLj958uR///d/v/vuu9euXVMoFF5eXr/85S/ffvvtM2fOTE1N4ThusViEQuHeu0FAmpE/G59RQ5BmBGBBmhFApGgB0kwBxm7LIM1MjBakmYmpIZ/58dJcVlaWlpYmkUi2t7f1er1cLnd3d/f09NzY2EhOTr548SKPx/P29vbx8enu7jYYDH19fVFRUe3t7bOzs8HBwSUlJXFxce3t7V5eXnFxcZcvXx4YGCAIguzT19en1+vHxsbS0tLu3r37UJeNRmNubu6NGzd4PJ5Op0tNTa2vr8/LywsLCwsMDJRIJA9vqNDr9efOnSOluaioiM/nt7e3+/r6xsfHX758eWhoiCCI2dlZDodjNpvv3LkTFBR09uxZnU7X1NQUGRlJEITZbA4MDCwoKNBqtRsbGykpKVNTU7du3RoZGZFKpTKZDMOwyMjI2tpapVKJYRjJXKfTOTs7p6enk65PEARIM/Jn4zNqCNKMACxIMwKIFC1AminA2G0ZpJmJ0YI0MzE15DM/XporKiouXboUHR0dFRXV0NBA3vOQl5dXXFw8MTERFRUlEAhSU1Obm5u5XG5iYmJZWVlTU1NISIhAIGCz2W1tbV5eXmVlZWw2u7S01Nvbm5RaDMNaWloCAwM5HE5wcHBTU5NIJBIIBElJSdHR0SUlJZmZmTqdrqCgoKamhs1mx8bGJicnk7dVZGRknD9/PjMzs6ioqK2t7ebNm2VlZWFhYWVlZd7e3uQrzRqNJn9nCwsLKygoiI6O5vF4HA6nv7+fBLiwsBAYGBgVFRUREZGWlra6uurh4REQEBC1s4lEoqSkpJ6enr1vYdTpdO+///7f/u3fJiYmqlQqkGbkT8Vn1xCkGQFbkGYEEClagDRTgLHbMkgzE6MFaWZiashnfow0EwSh1WpXP9vkO5thZyNfgpXL5RsbG1qtlnyL3sbGhsFgsFgskp1NoVCYTCaJRKLVard3NplMZjQayUvAMEwul6+vr8tkMqvViuO4Wq3e2NhQqVQGg0Gj0eA4rtVqjUbj9vb25uamTqcj76yQSCQymUyj0Wi12s/3330ZWK/Xky+Q63Q6vV6/ubkpl8v3vp+PPJ1EIjGZTFarVSqVfnahq0ajUa1W745KDkxK85EjR15++eWYmBiDwQCvNCN/Nj6jhiDNCMCCNCOASNECpJkCjN2WQZqZGC1IMxNTQz4zhmE8Ho/8EAw9bNQEtre333333SM721//9V9nZma++eabX/gGQeQZHXjDjo6O+vr6Ax+D9gAgzbTR/f+FIM3/nwXqPZBm1EQPez+Q5sOe0BfNB9L8RVSeuxqGYcHBwTweLxu2xxJISUn5l3/5F1Kajx49+pOf/OTHP/4xSDMj/mBAmhHEBNKMACJFC5BmCjB2WwZpZmK0IM1MTA35zBiGcbnc4eHhFdgeS2BmZuatt94ipfmll166fv36r3/9a5Bm5E/IZ9EQpBkBVZBmBBApWoA0U4Cx2zJIMxOjBWlmYmrIZ378Pc3IT8fchrv3NH/ta1+7fPmyXC6He5qZkiZIM4KkQJoRQKRoAdJMAcZuyyDNTIwWpJmJqSGfGaR5n0hJaf7zP//zK1euiMVi+PSMfXI7DIeBNCNIAaQZAUSKFiDNFGDstgzSzMRoQZqZmBrymUGa94lUp9OdPn3ay8tLKpWSH0UHrzTvE92BHwbSjCACkGYEEClagDRTgLHbMkgzE6MFaWZiashnBmneJ1LyawulUunu8SDNuygO+Q5IM4KAQJoRQKRoAdJMAcZuyyDNTIwWpJmJqSGfGaR5/0gtFsverzsBad4/uoM9EqQZAX+QZgQQKVqANFOAsdsySDMTowVpZmJqyGcGaaaNFKSZNjobLwRpRgAcpBkBRIoWIM0UYOy2DNLMxGhBmpmYGvKZQZppIwVppo3OxgtBmhEAB2lGAJGiBUgzBRi7LYM0MzFakGYmpoZ8ZpBm2khBmmmjs/FCkGYEwEGaEUCkaAHSTAHGbssgzUyMFqSZiakhnxmkmTZSkGba6Gy8EKQZAXCQZgQQKVqANFOAsdsySDMTowVpZmJqyGdGIs0ymWx9fZ32bBaLZXV11WKxPNJBq9Vubm4+UqT6VSQSGQyGzz9qNpvn5uaGhobEYrHVajUYDIODg3072+zsrEaj6e/v7+vrGx4e3tjY2Ps+v8+3eqQC0vwIkEP7K0gzgmhAmhFApGgB0kwBxm7LIM1MjBakmYmpIZ/5SaXZarVubW0tLCxsb2+vr6/Pzc2p1eqioqK0tDSj0SiTyWZnZ6VSqV6vX1lZWVxcFIlEYrF4eXnZYrGoVKq5ubnFxUWj0UheiNFoXF5eHh4e9vf3X11dXVhYmJ2dVavVZrN5aWmppqYmOjrabDaLxeKlpSWj0ajRaObm5kQiEYZhZAer1bq+vr64uOjk5DQxMbGxsTE7O6tQKEj91el0+fn5fn5+kZGRPj4+g4ODDwX62LFjISEhUVFRFRUVExMTr776alBQEJvN/uijj2Qy2f4JgzTvn9XBHgnSjIA/SDMCiBQtQJopwNhtGaSZidGCNDMxNeQzf16aMQyzWq1UJ9Lr9RERERwOp6qqKjo6Oj09PS4uLiwsLDg4WCwWx8bGZmVlBQYGVlZWent7FxYWXr16NTs7m81mNzc3V1RUZGdnBwUFNTc3W61WHMebm5vj4+N5PJ6zs3NRUVFGRgafz8/MzCwoKIiPj2exWL6+vg0NDfHx8Xw+Pzs7u6ioiLOzCYVCcsKFhQUOh5OdnX3s2LHCwkI+n5+Xl5eUlER+oLJQKAwMDBSLxSaTaXp6WigUzs/Pu7u7T0xMLCwsSKXSubm5d955Z2hoqKur67e//e3KygrVhX++DtL8eSaHswLSjCAXkGYEEClagDRTgLHbMkgzE6MFaWZiashnfkSacRzv7OxcXFykOpFWqw0NDZ2enk5ISLh48WJ8fPwHH3wQGhpaUVHR1tYWGxtrMpkyMjIcHR0TEhIUCoWrq+vi4mJ+fn5cXFxzc3NKSoqzs3NycrLZbLZarfHx8YODg2Kx2Nvbu76+PjMzMzg4+PLlyxcuXBCJRJ2dnUFBQV5eXv39/UtLSx9++GFSUpKbm1tCQsLq6io5YXl5eUlJidFovHDhws2bN9va2oxGY2JiYn9/P0EQ/f39UVFR5G0bGIZZLJbZ2dnf//73t27dCggIuHPnzvT09D//8z+7ubn5+voWFhaazWaqC/98HaT580wOZwWkGUEuIM0IIFK0AGmmAGO3ZZBmJkYL0szE1JDPvFeazWZze3v7z372s9bWVqoTabXayMjI1dXV7OzskJCQpqamkpKSrKysoqKi9vb26OhotVqdmJjo5OSUnZ2t1Wo9PDzW19dLS0v9/PxYLFZZWVl0dHRSUhIpzSkpKf39/SKRyN3d3cPDIy8vr6Sk5Nq1a1evXl1cXHzw4EFwcLCfn19nZ+f09PTJkyc7Ojqampq8vLzS0tLIl8Nra2tLS0sf3v3s6Ojo7e3d2NioVCp5PN7g4CBBEMvLy/7+/rOzsyqVqqmpKScnZ35+/tatWyKRaGtrS6lUzs3N/elPf9rY2HgiXSbhgDRTPUkOWx2kGUEiIM0IIFK0AGmmAGO3ZZBmJkYL0szE1JDPvCvNRqOxoqLiJz/5yV/8xV88RpoNBkN+fr5EIhGJRAKBID09PSUlpaWlhcfjicXilJSU9PT0yMjI5ubm+vp6vV4vEAikUmlra2taWlpWVlZ1dXVcXFxRUREpqcPDw7k7W3h4eHJycmVlJXljxp07d7KyshITE1NSUnp6evh8fkJCQnV1dV1dXVJSUnx8fHd3N4lia2srOzu7rKzM09OzqakpKSkpOzs7JydHqVQSBGE2m5ubmyMjIxMSErhc7vz8/MrKyvXr1+Pj4wUCQUVFhVAo9Pf312g0NMCCNNOAdiBLQJoRYAdpRgCRogVIMwUYuy2DNDMxWpBmJqaGfOZdab5///5Pf/rTF1544fHSjOO4Wq0m73uWy+Xr6+s6nc5kMkmlUpPJpNFoNjY21Gq1yWTS6XQ4jiuVSgzD9Hq9Wq1WqVQSiUQul2s0GvKNehaLRSaTSaVSpVKp0Wi2trZkMplSqTSbzVKpVCKRqFQqDMO2t7e3trYsFovRaNzc3JRIJLtvBCRPIZFIZDKZyWRSKBTr6+tarXYXlMVikUqla2trSqUSx3HykzpWdratrS3yzYuPuYd7t8/nd0CaP8/kcFZAmhHkAtKMACJFC5BmCjB2WwZpZmK0IM1MTA35zBiGcbncvLy8H/zgB0d2tpdffvnOnTsa2L6MwP/8z//QuKkDeYI2aNjR0VFfX2+DEz2jU4A0IwAL0owAIkULkGYKMHZbBmlmYrQgzUxMDfnMD18z9vPz+8UvfnH06FFSml966SV3d/cU2L6MwM9+9jOQZuRPyGfREKQZAVWQZgQQKVqANFOAsdsySDMTowVpZmJqyGfGMCw2NrakpOTVV18lvfnll1+urq7ehu3LCLz11lsgzcifkM+iIUgzAqogzQggUrQAaaYAY7dlkGYmRgvSzMTUkM+8e09zZ2fnP/3TPx09evTx9zQjH4C5DeGeZqZkB9KMICmQZgQQKVqANFOAsdsySDMTowVpZmJqyGfelWaTyVRVVfWzn/3slVdeecynZyAfgLkNQZqZkh1IM4KkQJoRQKRoAdJMAcZuyyDNTIwWpJmJqSGfeVeaCYKwWCz37t371a9+1dbWhvxE9tcQpJkpmYI0I0gKpBkBRIoWIM0UYOy2DNLMxGhBmpmYGvKZ90ozQRBWq5X8ij7kJ7K/hiDNTMkUpBlBUiDNCCBStABppgBjt2WQZiZGC9LMxNSQz/yINCPvb8cNQZqZEi5IM4KkQJoRQKRoAdJMAcZuyyDNTIwWpJmJqSGfGaSZNlKQZtrobLwQpBkBcJBmBBApWoA0U4Cx2zJIMxOjBWlmYmrIZwZppo0UpJk2OhsvBGlGABykGQFEihYgzRRg7LYM0szEaEGamZga8plBmmkjBWmmjc7GC0GaEQAHaUYAkaIFSDMFGLstgzQzMdoDlOaHp8Zx/Img0VjyRP2f24NBmmlHD9JMG52NF4I0IwAO0owAIkULkGYKMHZbBmlmYrQPNdTf3/9J5ZXGlS4uLi4sLOxd2N3dvbGxsbfy+H0cx4VCoUgkevxh8CgNAiDNNKCRS0CaaaOz8UKQZgTAQZoRQKRoAdJMAcZuyyDNTIwWlTTjOL6+vr62tqZQKNbW1lZWVjQajclkIvfX1tZGR0fHxsakUqlIJJJIJAaD4caNG/fv39/a2lpdXd3a2trc3BSJRJubmxiGEQRhNpvX19dXVlaUSuXa2trq6qpSqUxOTq6pqTGbzZubmysrKwqFQq1Wi8Xira2t5eXljY2N9fV1i8Uik8nEYvFuKybmYuOZQZppAwdppo3OxgtBmhEAB2lGAJGiBUgzBRi7LYM0MzFaVNKs1+sdHR3DwsK4XG5QUFBsbGxycnJ9fT2LxQoJCfn444+zsrJycnKcnJxCQkJSUlIWFxc/+uijzMxMPz+/mzdv5uTk8Pn8xMREDw+P5eVlgiBEItH169djYmISEhLCw8MjIyMTEhI8PDz4fP7AwEBAQACfzw8ICEhJSbly5UpxcfHvf//73NxcJyen1tZWDoeTlJTk7+8/PDzMxFBsPzNIM23mIM200dl4IUgzAuAgzQggUrQAaaYAY7dl+5Zmk8kkk8nsLzyE0uzi4tLf33/9+vUTJ05cvHjxzTff9Pb2bm9vn56evnLlSlZWVmFhYXR09KVLl6KiolQqlZ+fX29vb2BgYEdHh1gsjouLc3d3P3ny5MjICEEQy8vLkZGRKysrFy5c+Oijj86dO/fuu+8mJCS0tbUlJSWVlpZqNBoPDw8fH5/CwkK5XH7+/HmtVstisQICAlJTU/V6fU1NTXp6uv1F9iyuCKSZNlWQZtrobLwQpBkBcJBmBBApWoA0U4Cx27IdS7NarQ4KCoqJibG/8BBKs5ubm1AojIyMbGpqWllZ6ejoiI6Orqys7Ojo+OSTT7KysrKzsysqKsRi8c2bNycmJvz9/VtbWwMCAoaHh0tKShISEhQKhY+Pz9DQECnNcXFxUqmUw+G0trYuLCzcv38/Kyvrzp07ZWVlSUlJIpHIwcEhJCSkqqpKpVI5ODiYTKawnY3L5W5sbCQlJZWUlNhfZM/iikCaaVMFaaaNzsYLQZoRAAdpRgCRogVIMwUYuy3bqzTLZLKwsLBvfetbUVFR9hceKmk2Go3p6elbW1tCoTAxMTEpKenOnTvj4+N8Pj88PPz06dMNDQ2tra05OTkpKSkZGRlyuby6urqoqCgjI2NpaWliYiI3N7e2tjYuLk4oFBIEIZFIampqdDrd2NhYamqqQCBoampqbm7Ozs5eXV1NTU1NTk4uKytrb2/v6enR6XQCgcBisZSWlra3t5eXl6ekpKSmpm5tbdlfZM/iikCaaVMFaaaNzsYLQZoRAAdpRgCRogVIMwUYuy3bpTQbDAYWi/Xtb3/7yJEjIM2Pee7iOK7T6axWK47jWq1WqVQajcampqaUlJTk5OSIiAi1Wm02m41Go1Kp1Ol0OI4bjUatVqvT6bCdTbOzabVai8VCEITVajUajTiOYxim0WhUKpXFYjGZTBqNxmq16nQ6lUpl/mwjz04QhMFg2D2LXq+3waeCPIYJgx4CaaYdFkgzbXQ2XgjSjAA4SDMCiBQtQJopwNht2f6kuampKTo6+qWXXjqys9mxNFut1mfxvFQoFAUFBQ/fnyeVSp9Ff+iJigBIM22SIM200dl4IUgzAuAgzQggUrQAaaYAY7dlO5PmqqqqkydPfutb3yKN+ciRI5cuXWq2u+3evXunT5++d++e3V0ZXNATEGhqarp16xbczULjX2eQZhrQDmQJSDMC7CDNCCBStABppgBjt2X7k+bLly//4Ac/AGl+AvmCQ5lJAKSZ9r/LIM200dl4IUgzAuAgzQggUrQAaaYAY7dlO5Pmurq61tbW2traV155xe5vz4B7f+32z3J/Fwa3Z+yP0xccBdL8BVAOZQmkGUEsIM0IIFK0AGmmAGO3ZfuT5s7OToIgCgsL/+7v/u7o0aN2fE8zSLPd/lnu78JAmvfH6QuOAmn+AiiHsgTSjCAWkGYEEClagDRTgLHbsr1Ks0ajyc7O/u53vwvSbLfP3ef+wkCaaT8FQJppo7PxQpBmBMBBmhFApGgB0kwBxm7L9irNBEGYzeba2trc3Fz7Cw/V5zTbH5nn6opAmmnHDdJMG52NF4I0IwAO0owAIkULkGYKMHZbtmNpJggCwzCtVmt/4YE021+mNK4IpJkGNHIJSDNtdDZeCNKMADhIMwKIFC1AminA2G3ZvqXZXmMDabbXZJ/oukCanwjX3oNBmvfSOMz7IM0I0gFpRgCRogVIMwUYuy2DNDMxWpBmJqaGfGaQZtpIQZppo7PxQpBmBMBBmhFApGgB0kwBxm7LIM1MjBakmYmpIZ8ZpJk2UpBm2uhsvBCkGQFwkGYEEClagDRTgLHbMkgzE6MFaWZiashnBmmmjRSkmTY6Gy8EaUYAHKQZAUSKFiDNFGDstgzSzMRoHyPNOI5bLJaHB+A4bjabrVYrQRBkZfdKyWPIX61WK4Zhuw994c7e47/wgKcpms1mjUZDnsJqtZp2ti8dafeMGIaZTCaz2fyYT60mH91/z93mj9nBMOwxZ3zMQoQPgTTThgnSTBudjReCNCMADtKMACJFC5BmCjB2WwZpZmK0j5FmqVQaFha2vr6+trb2hz/8obu7W6PRBAcHLy8vm81mvV5vNptFItHVq1c1Go3ZbB4fH4+JidFqtUajkfRsnU5HWubu8TMzM66urqTO7uIy7GxGo5GUcr1ebzAYSOvV6/UWi8VgMOj1+l1VtVqt5BLS4E0mk06ns1gsVVVVeXl5S0tLRUVFnZ2db731lp+fX3FxMY7jJpOJ7IDjuNFoJAezWCzGnQ3HcQzDYmNjT58+7eXltba2ZjKZyFOQ/09Av7NpNJqPPvpobm4uPz9fq9XqdjaTybTbk5yH7E+qsMFg2IVgNBr3XgX5UYYymSwxMXFwcNBisZBIH8FiMBjI+Q0GAzkwCYc86d59nU5HTqvT6chVGIbp9Xoyjr3H755idwekeRfFk+6AND8psYM6HqQZAXmQZgQQKVqANFOAsdsySDMTo32MNBuNxoSEhNHR0QcPHpw6daqqqmp6ejo2NnZpaSklJSUxMbG0tHRycvJ3v/tdUlJSZmZmV1fXhQsXEhISIiIiZmdnc3Nzk5OTCwoKhEJhampqYmJiSUnJ4ODglStX6urqmpqayJeuDQaDi4tLWlqaQCBYX1+vqalJSkoKCgrq7OyMj48XCAS3b99OSkqKjo5uamoivVkoFLLZ7Ozs7KysrNnZ2fT09KSkpPz8/LCwMFdX14GBgZycnNDQ0Pfff7+ysrK4uHhzczMxMZHP59fV1S0uLpLnSk1Nrays5HA4d+7cMRgMq6ur77zzTnx8fGRk5NLSUmZmZnp6elxcXE9Pz927d1NSUuLi4trb20+cODE7O5uZmdne3p6amurn51dUVLS2tpaUlBQfH5+dnT03N5ecnEyOPTExkZaWxufzCwsLJyYmEhISEhMT6+rqyAtXKBSpqak8Hs/Z2bm7uzsjIyNUC0g4AAAgAElEQVQxMTEjI0OhUBAE8dDab968mZqaGh8fPz8/L9jZamtrE3a2tra2qamphIQEPp/f1dU1OTmZuLM1NDSQxyQlJc3OzjY2NsbFxaWlpYnF4snJyaSkJIFAcO/ePbPZ/MhzFaT5ESD7/xWkef+sDvZIkGYE/EGaEUCkaAHSTAHGbssgzUyM9vPSvLCwIJPJCILAcbyuru727dssFqusrCwmJub27duFhYVVVVWXLl2qrKy8efNmXV3dJ598srS0xGKxeDyet7e3WCy+du1aSEhIfn6+VCrl8/k+Pj48Hk8kEsXExJSXl7/66qu+vr7r6+skLq1W+8Ybb8zNzRUXF3M4nLt379bW1jo4OERERAQFBQmFws7OzqqqqoiIiFu3bun1eoIgent7AwICFhYWzp8/HxUVVVFRIZFIIiMjb926lZmZOTU1FR8fX1ZWxmKxOjo6SGdNTU0ViUQPHjyYm5urrKysqqo6c+aMt7d3YWGhSqWyWq0Wi+X69esdHR0+Pj7T09MhISHd3d3l5eVcLrexsbG+vj48PDwuLu79998fHx/ncDhKpXJycjIgIGB8fFwsFhcXF2dnZ586dYo83cbGxoMHD0ZGRurq6goLC52dnf39/SsrK2dmZnx8fMjX1Nva2oKDg5eWlsLCwlJSUjw8PDY2NrhcbkVFBUEQer3+jTfemJ6erqur8/Ly8vb2bm5u9vLyam1tHR4ednJy4nK5tbW1s7Oz/f393J2trq7O1dXVzc2Nw+GUlpbOzc1FR0cHBgaWl5evrq5yOJz6+vqxsTEXF5fNzc1HnqsgzY8A2f+vIM37Z3WwR4I0I+AP0owAIkULkGYKMHZbBmlmYrSPSPPKysr777//0ErJa5mYmAgNDXV0dJTJZO7u7qGhof39/bm5uR9//DGPx4uJieno6CBvt+BwOGFhYXFxcQ/vEPD19XV3dydfUk1PT79w4UJhYaFer+fxePn5+a+99tq1a9eWlpbIU2i12rfeestkMrW0tDg6Ovr5+UVHR58/fz4wMDAuLm57e1sgEPj5+QUEBLi6upLfL9PX18flcpVKpYODg7e3d2trK0EQAoHA1dW1sLBwZmaGx+PV1NSEh4f39PTw+fyEhISysjKTyTQ8PHz79m3yFdxTp055enruXilBEB4eHv39/X5+ftPT0zExMXNzcy0tLYGBgSwWKywsjMViRUdHv/fee6Q0r62tubi4tLe34zheX19//fr16OjoDz74ICQkpKGhgSCI4eHhh18hGRAQwOVyHRwcrl+/3tPTo1AoPDw8SPWvq6tLSkrS6/Xp6emRkZEsFgvH8aysrOTkZFKaf/e73+n1+sHBwTNnzgQHB4+Njbm6uk5PT6+vr3/00UfBwcE9PT0ajWZoaMjX1/fWrVt8Pj8tLa2rqysnJ8fJyamqqkooFObl5V2+fLm+vt7f37+/v18qlV66dEksFj/yXAVpfgTI/n8Fad4/q4M9EqQZAX+QZgQQKVqANFOAsdsySDMTo92VZrPZ3NPT8/rrr//oRz/q6ekhr0Uikbi7u2dnZ+M4npCQ4OTkpFAohEKhn59fVVVVcnJyf3//e++9V1JSwmKxmpub09LSrFZrVFRUZmYml8ttaGjgcDhVVVX+/v4VFRWxsbEdHR1+fn4NDQ08Hs9kMhEEodVqf/nLX+bn50dGRjY0NISGhra0tHh6erLZ7LS0tO3tbS6XW1ZWlpycfOPGDVKah4eHU1NT1Wq1h4dHcXFxXFxcbW1teHh4YWFhaGhob29venp6U1MTj8cbHBzMzMycnJyMiIgoLi6Oj48vKSlJT0+/f/++g4ODv7//0NDQbmpBQUEjIyMRERHkLRaLi4sPHjwIDQ2NiIi4f/9+QkJCbGzs+fPnp6en4+LiYmJinJ2dGxoaRkdHCwsLeTze7du3T58+XVNTw+Vyb9++zeFwUlJSysrKGhoaPDw8srOzw8LCyGktFgtBECKRKDw8/O7du35+fm1tbZ6enhUVFYGBgVNTU6Q0v/baa1lZWdHR0a2trVwuVyQSkZeQlZXF4/Hu3bsnEAiysrIKCwvv3LmTlJR0584dgUDA5/Nra2v5fH5NTU1mZmZ+fn5sbGx7e/udO3f4fH52dnZMTIxGo9m9anIHpPkRIPv/FaR5/6wO9kiQZgT8QZoRQKRoAdJMAcZuyyDNTIx2V5r7+vpee+21r3zlK3ul2WKxTE9Pb29vEwQhkUge3pBAEITVahWJRN3d3UtLSzqdrq+vr7+/f21tTavVrqys4Di+uLgol8tJ6RSLxWazeXFxsaenZ3V1VavVzs3NGY3GiYkJ8i4F8vaM3t5eoVCI4/j8/PzIyMj09PTMzMzKyorFYtnc3BweHp6amhIKhaRuqtVq8iGhUKhSqchbOLa2tjQazcDAwNra2srKyvb2tkgkUqlUq6urGIbNzs729fWpVCq1Wj0yMjIxMTEzM0Mu301tfn5erVYvLi7qdDqxWKzX6+VyuUgkWlxcHBoamp6eXl5eHhsb02q1i4uLo6OjrTvb6OioRqMZHh6emJiYnJxUKpVCobCrq0uxs5H1h29/VKlU09PTvb29UqmUPKPVal1ZWRkcHJyYmFCr1aurq93d3SKRiHxUr9f/13/9V09Pz8TEBIZhy8vLRqPRZDKNj48PDAyo1WqDwTA+Pj40NES+7W9sbOzBgwfb29tyubyzs3N4eFin0ykUit7e3tHRUfK9leTazxsz+S3xfD5/a2trlwbs7JMASPM+QR34YSDNCCIAaUYAkaIFSDMFGLstgzQzMVpSmpeWln7zm9+88MILR44c2SvNNrginU73xz/+0WAw2OBcDDqFwWB45513yFfWbTA2vNJMGzJIM210Nl4I0owAOEgzAogULUCaKcDYbRmkmYnR4jju6Oj4+uuvHz169MjO9u1vfzs4OLgItueJQEFBgYuLC7zSTONPGKSZBrQDWQLSjAA7SDMCiBQtQJopwNhtGaSZidHiOO7m5hYVFfWd73yHlObvf//7OTk5Q7A9TwQGBgYCAwNBmmn8CYM004B2IEtAmhFgB2lGAJGiBUgzBRi7LYM0MzFa8vYMg8GQkpLyl3/5l7a/PYOJ0OxvZrg9g3amIM200dl4IUgzAuAgzQggUrQAaaYAY7dlkGYmRktKM47jKpUqNDT0lVdesfE9zUyEZn8zgzTTzhSkmTY6Gy8EaUYAHKQZAUSKFiDNFGDstgzSzMRod6WZIAi5XM7lcn/+85/vfuQcE68IZqZBAKSZBjRyCUgzbXQ2XgjSjAA4SDMCiBQtQJopwNhtGaSZidHulWby25tLS0vn5+eZeC0wM20CIM200YE000Zn44UgzQiAgzQjgEjRAqSZAozdlkGamRjtI9JMfmSv1Wpl4rXAzLQJgDTTRgfSTBudjReCNCMADtKMACJFC5BmCjB2WwZpZmK0n5dmJl4FzPyUBDAMS05OlkgkT9nnOVwO0syU0EGaESQF0owAIkULkGYKMHZbBmlmYrQgzUxMDfnMOI6T39SIvLPdNwRpZkrEIM0IkgJpRgCRogVIMwUYuy2DNDMxWpBmJqYGMx8eAiDNhyeLx08C0vx4Pvt6FKR5X5hoHQTSTAsbgxeBNDMxPJBmJqYGMx8eAiDNhyeLx08C0vx4Pvt6FKR5X5hoHQTSTAsbgxeBNDMxPJBm26em0Wi6u7u7drbJyUkcx790Bo1Gs7KyguQNmmKxWCaTUZ3RarVubW1ptVqqAx6pYxi2urqq1Wo3NzcVCsXq6mpfX9/q6qpKpXrkyC/9VavVisXilZUVk8n0hQdjGLa0tKTX67/w0YMqgjQfFPknPS9I85MS+4LjQZq/AAqiEkgzIpCMaQPSzJio9gwK0rwHho12+/r6fvvb3/r6+gYGBmZnZ1ut1ocp7FXnvfsEQeA4PjQ0lJ6ebjabyV8/f8AjFfJKdtuSj5L/DQsL6+jo+MI+BEFotdqUlJSRkRHygL1E9jbZXa5Wq5OSkmZnZ1tbW4eHh319fb28vBobG2dmZh7psDvMI/XdX4eGhlgsVk1NDen0jxyP47hGo2Gz2Zubm7tn3zveQe2DNB8U+Sc9L0jzkxL7guNBmr8ACqISSDMikIxpA9LMmKj2DPpQTfz9/fcqF+lwew6BXcQE+vr6PDw8ZmdnyRd9BwYGvLy8AgMD29raFhcXg4ODAwMDy8rKRCJRTEyM1Wq9ceOGv7//uXPnZmdnc3NzAwMDL168uLKyQhCE1WptbW0NCgoKDAxsaWnh8/nLy8v19fWFhYV37txhsVghISH37t27evVqcnIyqaTvv/9+eHh4Z2dncHBwUFBQcXGxxWIhCGJtbS0qKiogIODy5cvt7e0cDicwMJDH45EKazAY3nvvvcTERD8/v6mpqfLycjabHRgYWF1dffLkyby8vMzMzMTExDfffDM2NjY/P7+trS0jI8Pf3z8yMlIikVRVVQUFBV2+fLm5uZnNZvv5+S0uLpLvPmSz2SwWq6qqqq+vLyAggMPhLC8vV1RUsFiswMDArq6uyMhIDofj7++fm5t77Nix4uLi7u5uklJdXZ3RaEQczxO2A2l+QmAHdjhIMwL0IM0IIFK0AGmmAGO3ZZBmJkb7iDSTL2pubGww8VqYMnNfX9+xY8diY2N5PF5HR0dLS8utW7d4PN79+/dzcnJiYmLkcvnY2NjDr5gJCAiwWq3nzp3LyspKTU3V6/XZO9vx48dramoIglAqlefOnWOxWAEBAcePH8/Pz29ubnZycmptbXV2do6OjuZwOJ6enm+//fb8/Hxra2tycjKbzb579y6Hw2ltbV1bW/Px8dHpdDiO3717Nz4+XiqVRkdHJyQkvPbaa8nJyadPn7579y5BEHq9/t///d9XVlby8/Ojo6N9fHzEYjF5LoFAMDMzk5CQcPv2bR8fn8XFxYKCgqysrPfee0+hUExOTkql0vLy8qysrPPnzwcHB4eEhMzMzFitVovFkpWVlZGRIZfLp6amSGlms9k9PT0nTpzgcrmurq5OTk5hYWGzs7PV1dV8Pt/Hx2djYyM4OPjWrVvx8fGXL19eW1s72NxBmg+W//7PDtK8f1aUR4I0U6J56gdAmp8aIcMagDQzLLCdcfdKs9VqHRoa+vWvf93b28vEa2HKzH19fb6+vhsbGwqFQqvVLi8vDwwMFBQUhIeHCwSCxMREjUbT2dn50Cz9/PxMJtMf//jHrKyslJSU2dlZR0fH9vZ2Z2fniooK8pvPHR0db9++/eDBg7q6us7OTjab7eDgsLm56e3t3dLS0tPTc//+/ePHj2s0mq6uroSEhODg4Dt37kRERAwODkqlUi8vL1Ka6+vrMzIytFptcnJyXFzcuXPnBgYG7t69u7y8TErzr371K51OV1FRwWazvb29pVJpT0/P+fPnBQLB9PT0I9KckZHxxz/+0Ww2j42NdXd3u7u719fXky8ex8XFra+vEwRhsVjS0tKKi4vVanVPT09XV1dAQACbzX7w4IGDg8P9+/dbW1tra2vj4uJWV1cbGxt5PJ63t/f6+npUVFR+fn5fX19LS4tGoznY3EGaD5b//s8O0rx/VpRHgjRTonnqB0CanxohwxqANDMssJ1xd6XZaDTW1dX9/d///Y9+9KOenh4mXgtTZh4bGzt37lx8fLxAICgqKmpqaoqJiUlLSyssLJyZmQkKCkpKSsrMzFSpVIGBgXl5eZ988smdO3fIeyoCAwPr6upcXV3Ly8vJW3tramq4XG5MTExubu7m5qaLi0tvb6/Vaq2qquLxeCkpKQUFBU5OTjqdbmhoKD8/Py8vLyUl5d69eywWKzk5OSsri7w9Y2ZmhsvllpSU+Pn59fX1BQYGpqamhoaGLi0tEQRhMBg+/PBDg8HQ2NhYUlKSnZ0tEAjYbHZTU1NqamplZSX5IndMTIxYLK6pqenu7uZyuQKBIDIycnx8PDIysrKy0s/PLyQkJDs7e/dbVGZmZlgsFjnk8PBwXFycQCBYWVnJyckh/b68vDw7O3tzc/PBgwd5eXkREREVFRXt7e1cLjclJSUtLQ2k2WZP+46Ojvr6epudDvmJQJoRIAVpRgCRogVIMwUYuy2DNDMxWlKaMQxrbGx89dVXX3jhBZDmZ52jTqcbHR0d2dlmZmZ0Ot3CwsL09LRSqbRarRsbG0KhUKlU4ji+srIyNzcnFotVKtXy8rJSqVxdXV1YWFhZWdn1TpPJtLCwMDs7azAYMAwTi8WkBOv1+tnZ2ZmZGfLFbKvVqtPptre3FQrF8vKywWAQiURCoZD8mAur1VpeXj4zMzM3N7e8vKzX67e3t6empsiXhMmbp+fm5qxWq1KplMlkGo1mZmZmeXnZbDZvbW2trq5ub2+rVKqNjQ2TyaRQKDQajU6nm56eJj/0Y2NjY2FhgfxwDKlUSk5Itl1bWyOvV6/Xb2xsPHyN3Gw2a7XamZmZ+fl5o9EolUrNZrNard7e3l5fXxeJRAaDYWlpaWpqSq1WP+uwvrQ/vNL8pYgOyQEgzQiCAGlGAJGiBUgzBRi7LYM0MzFaHMd9fHxaWlp+8pOfvPDCC0eOHAFpZmKOTzkzhmECgWBra+sp+zyHy0GamRI6SDOCpECaEUCkaAHSTAHGbssgzUyMFsfx8+fP//znPz969OiRne3ll1/+9NNPH36kBmzPD4GHt2S89dZb7u7uz88lo7rSf/zHf/Tx8UHV7TD3uXr1KtyecYD/yB85wHPvnhqkeRcF8h2QZuRID3lDkOZDHtAXjofjuKenZ15e3j/8wz+Q3vzDH/7w7t27EtieJwIbGxvh4eFTU1PP00WjudY333xzbW0NTa/D3aW2thak+Qv/FbVNEaTZNpwP7CwgzQeG/oBODNJ8QOCf6rTkPc1ms7moqOhv/uZv4PaMp6LJ2MUYhvH5fLg9g0aAcHsGDWgHsgRuz0CAHV5pRgCRogVIMwUYuy2DNDMx2t1PzzAYDBkZGd///vfhnmYm5viUM4M00wYI0kwbnY0XgjQjAA7SjAAiRQuQZgowdlsGaWZitLvSTBCE0WgsLCyEz2lmYo5POTNIM22AIM200dl4IUgzAuAgzQggUrQAaaYAY7dlkGYmRrtXmgmCMJvNLS0t5Fc0M/FyYGZ6BECa6XEjCAKkmTY6Gy8EaUYAHKQZAUSKFiDNFGDstgzSzMRoH5FmJl4CzPz0BECaaTMEaaaNzsYLQZoRAAdpRgCRogVIMwUYuy2DNDMxWhzHg4KCcBxn4vAwMyoCIM20SYI000Zn44UgzQiAgzQjgEjRAqSZAozdlkGaGRrtyMgISDNDs0M1NkgzbZIgzbTR2XghSDMC4CDNCCBStABppgBjt2WQZruNFi7M3gmANNNOGKSZNjobLwRpRgAcpBkBRIoWIM0UYOy2/HxKM3Nfo314NzNzh7fbv6IDujCQZtrgQZppo7PxQpBmBMBBmhFApGgB0kwBxm7LdinNOI63tLQolUqCIJaWllZWVvaK5vb29tTUlFQq7enp2d7erqmpmZqa6u/v33vMoc17eHgYvszi0KZj48FAmmkDB2mmjc7GC0GaEQAHaUYAkaIFSDMFGLst26U0W63WX/7yl0VFRVartbS0tL6+HsMwhUIhlUpNJtP9+/fj4uKWl5frdjYvL6+5ubnGxkaLxSKXyyUSiclkwjBMLpdvbW3p9Xoye7PZvL29LZVKNRoNhmFSqVShUBgMBolEolQqcRw3mUzkPvnZyRKJRKFQYBim0Wg2Nzc1Gg2O42q1enffaDRubW1JpVIMw1Qq1fb2tkwmI3fMZjM5jFQqNZvNWq2WHF6n03l7e3d2dlosFpVKtXc8u32CwoVREwBppmbzJY+ANH8JoEPzMEgzgihAmhFApGgB0kwBxm7L9irNx44dc3d3n5ubKy4urqmpaWtr8/b29vf3T0hICAsLu3TpUkNDw6VLl0JCQhwdHcfHx11dXRsaGry9vQMCAqqrq7u6ugICAtzd3TkcjsViIQhidHT0P//zP0N2tuHh4TfeeIPH4/n4+LBYLH9//46OjtjYWD8/Py8vL7FYnJ6ezmKxPD09KyoqfHe2+Pj4+fn5ixcvenl5JSUlKRSKpKQkFot18uTJtrY2V1fX0NDQU6dO+fv7u7u7NzQ0NDY2kgtzcnLYbDaLxYqKioqOjj5+/HhkZGRbWxubzQ4JCYmKitre3rbbZydc2GMJgDQ/Fs/jHgRpfhydw/QYSDOCNPZKM47jUqnUarUi6AstCAKk+Xl7FtirNF+9erWiouLmzZuJiYnl5eVsNruxsXF1ddXZ2bmxsTExMXFgYMDJyamxsbGgoGB7e/vy5cvBwcGTk5NKpXJxcbG3t5fH47FYLEdHR4PB8PDbEEZGRj799FOZTMbj8UpKSi5fvjwwMODg4KDT6RobG69du+bo6KhUKoVC4fj4+IULFyIiItzd3T08PMLDw0NCQjIyMubn5z08PEJCQrKzs+VyeXZ2dlJS0smTJwUCAZvNXlxc9Pb2vn37dnV1dUJCws2bN2/cuBEaGurg4ODj49PV1bW1tRUWFubk5DQ8PJyVldXc3Gw2mwUCQXd39/P2pIXrJQmANNN+JoA000Zn44UgzQiA75XmtbW169evq1QqBH2hBUjz8/ccsFdpdnFxkclkaWlpb7zxRnFxcVhYWHl5+fz8/JUrV5qamuLj43t7e/dKs5OTU3h4eF9f38rKyu3btwMCArKysurr652cnHal+aOPPlpdXeVwODU1NW5ubgsLC6dOnZLJZJWVld7e3hcvXtzc3KyqqmptbQ0MDOzv729tba2oqGhoaFhYWPDx8amtrS0uLh4fH/fy8mpqajp9+jS5z+Vyo6KiNjY2AgICWltb79y5w+PxoqOjy8vLR0ZGysrKIiIixsbGpFJpRESEk5NTV1dXTk5OTU2NwWCIiIgYGBh4/p62cMX/jwBIM+3nAUgzbXQ2XgjSjAD4rjSrVCo3N7fvfOc7MpkMQV9oAdL8/D0H7FKacRwPDQ3V7GweHh51dXWTk5MsFsvPz6+8vHxyctLX17exsZHFYnV2dtbU1CgUCpJDwM5WX19fUVERHBwcGxvr5ua2K82/+tWvAgMDU1JSlpaWwsPDLRZLZmamj49PaGjo7OxseXm5r68vi8WSSCTV1dWBgYG3bt1qaGjg8Xj+/v6xsbEzMzNsNtvPz4/L5S4tLQUFBSUkJNy6dYvD4aSnp0ulUh6P19vbe//+/dzc3MHBQTab7e3tXVJSkpGRMTMzI5fLU1NT09PTvb29+/r6/He2tLQ0rVb7/D1t4Yr/HwGQZtrPA5Bm2uhsvBCkGQFwT0/PpaUlsVh8/fr1b3zjGy+99BJIMwKsOy3g9gxUJJnSxy6lmSAInU5HfhqGXq83mUw4jmu1WqVSaTabMQxTq9VGo1Gr1ZrNZqPRaLVadTqd1WpVq9VKpdJisZjNZpVKRWo32WdkZMTR0VEmkxkMBvJ4giDMZrNCodBqtTiOWywWpVJJ7pvNZqVSqVKpMAzT6/VyuZycR6fT7d1XqVRarVan05E99Xq9eWczGAzkkOTA5K84jhsMBqPRSE4oEAjkcrnRaGTKMw3mRE4ApJk2UpBm2uhsvBCkGQFwT0/P7u7uy5cvf+1rXzty5AhIMwKmn7UAaf6MxPPy016lGXl+GxsbtbW1h+TtEw8/q/nhC82M+Iw85EFAw10CIM27KJ50B6T5SYkd1PEgzQjIu7m5ffzxx1//+teP7Gxf//rXHzx4MAYbCgJ1dXXBwcEoOkEPZhBwcXEpKyt7prOO72zkKVDtj42NjY+P746921YgEOTm5u4+tFsnj6dd//zpPn/qpzwF1aiPnJo87+joqKOj4+jo6O6j5KU96X93r+Jpdp70pHuPf5rz7q7d2/BJ93ebMHFnZGTEx8enra2NicPvnflJU9t7/N4++99//fXXh4aGnvLPhxxj/yf9wiP3XsuT7pMN947x+f28vLz6+nqCsRtIM4LoXF1dT5w48c1vfpOU5hdffDExMTEHNhQEoqKiLl68iKIT9GAGgQ8++CAkJIQZs+5jSnd3dz8/v30cyOxDsrOz33333ezsbGZfBkz/dASysrJOnz7N5/Ofrs3zuPrVV1/NyMh4Hq48ODgYpBmBd9JtcYTuQpTrPD09Ozo6rl279uKLL8LtGSjJwhsB0dJkQje4PYMJKT06I9ye8SiR5/J3uD2DduxwewZtdDZeCK80IwBOfnqGSqVydnb+6le/Cvc0I2D6WQu4p/kzEs/LT5BmJiYN0szE1JDPDNJMGylIM210Nl4I0owA+O5Hzj38alknJ6fvfe978OkZCLDutABpRkWSKX1AmpmS1N45QZr30nhu90GaaUcP0kwbnY0XgjQjAL4rzQRBrK6u+vr6qtVqBH2hBdye8fw9B0CamZg5SDMTU0M+M0gzbaQgzbTR2XghSDMC4HulmSAIjUYDH72EAOtOC3ilGRVJpvQBaWZKUnvnBGneS+O53Qdpph09SDNtdDZeCNKMAPgj0oygI7T4jABI82cknpefIM1MTBqkmYmpIZ8ZpJk2UpBm2uhsvBCkGQFwkGYEEClagDRTgLHbMkgzE6MFaWZiashnBmmmjRSkmTY6Gy8EaUYAHKQZAUSKFiDNFGDstgzSzMRoQZqZmBrymUGaaSMFaaaNzsYLQZoRAAdpRgCRogVIMwUYuy2DNDMxWpBmJqaGfGaQZtpIQZppo7PxQpBmBMCfkTRbrVa1Wi2Xy/V6PY13FhoMBgzDdDqdwWBAcJEH1AKk+YDAH9hpQZoPDP1TnBik+Sng2c9SkGbaWYI000Zn44UgzQiAPwtptlqtLS0tnp6e169f9/X1XVtbe6JBMQxLS0ubnJwsKSkZHByk4dxPdLpndzBI87Njezg7gzQfzlwePxVI8+P5PCePgjTTDhqkmTY6Gy8EaUYA/FlI8+bm5gcffNDV1SWTyUIGzbUAACAASURBVDIzM5ubm9fW1uLi4thsdkdHR2NjY0xMTHR0dHNz88zMTFBQUHh4+Orq6v3798fGxnAcz8vL8/b2bm9vP3XqFIfDWVxcjI+P9/HxuXv3rtVqJQhCJBJ5eHhERESUlJRsbm7evHkzLS2tvr4+KCgoKSlpa2urq6uLxWIlJCSo1eru7u6QkBAulzs7O1tQUHDr1q2SkhKVSpWenu7t7V1RUWEwGLq7u9lsNo/HUygUCJh+1gKk+TMSz8tPkGYmJg3SzMTUkM8M0kwbKUgzbXQ2XgjSjAD4s5Dmrq6us2fPmkwmgiDMZrNSqeTz+bW1tRMTE0FBQbGxsaGhoX19fb6+vnl5eQEBAWlpaX19fYWFhS0tLeT/gLm5uQ0NDfH5/JaWlq6urqysrLS0NBcXF51ORxDExMTEsWPHpqamoqKiampqzp4929nZefr06fn5+cLCwtDQ0GvXrk1OTlZXV4+MjHh5eZFFX19fb2/voqKiwsLCiYmJM2fO5OTkFBcXz87OXr16dXp6Ojc3l8PhPA1TiUSyurq62wGkeRfFc7ID0szEoEGamZga8plBmmkjBWmmjc7GC0GaEQB/FtIsFAqPHz9Ofh331NRUZWVlaGjowsLCw9dxAwICoqKiCgsLFxcXfXx8BgYG8vPzWSxWenp6fn5+c3MzjuNeXl5ubm7Dw8Opqan3798vLS0lXyq+fPmyVqslpfnKlSt6vT4pKSknJ8fDw2NkZMTBwYEgiAcPHpw9e/bq1asGg2Fpaamrq+vatWupqanp6emFhYV3797NzMxksViDg4M1NTVpaWkBAQEtLS1Xr141m839/f2XLl16GqZ37949efLk9vY22QSk+WlgMnEtSDMTUwNpZmJqyGcGaaaNFKSZNjobLwRpRgD8WUiz0WgMCgoKCQmpqKg4e/Zsa2trSUlJZGRkdXV1ZGRkYmJiaWnp0tISi8XKysoijTYiIqKpqSkpKen+/fsXLly4efPm6Ohoenp6Tk5OeHh4bm5uaWnp+fPnNRoNKc3/9m//VlFRERISMjg46OPjo9FoHBwcKisro6KiqqqqAgICysvLvb29BwYG4uLibt++nZCQwOVyIyMje3t7w8LC6urqXFxcWlpaWCzW7Oysl5dXeXm5v79/TU3N0zCtqqr6+te//vHHHy8vL+M4DtL8NDCZuBakmYmpgTQzMTXkM4M000YK0kwbnY0XgjQjAP4spJkgCJVK1dzcXF5ePj4+jmGYwWBob2+vqalZXV2dn59fXl7WaDQjIyPb29t3796tr69XqVRqtbqlpaWpqWloaGhwcFAuly8uLnZ3d6+srDQ2NnbsbOQtHxMTE3/6059qa2unp6cNBsPQ0BCO45ubm7dv3+7q6jKbzRKJpLa29uEdIBiGra+v19XVNTU1KZXK8fHx0tLSwcFBs9k8OjpaXl4+MjKCYdjW1lZtbW1nZyd5zzRtrKQ0v/TSS2fPnl1bWwNppk2SoQtBmpkYHEgzE1NDPjNIM22kIM200dl4IUgzAuDPSJoRTEbdQigUenl5WSwW6kMO5hFSmo8cOfKNb3zjzJkzra2tmZmZBzMKnPUgCIA0HwT1pz0nSPPTErSL9SDNtGMEaaaNzsYLQZoRAL9x40ZmZmYKbCgIXLly5atf/eqRne3o0aO/+MUvYmJiEIQELRhCAKSZIUH9rzFBmv8Xjuf1F5Bm2smDNNNGZ+OFIM0IgHt4eDQ1NXXChoJAeHj4iy++SErzd7/73UuXLvH5fAQhQQuGEABpZkhQ/2tMkOb/heN5/QWkmXbyIM200dl4IUgzAuBMvD0DwWU/mxa7t2f81V/9VXp6+sjICNye8WxIH9KuIM2HNJjHjgXS/Fg8z8uDIM20kwZppo3OxgtBmhEAB2lGAPGzFqQ0v/LKKzExMUajEd4I+BmY5+UnSDMTkwZpZmJqyGcGaaaNFKSZNjobLwRpRgAcpBkBxM9aVFVVfe9734uNjVWpVARBgDR/BuZ5+QnSzMSkQZqZmBrymUGaaSMFaaaNzsYLQZoRAAdpRgDxsxY9PT0CgUCv15MFkObPwDwvP0GamZg0SDMTU0M+M0gzbaQgzbTR2XghSDMC4CDNCCB+1sJsNpOfJE0WQJo/A/O8/ARpZmLSIM1MTA35zCDNtJGCNNNGZ+OFIM0IgIM0I4BI0QKkmQKM3ZZBmpkYLUgzE1NDPjNIM22kIM200dl4IUgzAuAgzQggUrQAaaYAY7dlkGYmRgvSzMTUkM8M0kwbKUgzbXQ2XgjSjAA4SDMCiBQtQJopwNhtGaSZidGCNDMxNeQzgzTTRgrSTBudjReCNCMADtKMACJFC5BmCjB2WwZpZmK0IM1MTA35zCDNtJGCNNNGZ+OFIM0IgIM0I4BI0QKhNG9vb29tbZHnUSqVMpkMx/G9p8VxfGVlBcOwzc3N2dnZpaWl3Q/x2HvY/vfVavXq6qrVat3/kv0faTabV1dX916CTqfb3NzcW9l/tyc60mKxbG1tmc3mJ1q1z4NBmvcJ6lAdBtJ8qOI4qGFAmmmTB2mmjc7GC0GaEQAHaUYAkaIFQmnu6emJioqyWq04jldVVTU1NT2isxiG1dbWGgwGgUCQnp5eUVGxK9kU031JuaurKzk5+RnJpUqlamhowDBsd4ixsbGioqK9ld2H0O4oFIq0tDSpVIq2LdkNpPlZUH3WPUGanzVhRvQHaaYdE0gzbXQ2XgjSjAA4SDMCiBQtEEqzxWLx8vJaWFgwGo0+Pj5TU1P5+flnzpzx9fUdGxt755133N3d33rrra6urv/4j/8IDw+/du3awMBAXl7eJ598EhAQsLCwkJKS8sknn1y5cmV6epogCIvFkpube+LEiVu3bonF4uHh4StXrjg6Ovb39xMEYTKZvLy8fvOb35Dq/Mknn4SHh3d1db355pvu7u7Ozs6+vr7Xrl0bHR0lCALH8bGxMRcXl08//bSmpsZsNuM43tbW5ujoePPmzdTU1PPnz7u6us7NzWVkZJw9e/bKlSs8Hs/b23tlZcXR0fHjjz9ua2tLSUl5++23u7q6zp8/7+7unpeXd+nSpcuXLw8ODpJ0xWLxw1HPnz9fXFzc2Nh4+vRpBweHW7duubm5hYeHq9VqgiCsVmtpaempU6e8vLyWl5erq6vPnDlz4sSJhYWF2traTz/91NXVdXBw0N3d3dHR8cyZM52dnZWVlWfOnPHw8JiZmaGI8XHlR14aB2l+HKzD+hhI82FNxqZzgTTTxg3STBudjReCNCMADtKMACJFC4TSTBBEZWVlVVVVZ2dnWFiYUCg8duxYcXFxYGAgl8v97W9/Ozc35+TkpFKpoqKipqamrly5UlVVFRERIZFIhoeHp6enk5OTa2pqfHx8KioqCILQaDQhISFpaWnZ2dljY2Pnzp2LiYnhcrlOTk7k1dy7dy8iIqK1tfXSpUu3b9++efMmn8///e9/v7y8fPPmzYmJiYaGhsLCQgzDDAZDfHx8T0/P5uZmWFiYWCzGcfzu3btxcXGLi4tnzpzJy8tzd3e/evVqbGzs1tZWQkJCWFiYu7v74ODgjRs3UlNT6+rq+vv7U1NT5XI5Ke4XLlwQCoW9vb1eXl4EQZjNZh6P5+zsnJube+HCheLi4tDQ0KGhoffff39xcZHD4SwuLhIEsba2dunSJYlEMj4+vrCwkJ6eXlVVdf369ZiYmKCgILJhb2+vr6/v0NDQ3bt3w8LC3nnnnYKCgoiIiPj4eIoYKcs4ji8sLEgkkt0jQJp3UTBoB6SZQWE9u1FBmmmzBWmmjc7GC0GaEQAHaUYAkaIFWmkWCoVcLvfixYszMzNCofDkyZPNzc1lZWV1dXVvvvmmVqu9du3aXmkuLy8nv9BbKBS2tLS4u7vX19eHhISUlpYSBGEwGFpbW1taWkJDQ8vLy0+fPl1YWFhTU5Obm0tezb1790JDQxsaGry8vNra2oqKiiorK0+ePKlSqUJDQ9fW1tra2vLy8jAM0+l0sbGxk5OTSqUyIiJiYWGBlObS0tKlpSVHR8f6+vqioqK4uDg+n69UKgsKCiIjI93d3RcXF6urq7Ozsx0dHbu7u5OTk2UymZub2/z8/Pnz57e2tiYnJ52dnQmCMBqNHA4nPDy8qakpMzOzvLw8OTl5fn7ewcFBKpXGxcXNzc0RBCESiZycnIxG4/z8fHd399WrV8n/nxC8s4nF4snJyY6ODg6Hs76+3t3dzWKxjh8/fu/evaqqqubmZooYKcs4jsfFxfn4+Oh0OvIgkGZKWIf4AZDmQxyO7UYDaabNGqSZNjobLwRpRgAcpBkBRIoWaKVZpVL5+/u7ubmREslisUJDQ/39/aurq9955x2dTufi4qJWqzkcztTUlLOzc1dXF5/Pj4qKYrFYt2/fdnZ2Li4udnd3J7VYo9FERkbGxsb6+fl1d3cXFxd7e3v7+vqmpaWRV9PX13f27NnW1lY2mx0bG+vv719aWnr69Gm1Wh0REbG+vt7e3l5QUIBhGI7jD29Q9vX1jYqKSkhI0Gq1ZKW8vNxiscTHx4eFhTk5OVVUVHC53Ojo6NOnTwcHB3t6epJ3SoSGhvr4+ExMTNy4caO3t9fDw0OlUmVkZHjvbNXV1eQ8AwMDLi4uYWFhISEhVVVVaWlpCwsLly9f3t7e5vF48/PzBEFgGBYVFcVms4OCgpqami5dupSXl3ft2rXg4ODMzMzg4GA3N7eGhgYul7u5udnT05ORkREcHMxmswMDA+vq6ihipCxbrVY/P78/+7M/Cw0N1Wg0BEGANFPCOsQPgDQf4nBsNxpIM23WIM200dl4IUgzAuAgzQggUrRAK81Wq3V1dXVjY4M8m0KhGBkZmZ2d1ev1QqHQarUuLS1hGLa+vq7X65eWlrRarUwmGxkZWVpaMplMCwsLU1NT8/Pzu7cTyGSywcHBmZkZo9FoMpmmp6fHx8e1Wi3ZX6/XT05OyuXyra2toaGhxcVFtVo9Pz+PYdja2prJZFKr1VKplLyp12g0CoXC0dFRlUpFLic/4oMgCKVSOTo6Oj09LZPJGne2sLCwqqqqpaUli8UyMzMzPDysUqmMRuPs7KxUKl1eXrZarUajcWJiYmpqymg0kg0xDFtaWhoZGZFIJORUBoNhcXHRYrFsbGwYDAbyMLVaPTo6urCwYDabV1ZWpqamFhYWRCKRWq0eHx+fn583GAwbGxtms1mj0Ugkkt3xdk9E9tnPf0lpPnLkyDe/+c2AgICtrS2Q5v1wO2zHgDQftkQOZB6QZtrYQZppo7PxQpBmBMBBmhFApGiBVpopTsKYskajqaio4PP5aWlpa2trjJmbetBdaT5y5MjLL7/s5+fn5eVFvjmSehGTHqmrq+vs7GTSxLRmBWmmhc3eFoE0004UpJk2OhsvBGlGABykGQFEihZzc3NXr169cOHCR7DtEPjggw+OHz/+wQcffPjhh3aA5MMPP/zpT3965LPtW9/61t/+7d+CNFP8NRzeMo7j/v7+j3wQyuEdFyZ7NgRAmmlzBWmmjc7GC0GaEQAHaUYAkaLF3Nz/Ze/Mg9pIz8SNs9lftrK12a1NUlszyU42k9Rks5Wkkmwls1vJnNnJ7Bye0x6PTzy2xx4D5hDmvu9D3AgkQNxgsDGnOQzmvu/7MIhTXBIIneiWun+zdEVFjNuD258FrXn7H7defd/b7/e8LfHQbiReWlqaQqGQw2aJBKRSqZubG+HM/+///b8PPvjg888/B2kmeTUc3jBI8+HtjRkrA2mmDBukmTI6M08EaUYAHKQZAUSSFHB7BgkYCwmbbs84cuTIW2+9NTg4GBYWBtJMu+6CNNOuZU+jYJBmylRBmimjM/NEkGYEwEGaEUAkSQHSTALGQsKENB85cuTNN9+cmZkxGo3wh4B0bC1IMx27hrxmkGbKSEGaKaMz80SQZgTAQZoRQCRJAdJMAsZCwkajMSgo6M0331xeXiaWBNJMx9aCNNOxa8hrBmmmjBSkmTI6M08EaUYAHKQZAUSSFCDNJGAsJIxhWEtLS39/v+lvyECa6dhakGY6dg15zSDNlJGCNFNGZ+aJIM0IgIM0I4BIkgKkmQSM5YT1er3RaDStB6TZhIJGOyDNNGrW0ysVpJkyW5BmyujMPBGkGQFwkGYEEElSgDSTgLHYMEgzHVsL0kzHriGvGaSZMlKQZsrozDwRpBkBcJBmBBBJUoA0k4Cx2DBIMx1bC9JMx64hrxmkmTJSkGbK6Mw8EaQZAXCQZgQQSVKANJOAsdgwSDMdWwvSTMeuIa8ZpJkyUpBmyujMPBGkGQFwkGYEEElSgDSTgLHYMEgzHVsL0kzHriGvGaSZMlKQZsrozDwRpBkBcJBmBBBJUtBLmoVCYV1dXW1tbVNT08rKiukTIXAcxzBsaWlJKpWSLJRi2Gg0rqysyOXy3fOnp6eVSuXuCI32QZpp1CxTqSDNJhRf5x2QZsrdB2mmjM7ME0GaEQAHaUYAkSQFvaS5paXFx8enrq4uPz8/MjJSIpFotdrl5eW1tTWlUpmYmNjR0WEwGAQCwfLyslqtlsvlfD5fIBCsrKysrq6KxWIMw0Qi0fz8/MbGBoHEaDQKBILV1VWlUrmys+l0Oo1GQ0wRCoVdXV0rKyubm5sLCwsymUypVHp5eU1NTQkEgrW1NbFYLBAIFhcXFQoFCePDFQZpPlz92F81IM3742Tho0CaKTcYpJkyOjNPBGlGABykGQFEkhT0kuampqaUlBSNRjM7O+vt7b26unrz5k17e3sbG5u7d++ePn2azWZ3d3c77mwZO9tHH30UGRn5pz/9KSgoyNPTk8fjubu7X79+/cyZM4Q3y2SykydP+vj4JCcn29jYXLt2rb6+vqKiwt7e/tKlS5cvX2axWA0NDRcvXnR0dIyOjp6YmHj77bcLCwvPnTtnb28fExPj5OTk4uLCYrFo4c0gzSQvhUMdBmk+1O0xV3EgzZRJgzRTRmfmiSDNCICDNCOASJLiAWkmLruSjD348N27d9977z1nZ+dPPvkkLy+Pz+efPn26sLCQxWI5OTmlpqZ2d3d7eXnV19fPz89fvHgxOTk5Ly9vaGjoypUrQqHQy8urtbX15s2bd+/ePXr06NDQEI7jMpnM0dFxdHT05MmT+fn5GRkZtra2vr6+Q0ND9fX1NjY2LBbr7t271tbWmZmZ1dXVBoPB09NzZmbm9OnTfX19iYmJXV1dEokkKiqKx+MdPKOvqgCk+asIHcbnQZoPY1fMXhNIM2XkIM2U0Zl5IkgzAuAgzQggkqTYLc16vb6lpcXV1ZVk7MGHGxsbExISVlZW2Gw2l8tdWlo6d+5cVlZWeno6m83mcDjt7e2+vr7V1dUzMzPnz59PTU2trKwcHx93dnaWyWQBAQGpqanEgDfffLOvr4+QZjc3t8XFxXPnznG53Nzc3NjYWH9//76+vpqamqtXr7JYrHv37qWnpxcXF1+7dk0ul3t4eExMTJw6dYrP57PZ7Obm5q2trfDwcJBm858iVVVVHR0d5j+umY8I0mxm4IfzcCDNlPsC0kwZnZkngjQjAA7SjAAiSQqTNGMY1t3d/fvf//7o0aMkYw8+3NTUlJaWptfrv7yJ2cXFZXBw8M6dOxcuXDh79mxLSwuLxQoKChoeHr569er58+cLCgpu3rz5gDTfvHnz8uXLAQEBx48fb2xsNEmzVCptamoiUlVXVzc0NHz++eeffvrplStXWCxWc3OznZ3dqVOn/Pz8tFqtj49PbGzs8ePHhULh+Pj4tWvXzp07l5KSQou/DoQrzQd/Hj9+BSDNj8/MAmeANFNuKkgzZXRmngjSjAA4SDMCiCQpCGk2GAxfXlh98cUXv/GNbxxmaTYajXq9nliKTqczGo0Yhmk0Gq1Wi2GYXq/X6XQYhmm1Wo1GYzQaDTsbhmE6nQ7Hcb1ebzAYtDsbMZ342A1ilmmiTqdrbW3t6urKzc1NSEhQq9VEcrVaTRydOBBxUGKWWq02GAwkjA9XGKT5cPVjf9WANO+Pk4WPAmmm3GCQZsrozDwRpBkBcJBmBBBJUvB4PC6X29bW9vLLLx85csTKyuowSzPJIhCHMQwbGBjI39nm5uZ2f7Ad4iMdRDqQ5oOg/qTHBGl+UoIWMR+kmXIbQZopozPzRJBmBMBBmhFAJEnB4/E+//zzX/7yl9/4xjesdrZXXnll6Gu/DQwMdHd39/T0DA4OWhgMBweHkZERktOBfmG4p5l+PYOKqRIAaaZKDgdppozOzBNBmhEAB2lGAJEkBY/HO378+PPPP08Ys5WV1S9+8Yt42CyXwNGjR0GaSV4NhzcMV5oPb2/MWBlIM2XYIM2U0Zl5IkgzAuAgzQggkqTg8XhJSUmFhYU///nP4fYMEkgWFYbbM+jYTpBmOnYNec0gzZSRgjRTRmfmiSDNCICDNCOASJKC+ENAvV7f0NDw05/+9MiRI3BPMwkqCwmDNNOxkSDNdOwa8ppBmikjBWmmjM7ME0GaEQAHaUYAkSSF6SPn9Hr9jRs3nn/+eZBmElQWEgZppmMjQZrp2DXkNYM0U0YK0kwZnZkngjQjAA7SjAAiSQqTNOM4rtFoiouLbW1tScZC2BIIgDTTsYsgzXTsGvKaQZopIwVppozOzBNBmhEAB2lGAJEkxW5pxnFcp9PR4mvtSFYD4a8mANL81YwO3wiQ5sPXkwOoCKSZMnSQZsrozDwRpBkBcJBmBBBJUjwgzSSjIGw5BECa6dhLkGY6dg15zSDNlJGCNFNGZ+aJIM0IgIM0I4BIkgKkmQSMxYZBmunYWpBmOnYNec0gzZSRgjRTRmfmiSDNCICDNCOASJICpJkEjMWGQZrp2FqQZjp2DXnNIM2UkYI0U0Zn5okgzQiAgzQjgEiSAqSZBIzFhkGa6dhakGY6dg15zSDNlJGCNFNGZ+aJIM0IgIM0I4BIkgKkeTcYiUQiEom2trYUCoXRaNz91O59nU6n1Wp3R1QqlUaj2R1BtY9hGFHM9vb2I0ra/+FAmvfP6vCMBGk+PL04wEpAminDB2mmjM7ME0GaEQAHaUYAkSQFSPNuME5OTlFRUfHx8TExMTMzMxiG7X7WtD8/Pz82NmZ6iON4dXX1wMAA2fjdIx93X6PRREdHb21tFRYWbm9vP+70veNBmvcyOfwRkObD3yMzVAjSTBkySDNldGaeCNKMADhIMwKIJClAmneDOXPmzPz8vFwuT01Nzc/PVygUaWlp9vb23d3darU6Li7O1dWVzWZXVFTcvXu3s7Pz0qVLycnJS0tLR48edXJyKi0tDQgIiImJyczMPH36dHx8vFQqxXHcaDQODg7a2NhERkZubW1NTEzY2dlFRkYKhcKQkJDY2Fg/Pz+1Wl1dXX3lypWCggKRSFReXi6VSicnJysrK0+fPl1SUvL666/X19dPTU1duXKFwWCoVKrdle9/H6R5/6wOz0iQ5sPTiwOsBKSZMnyQZsrozDwRpBkBcJBmBBBJUoA07wbz9ttvp6enp6Wlubq6tra2ZmVlOTs73717l8Fg5OXlJSQkdHd3v/POO2lpaRwOx9bWtri4ODs7e2VlJTk5uaamJjU11cPDY2hoKCMjY2JiwtPTs7OzE8fxjY2N4ODgqamppqamqqqqS5cu8Xi8kpKShISEt99+u7u7OzU1NTk5OSAg4Pbt2ywWa3x8PDo6WigUdnR0sNnskydPrqysBAUFbW5uBgYGdnZ2enl5FRYW7q58//t0l+bV1VWlUmlab1VVVUdHh+mhpe6ANFtqZx9rXSDNj4Vr92CQ5t00DvM+SDOC7oA0I4BIkgKkeTeYo0eP5ufn+/v7Ozo6rqyshIaGenl55ebmRkREBAQE3LlzZ2tr64svvkhLS8vOzq6urk5NTQ0KCuLxeGw2u7a2NjU1taio6P79+ywWKz8/n8FgtLa24jjO5/OZTKZMJhOLxc3NzU5OTjiODwwMBAYGHj16VCwWl5aWxsTEVFdXs9lsX1/f3t7emJgYgUDQ2trKYrFOnjy5trYWEhJClJSdne3g4MDlcndXvv99uktz4s5mutAO0rz/1sNIuhMAaabcQZBmyujMPBGkGQFwkGYEEElSgDTvBnPu3Lm1tTW5XB4SEpKXl1dZWclgMAoLCwMDA5ubm319fbOzs//nf/6HuNLs5eV1+/Ztb2/vkZERLpfL4XASExOLi4tbW1ujoqJ6enpsbGzq6+sxDJPJZLGxscXFxRwO586dOw4ODrdu3UpISMjNzT169KhEIikrKwsJCYmKirp58+YXX3zR3t4eFxdXWVkZFhYWGRl58uRJgUDg7u5eW1v7ySeftLW1OTo6xsXF7a58//t0l2YvL6/vfe97UVFRCoUCx3GQ5v23HkbSnQBIM+UOgjRTRmfmiSDNCICDNCOASJICpHk3mPr6euK//vl8fnd39/b2dmtra15e3tTU1Orq6o0bN1JTUz/77LPu7m4ejzc/P5+Tk1NbW6tUKufm5mpra3t7e+fm5uRyeX19fVVVVUNDA5/Px3EcwzA+n19QUFBXV6dUKldXV/Pz82tra2UyWVVVlUajmZ+fHx0dHRsby83NbW1t1Wg009PThYWFtbW1ExMTtbW1Go2mpaVldHS0u7u7tLS0oaGBuPFjd/H73Ke7NHt6elpZWT3zzDOpqak6nQ6keZ99h2EWQACkmXITQZopozPzRJBmBMBBmhFAJEkB0kwC5sHw7OxsTExMcnJyWlqaWq1+8Gn6PLYMabaysvrBD36QlJSUn5/f3t5OH/wUK4V7mimCs6xpIM2U+wnSTBmdmSeCNCMADtKMACJJCh6P5+fnl5WVlQLbIwmw2Wx/f39vb+/4+PhHDjzsT3700Uc+Pj6HvUry+t5++22rv2zf/e5333777ebmZpKz23LCIM2W08snWAlIM2V4IM2U0Zl5IkgzAuAgzQggkqTg8XgxMTE9PT0dsH09CNjY2GRnZ9N3rdbW7VvV0wAAIABJREFU1oQzHzly5F/+5V8+/fTTlpYWkrPbcsIgzZbTyydYCUgzZXggzZTRmXkiSDMC4CDNCCCSpIDbM0jAWGzYMm7POHLkyM9+9rOioqLS0lL4yDmLPVlhYX9NAKT5r3k8xiOQ5seAdaBDQZoR4AdpRgCRJAVIMwkYiw1bhjT/+Mc/LigogD8EtNjTFBb2MAIgzQ+jsq8YSPO+MB2CQSDNCJoA0owAIkkKkGYSMBYbprs0e3l5Pffcc7dv39br9fCRcxZ7msLCHkYApPlhVPYVA2neF6ZDMAikGUETQJoRQCRJAdJMAsZiw3SXZg6Hk5eXp9FoiA7BR85Z7JkKC9tDAKR5D5L9BkCa90vqoMeBNCPoAEgzAogkKUCaScBYbJju0ry1tWUyZrjSbLGnKSzsYQRAmh9GZV8xkOZ9YToEg0CaETQBpBkBRJIUIM0kYCw2THdpfqAxcKX5ASDw0IIJgDRTbi5IM2V0Zp4I0owAOEgzAogkKUCaScBYbPju3bvLy8sWszyQZotpJSzkKwmANH8lIrIBIM1kZA5bHKQZQUdAmhFAJEkB0kwCBsL0IADSTI8+QZUoCIA0U6YI0kwZnZkngjQjAA7SjAAiSQqQZhIwEKYHAZBmevQJqkRBAKSZMkWQZsrozDwRpBkBcJBmBBBJUtBRmo1Go0gkIj5xzGg0SiQSg8HwwPpUKpVMJtNqtaurqzKZTCwWPzDgcR+ura1ptdrHnbWf8RiGicXi3UsgFrX7z932k8c0hkj4lKo1HeWQ7IA0H5JGQBlmIADSTBkySDNldGaeCNKMADhIMwKIJCnoKM1qtTo+Pn52dhbHcaFQmJGRoVAovvyeYQzDcBzHMMxoNM7Ozvb09IyOjgYHB/f19d27d89oNBJPESRM401gdkeIfSIhMcDJyUkoFBL5TQcyDds911TD7ukPHUkEDQZDQ0ODaQkYhimVylu3bi0uLj4w66EJ9y5Hr9cnJSXxeDzTeNPCTQn3ziKeMtGgyw5IM106BXU+OQGQZsoMQZopozPzRJBmBMBBmhFAJElBR2nGMCw3N7e4uNhgMBTsbDMzMwwGw87O7t69e1lZWZ999pmtrS2bzbaxsfnwww+rq6t9fX1HRkacnZ2vXr3a0NDQ39/v4ODw2WeflZaWErI4NTVFZKirq5NKpdHR0V988UVGRgZxvbavr+8nP/lJbm5ua2urjY2Nk5NTW1ubq6trQEDAtWvXQkNDHRwcCgsLiYvfEokkNTX18uXLsbGxGxsbOI5LJJKAgICLFy8WFxd7eXnZ2NjU1dUNDAw4OjoyGIzg4GAHB4fV1dWMjIzLly9HRkYODw+/++67CQkJN27cOHPmTE5OTnh4uI2NTVZWFnH5WalUvvXWW0FBQX5+fmtra0VFRV988YWHh4dUKsVxXKfTOTo6Xr582d7efmBgoLm52cHBwdrauqqqKjw8PCgoyNXVtbm5ubW19fPPP3d2dubxeD09PU472+joKMmZckjDIM2HtDFQ1lMgANJMGSpIM2V0Zp4I0owAOEgzAogkKegozTiOj4yMsFislZWV69evT0xM+Pv7c7ncu3fvurm5RUVFsdnssrKyhISE1tbW3NzcwcHBa9euxcbGtrW1CQSCxsbG6urq5ubmoqIif39/g8FgNBorKys9PDzu3bvX2dlZW1t78eLF9vZ2JyenoaEhgtybb745PT19/fr1u3fvVlZW+vv7f/jhh+3t7VwuNyUlZWlpKSIiQi6XYxjW1taWkJCgVqs5HE5DQwOGYSKRyNvbe3R0NGFnu3fv3qVLl3x9fdva2ubn521sbC5cuPDlhWFfX9+CggLiGnNCQsLMzEz6zpaXlxcaGvrlR174+fmNjY3hOK5QKH7729/y+fzk5OSUlBQ7O7uNjQ0ul5uUlERIs7Ozc3l5eVNT08WLF5ubm9va2jIyMry8vBgMRnd398TEhI+Pz6effrq0tDQwMNDb2+vo6Njf39/c3Hzx4kWSM+WwhOfn5+VyuakakGYTCtixeAIgzZRbDNJMGZ2ZJ4I0IwAO0owAIkkKmkqzTCZLSEjIysqKiYnZ2Ni4fv16SEgIh8MJCQmJioqqqqqqra1NTEw0SbOtrW1UVNTExIRSqezv709LS0tMTAwLC3N1dTUYDBiGTU9PZ2VlMZnM1NTU7Ozs48ePc7lcPz+/yclJgtybb745PDx89erV5J0tISHh448/Xl9fz8vLq6urEwgEkZGRUqkUw7D6+vrMzEyDwZCXl/flRW5CmplM5ubmJnGVNyUlxdPT08fHZ3R0VCKRuLu7X7hwYWlp6c6dO8nJyfb29v39/fHx8VNTUzk5OdXV1ZmZmampqVKpNCQkpLe3l5DmV155Ra1W5+TkhIaGXr9+XaPR3L1718fHh5BmV1fX3t7e4eHhTz/9NCMjIz4+PjQ01MXFxcPDY2lpaXZ21tPT89NPP1WpVHw+v6+vz87ObnZ2dnx8/P333yc5Uw5LODw83NvbWyAQEDefgDQflsZAHU+fAEgzZcYgzZTRmXkiSDMC4CDNCCCSpKCpNGMYVlFRcebMmb6+PoPBUFlZ6efnFxUVlZGRERUVVV1d/YA0Ozs7V1VVhYSExMbGZmZmhoaGslis+Ph4e3t74kpzZ2dnYGBgREREcnLy5OSki4tLTExMeHi4QCAgyJ04caKgoIDL5YaFhUVHR+fn53/yySdCoTAvL+/evXsmacZxfG5uLjQ0NCkpKSgoaHx8HMdxkUgUFRUlEolaWloCAgKioqJYLFZRUVFwcHBcXNylS5cuXrw4Pz/PYrGYTObVq1cHBweZTGZ6enpWVlZNTc34+Lizs3NUVFRwcDBxv4dCoXjllVc0Gk1OTk5BQUFwcHB0dLSTk1N/f7/p9gxXV1cfH58bN24wmcykpKSIiAgHBwc3Nzc+nz87Oxu9s4WFhQUFBXV1dWVkZAQHB/v7+2dlZZGcKYcl7Onp+Z3vfMfDw2Nrawu+EfCwdAXqMAsBkGbKmEGaKaMz80SQZgTAQZoRQCRJQVNpxnF8e3ubx+PpdDocx/V6PY/HIy7crq+vS6VSmUwmFArlcrlIJFIqlXw+X6vVTk9Pj42NbW9vi8XiycnJubm5hYUF4oKlVqudmZkZHR0Vi8VGo3FtbW10dHRtbc30t3R8Pn9paUmhUExMTIyPj8tksrm5Ob1eLxKJZDKZTqdbX18nPgHDaDQKBIKhoaHV1VUiotfr19fX9Xq9Vqudm5sjjsLj8To6Otrb2/38/EZGRnQ63cbGxsjIyOLiol6vX1tbm5ubE4lEUqnUaDSurKyMjY1tbm4SbTQajVNTU8Q1bIlEIpVKR0dHFxYWiGcxDOPz+ffv35+entbpdJubm/fv319YWODvbIWFhffv3xcIBEqlcnx8nGCoVqtN40nOlMMS9vT0tLKy+s53vhMREaFSqeBK82FpDNTx9AmANFNmDNJMGZ2ZJ4I0IwAO0owAIkkK+kozyYLoESZufU5JSeFyuTU1Nbs/b+5pL4DuX6NNSLOVldXf//3f+/r6pqenf/mLx9OGduD5v/xzVV9fX9OvcAdeDxRwIARAmiljB2mmjM7ME0GaEQAHaUYAkSQFj8dzdnb29vZmwGZeAnZ2didPnjxx4oSdnZ05j/zSSy+dPXvWnEdEe6wXX3zR6i/bP/7jP/7xj39samoiObstJwzSbDm9fIKVgDRThgfSTBmdmSeCNCMADtKMACJJCrjSTALGYsMWc6X5yJEjP//5z93c3Nra2iy2W39ZGEjzX0h8rf8FaabcfpBmyujMPBGkGQFwkGYEEElSgDSTgLHYsGVI85EjR3772982NjaWlZV1dHRYbLf+sjCQ5r+Q+Fr/C9JMuf0gzZTRmXkiSDMC4CDNCCCSpABpJgFjsWELkOZvfOMb//3f/93Y2GgwGOAPAS32TIWF7SEA0rwHyX4DIM37JXXQ40CaEXQApBkBRJIUIM0kYCw2bAHS/NOf/rSpqYn460mQZos9U2FhewiANO9Bst8ASPN+SR30OJBmBB0AaUYAkSQFSDMJGIsN012as7Ky6uvrTZ83AtJssWcqLGwPAZDmPUj2GwBp3i+pgx4H0oygAyDNCCCSpABpJgFjsWG6S7NKpTIajab2gDSbUMCOxRMAaabcYpBmyujMPBGkGQFwkGYEEElSgDSTgLHYMN2l+YHGgDQ/AAQeWjABkGbKzQVppozOzBNBmhEAB2lGAJEkBUgzCRiLDYM007G18OkZdOwa8ppBmikjBWmmjM7ME0GaEQAHaUYAkSQFSDMJGIsNgzTTsbUgzXTsGvKaQZopIwVppozOzBNBmhEAB2lGAJEkBUgzCRiLDYM007G1IM107BrymkGaKSMFaaaMzswTQZoRAAdpRgCRJMVBSbNKpZJIJLuLkkqlD0R2P4twX6PRyGSyRyTEMEwul+v1+keMIXtKr9c/sAqpVLq1taVUKhUKBdmsvXEMwwQCwe6/eNs7hiyCYZhUKiWrH6SZjNthjoM0H+bumK02kGbKqEGaKaMz80SQZgTAQZoRQCRJ8WhplslkS0tL6+vrYrFYIBAsLy/LZDI+n7+0tKRSqcRiscFgUCqVUql0e3t7cXGRz+drNBocxzEMk0gkq6urGxsbW1tbCwsLYrHYaDRubm4uLi4KhcKhoaGKigqVSsXn85eXl7VabW5ubllZ2fb29srKyvr6+vb29tLSklAoNBVuMBhWV1dXVlZ0Op1YLF5dXV1eXt7a2lpeXjb5KOGLi4uLYrGYqGF+fn59fd1oNEql0oWFha2trdHR0dTU1MXFRYFAoNfr5XL54uLi1tYWhmHEsVZXV7Ozs9fX15eWlpaXl/V6PXFoPp+vVquJMRiGbW1tLS4uSqVSmUwmEonUavXm5ubGxgaxioWFhbW1NbVazeVys7Kyuru729raCJ6EVev1eqFQuLa2RpRBANzc3CTK0Gq1tra2s7OzxHo1Gs3y8vLS0pJGo5FIJGtra0QxarWaz+cTY/R6PbGvUqmKi4uHh4dN6HbvgDTvpkGXfZBmunTqqdYJ0kwZL0gzZXRmngjSjAA4SDMCiCQpHiHNer0+MTExOjr64sWLKSkp7u7uycnJHA4nOjra3d29tLQ0NTVVKBTeuXOnrKwsOzs7Pj4+PDy8oaHBaDTq9fr09HRfX9+ioqLo6OjY2Njg4ODBwcGoqCgWi+Xs7JySkpKYmNjY2BgWFubr69vW1hYQEBASEtLT02NjY5OXlxcTExMVFRUUFLS0tERYeENDQ1BQUGhoaFNTE5vNDgkJ8d3Z4uLiCgoKCNeUy+X+/v5MJpPFYm1sbERGRsbFxTEYjMnJSQ6HExMTExQUVFdX99lnnyUkJISEhIyMjISGhjKZzMTERJOgc7nc8vLyyspKYnx/f393d7evry+TyaysrCSu/i4tLYWGhsbFxXG53MbGxoCAgNLS0pycnIWFhcjIyMLCwri4OCaT2dvb6+zs7OrqWrSz3bp1y8HBoaurC8fx1dXV69ev5+TkxMXFDQ0NhYeHR0VFRUZGLiws4Diu0WhOnjwZvLO1tbVVVFQwmUxvb++ysrK0tDQmkxkdHV1WVlZcXBweHh4dHd3S0lJcXBwWFhYaGtrZ2Tk1NZWUlKTT6fa2HaR5L5PDHwFpPvw9MkOFIM2UIYM0U0Zn5okgzQiAgzQjgEiS4hHSPDo66ufnp1QqXVxcQkNDIyIiRCJRR0fHyMgIk8n08fHhcrldXV2Ojo6Dg4Pt7e0zMzM5OTmEq+n1eiaT2dbWVl9fHxQUNDs7GxQUZGtre/v2bbVaHRwcHBUVFRYWlpOTExIS0t7evry8nJ2dXV9fPzIyEhgYODQ0dObMGaVSWVFRERQUhOO4VCo9f/58fX19XV2dvb19VFRUbW1tUVFRQEDA6OhoWFgYcQ24o6PDzs5ue3t7YmJic3OztrZ2fHz8/PnzkZGRX8q6QqHo7+9vbGz09fWVyWSEfZ49e3ZycjIuLu7evXs4jut0urNnz66srCQlJSUmJnZ1dd2/f9/Nza2hoaGrqysgIECr1RoMhsLCQiaTOTExERoaOjY25ufnd+LEiZmZmYWFBQ8Pj4CAgOTk5K6uLqFQmJGRkZ+fX1FRkb2z3bhxg3DZpaWl69evSySS4uLiyMjIkydPKpXKoqIiDodjkuapqamBgQEvL6+enp6hoSE2m81gMFgsVktLy+joqJubm7Oz89ra2ubmZnt7+7lz52Qy2fDwsI+Pj1wuDw8PX19fJ1Zk+ioQHMdBmkleCoc6DNJ8qNtjruJAmimTBmmmjM7ME0GaEQAHaUYAkSTFI6R5aGgoMDBQoVB4enqGhoZyOByhUBgcHBwTE2Nra+vl5VVXVxcaGuro6CgQCIKCgpKSkvz8/GJiYnQ6nV6vj4qK4vF4dXV11tbWycnJ169f9/T0JKQ5LCwsOjo6LCysv78/PT2duPCclZVVXV09PDwcFxc3MTFhbW0tl8srKiq8vb1xHBeLxWfOnPHx8QkPDw8MDIyLi+vu7i4vL09ISLh///5uaXZ0dJTL5f39/YODg/b29ikpKe+++25YWFhycrJcLm9ra7t79y6LxdLr9bm5uaGhoa+99lpCQoKPj093dzeO4wqF4vjx43K5vLu7Ozs729XVlbg07uPjExsbGx4eTqwuPz/f2to6KSnJx8eHUGcbG5vR0dGFhQVfX9/m5ua8vDwGg1FZWZmenp6VlVVeXp6dnZ2fn19dXU204ssr6H5+fmq1uqKiIiws7OzZswqFoqioiMViEdJ86tQpHo/X39/v4uISHh7OZDIZDMbVq1dTU1P7+/unp6fd3d1dXFyIu1mIy+disXh4eNjNzW17e5vJZC4uLmIYVlNT09TUZLr5BKSZ5KVwqMMgzYe6PeYqDqSZMmmQZsrozDwRpBkBcJBmBBBJUjxCmpVKZUxMjI+PzzvvvBMZGcnlcjc3N4ODg8PCwjw8PFxcXObn58+ePTswMCCVSgMCAoibGeLi4rRarV6vj4+Pn5ubEwqFTCbT09PTz8+vq6srLCzMx8fn/PnzsbGxUVFRTU1Nrq6u165du3PnTlVVFYPBqKurY7FYSqUyISHB3d3d09NzamoKx3GDwVBTU+Ph4eHq6lpdXc1isXp7eysrK5OTk6enp6OioogrzWKx2N/f38PDg8ViTU5OXr16NTEx8bPPPktPT09MTPTw8AgNDW1oaOBwOHq9/saNG5WVlUFBQR4eHhEREaurq8SBbG1tp6amiMM5OjpWVVW1tLR4eHi4u7sXFxcbjUYMw2ZnZ4ODgz08PBITE7Ozs0NDQysrKyMjIycnJ4OCgoqLi93c3BgMRnt7e01NjZ2dXVpaWn5+fmFhYW1tLdEKPp8fHBysVqurqqqKi4tDQkLc3d39/f3v379PSPP58+cDAgJcXV3v3bsXGRkZFBTk6+t74cKF9PT0wcHBmZkZJpOZm5vr4eHh7+/f3t5+69YtNzc3d3f3hoYGqVQaERGxtbVlNBoDAwNffPHFqakpwptBmkleCoc6DNJ8qNtjruJAmimTBmmmjM7ME0GaEQAHaUYAkSTFI6RZJpPV19dLJBI7O7uBgQGSBPsNE6I5NDQkk8kiIyNnZmb2O9Ps4+7du5eamrr7lgazl/CkB+zo6MjPz8dx3Gg0+vj4WFlZvfDCC11dXQaDAaT5SeEexHyQ5oOgfuiOCdJMuSUgzZTRmXkiSDMC4CDNCCCSpHiENOt0uuzs7KSkJBaLRXwmBkmO/Yb5fH5GRkZycnJxcbFSqdzvNLOPUygU5eXlUqnU7EdGc0CdTldTU8Pn83dL85EjR/74xz+2tbWFhoaOjIygOdIhyAJfo30ImgAlmIkASDNl0CDNlNGZeSJIMwLgIM0IIJKk4PF4sbGxQ0NDfQ/biL/ka2tre9iTjx3r7e1taWmpr6/v6Oh47MnmndDR0dHT02PeYyI7Wm9vb3t7e29vb19fX29v76VLl6x2tm9+85svv/zysWPHQJpJXg2HNwxXmg9vb8xYGUgzZdggzZTRmXkiSDMC4CDNCCCSpODxeN7e3mw2OxY2SyQQExPzxhtvENJsZWX13e9+99e//jVIM8mr4fCGQZoPb2/MWBlIM2XYIM2U0Zl5IkgzAuAgzQggkqR4xO0ZJDMgTCcCpnuaraysnnnmmbi4OD8/P5BmOrVwp1aQZtq17GkUDNJMmSpIM2V0Zp4I0owAOEgzAogkKUCaScBYSNgkzd/73vfi4uKkUin8ISAdWwvSTMeuIa8ZpJkyUpBmyujMPBGkGQFwkGYEEElSgDSTgLGQMCHN3/72t3Nzc4k/vgRppmNrQZrp2DXkNYM0U0YK0kwZnZkngjQjAA7SjAAiSQqQZhIwFhLGMIzD4SQlJZk+QQ+kmY6tBWmmY9eQ1wzSTBkpSDNldGaeCNKMADhIMwKIJClAmknAWE54ZWVFLBab1gPSbEJBox2QZho16+mVCtJMmS1IM2V0Zp4I0owAOEgzAogkKUCaScBYTtj0BdrEkkCa6dhakGY6dg15zSDNlJGCNFNGZ+aJIM0IgIM0I4BIkgKkmQSMxYZBmunYWpBmOnYNec0gzZSRgjRTRmfmiSDNCICDNCOASJICpJkEjMWGQZrp2FqQZjp2DXnNIM2UkYI0U0Zn5okgzQiAgzQjgEiSAqSZBIzFhkGa6dhakGY6dg15zSDNlJGCNFNGZ+aJIM0IgJtfmg0Gg06nQ1A6eQqj0UgcRa/X7x2FYZher3/gbtS9w548AtL85AzplQGkmV79IqoFaaZj15DXDNJMGSlIM2V0Zp4I0owAuPmleWRkpKGhwfQpXQjWsCfF0tJSc3NzRUXF5OTknidxuVxeV1e3vb299ym0EZBmtDwPfzaQ5sPfo70VgjTvZfI1jIA0U246SDNldGaeCNKMAPhTlWatVpudnc3hcJqamjIyMiIjI3t7e93c3M6cOTMzM3P37t2QkJDa2tq5ubnQ0NCknS0nJ4fL5a6trfX19QUHBycmJm5tbeE4rtfri4uLU1JS7ty5U1BQEBQU1NLSwufzY3e2mZ2ttrZ2e3u7pKSkrq4uMDDw5MmTXl5e8/Pzubm5vr6+FRUVIpEoNzfX39+fwWCsrKwUFxdHRkb29PQYjUYEKPekAGneg8TCAyDNdGwwSDMdu4a8ZpBmykhBmimjM/NEkGYEwB+QZoVCgfC+BZVKdeLEiaKiotjYWDabPTo6GhISkp+fn5SU1NDQ4Ofnt7q6GhERkZWV9ec//7mvr+/ixYtTU1Pl5eXZ2dnXr19fWFiIiooqKSnBcVyj0djZ2WVnZxcWFsbFxa2vr/v6+vr4+DCZzM7OzoaGhqampoiIiK2tLVdX19u3bycnJ/v6+ra1tXV0dFRXV6+trTk7O4eFhUVGRvb399vZ2eXk5Pj5+Y2Pj9vZ2fF4PAQo96QAad6DxMIDIM10bDBIMx27hrxmkGbKSEGaKaMz80SQZgTAd0vz6uqqn5+fQqFAkHcnhUqlOnny5MTEhLe3t6+vb2xsrIeHR25ubmJiYlFRUUFBgVarzczMTEpK+uKLLwQCgbe3t1qtbmpq4nK50dHRLBbriy++yMvLM0kzj8fjcDiurq4sFsvT07OgoCA8PDw4OLimpqa5uTk8PHxzc5PBYJikubW1dWhoKCkpKSEh4fz589evX29sbBQIBNHR0X5+foWFhV/epOHn59fd3Y1qybvzgDTvpvF12AdppmOXQZrp2DXkNYM0U0YK0kwZnZkngjQjAG6SZplMZm9v/+yzzxK3QyBIjeOENC8sLBQUFERGRhYVFXG53LKyMk9Pz5qamqCgoPr6+oiIiBs3btjY2AiFQh8fH41G09TUFBkZ+cknn9TX17u7u3O5XJM08/n8+vr6yMjIqqqqhISEvLy8lJQUDofDZrNHRkZcXFwqKipOnz5NSDOTyUxKSkpPT+dwOA0NDZ9//nlCQkJiYmJNTY2zs3NxcTFxz4a7u/vi4iKS9T6QBKT5ASAW/xCkmY4tBmmmY9eQ1wzSTBkpSDNldGaeCNKMADghzXK5nMFgfPOb3/z2t7+NUJr1en11dbVCoVCpVDU1NTk5OZOTkwKBoLi4eGlpqbe3Nzs7u6+vb21traGhQalUdnZ2GgyG5eXlycnJe/fulZaW1tbWDgwM4DhuMBgaGxsVCoVGo2lpacnIyOjt7d3Y2CCuWC8sLGg0mtra2tu3b9fX1/N4vJGRkdnZ2cLCwsnJyYqKipqamvr6ej6f39TUVFxcXFdXJ5fLW1tb8/Pz79+/j/COlN0tAWneTePrsA/STMcugzTTsWvIawZppowUpJkyOjNPBGlGANzV1bWjo4PBYHzrW9+ysrJCK80I6qNzCpBmOnePSu0gzVSoHfQckOaD7sChOD5IM+U2gDRTRmfmiSDNCIA7OTmdOnXqO9/5jtXO9q1vfSstLa0ANhQE4uLikpKSEDQJUtCEAEgzTRr1V2WCNP8Vjq/rA5Bmyp0HaaaMzswTQZoRAGcwGMePH//bv/1bQpr/7u/+rqGhoQ82FARKSkpSUlIQNAlS0IQASDNNGvVXZYI0/xWOr+sDkGbKnQdppozOzBNBmhEAd3V17ezsvHLlCtyegYDmX6eA2zP+moflPwJppmOPQZrp2DXkNYM0U0YK0kwZnZkngjQjAO7q6rqwsLC4uGhnZ/etb30L7mlGwPQvKUCa/0Li6/IvSDMdOw3STMeuIa8ZpJkyUpBmyujMPBGkGQFw4tMzMAyTyWQODg7f//73EX56BoL66JwCpJnO3aNSO0gzFWoHPQek+aA7cCiOD9JMuQ0gzZTRmXkiSDMC4KbPacZxfHl52c7OTiaTIcgLKXAcpPnrdhaANNOx4yDNdOwa8ppBmikjBWmmjM7ME0GaEQDfLc0Yhn35tXwGgwFBXkgB0vz1OwdAmunYc5BmOnYNec0gzZSRgjRTRmfURHPjAAAgAElEQVTmiSDNCIDvlmYE6SDFLgJwpXkXjK/FLkgzHdsM0kzHriGvGaSZMlKQZsrozDwRpBkBcJBmBBBJUoA0k4Cx2DBIMx1bC9JMx64hr9loNN65c0cqlSLPbPEJQZrp0mKQZgSdAmlGAJEkBUgzCRiLDYM007G1IM107BrUfHgIgDQfnl48uhKQ5kfz2dezIM37wkRpEEgzJWw0ngTSTMfmgTTTsWtQ8+EhANJ8eHrx6EpAmh/NZ1/PgjTvCxOlQSDNlLDReBJIMx2bB9JMr6592S8Mw3Q6nVarpVC50WjcPQvDMGp5did56P4DB9o9xmg0ajSa3RFa74M006V9IM0IOgXSjAAiSQqQZhIwFhsGaaZja0GaD6RrOp1Oo9EYjUbCgNVqtWFnI+J6vZ4wS2IM8RQxcnR0tKamJj4+fnp62mg0arVatVqt1+uJVRARjUZjMBg0Go1Wq8UwzGAwqNVqrVa7vb1dVFRECLdarTYajYuLi7du3dJoNMRxDQaDVqslDkoUQGQgkmMYptnZiM+Y0ul0xKENBoOpbKJIoVBYWFgokUiIMQaDwVSYTqcbGBioqKgwGo2mwkwQTAs5kKZQOyhIMzVu5p8F0oyAOUgzAogkKUCaScBYbBikmY6tBWk2f9c2NzdTU1Pj4+NbWlrW19fT09Pj4+OrqqpqamqysrK4XG55eXlvb29sbCybzZ6cnOzs7Kyvr9/a2srMzLxz505kZOTRo0dTUlJGR0fT0tKio6OLi4uJC8YzMzPx8fFcLre6ujoxMZHFYs3MzDQ2NibsbMXFxf7+/hsbG1wuNzo6um5nO3v27OjoKJvNTk5Orq2tTU5OTkxM7Ovr6+npiYuL43A4a2trBCKBQODp6ZmcnFxUVCQQCPLz8+Pi4m7dutXa2pqWlpaRkXH79u35+XkOhxMREWFnZ7e0tJSTkxMXF1deXj46OhoXF5eRkZGenp6UlHT58uWlpaXa2tr4+Hg2m33//v28vLy4uLiKigqVSmX+jjzJEUGan4SeOeeCNCOgDdKMACJJCpBmEjAWG7ZsadbpdGKx2PKaB9Js/p7m5OSw2eyZmZny8vKioqKsrCyhUMhgMJycnHJzcwUCgb+/v7u7e2ho6ODg4Ozs7O3bt9PT01dWVpydnYuKijIyMq5cuTI6Otrf3z82NjY1NeXh4bG+vo7jeFdXl5+f38LCgqen59DQUHFxsaurK5PJ5PF46enpISEhFy5c6Onpsbe37+7ubmhomJiYiI2N3dracnR0bGhocHFxqa+v7+npcXJyCg0NZbPZbW1tS0tLBKK5ubnLly8vLCw4ODgwmczk5OTNzc2AgABvb+/o6GiRSBQWFhYREREdHT0yMuLs7FxSUuLn57e4uOjs7JySkhIUFCSRSBwcHBITE7lc7sLCQmBg4OLiIofD8fDwcHV1HR4e7u7u3t7eNn9HnuSIIM1PQs+cc0GaEdAGaUYAkSQFSDMJGIsNW6o0YxgmEolCQkKSk5Mtr3kgzebvKZPJLCkp2d7enp6e5nK5NTU1er0+ODj44sWLXV1dcrmcyWQSV5RtbW0rKipKSkpSU1MXFhZsbW2LiooyMzOvXr06MjLS0NDg6+vr4eFx+fLllZUVQpozMzNXVlZOnDhx7dq1q1evXrlyJSYmRiQS1dfXx8XFXbhwYW1tjcPhODg4uLu7j4+Px8fHi8Vib2/v8fFxBoNx//59Pp9/4cKFrq6uwMBAGxub9vZ2DMNwHJ+bm/P19d3e3vb397906dInn3zypaxfuXLFw8OjtLRUqVTGxMR4eHiUlJQIBAImkxkTE/PGG2+4urqeO3eOzWanpaUZjUYfH5+YmJj09PShoaFjx45dv379888/j42NzcnJYTAYgYGBhP2bvymUjwjSTBmdmSeCNCMADtKMACJJCpBmEjAWG7ZUad7c3PT39/+Hf/gHJpNpec0DaTZ/Tzs7OwMDA1NSUjIzM1taWkJCQrKzs/39/QMCAghpjoiISE9PT0xMDAsLKygo6Ovr8/DwYLPZ586dI6TZ398/Pj4+Li4uOTm5pKTk2rVri4uLhDRnZWUplUo2m83hcIhbI9hsNpfL9fLyCg0NvXDhAnELB4vFOn369PT0tLu7e39/v4+Pz+LiYnZ2dlRUVGJiYlxcXFlZWVJSkru7e1lZmUma33///fT0dF9f37t370ZGRubm5iYkJHA4nLKyMqVSGRcXV1BQEBYWlpOTY29v39HR4ePjk5mZmZCQUFlZyeVyv7yH29fXl8PhENeV4+LiMjMzmUxmVVUVQcPb25tYiPmbQvmIIM2U0Zl5IkgzAuAgzQggkqQAaSYBY7Fhi5RmnU4XHBz8T//0T1ZWViDNFnvumndher1+fn5+ampKIpFoNJq5ubnx8fGNjY319XW5XG4wGFZXVzc3NycnJ+/fvy+TybRa7czMzPT09NzcnEgk2tjYEAqF9+/fFwgEPB5vfn5+bm5OrVbjOC6Xy4VCIYZhEolkamcTiUQDAwNDQ0NZWVkZGRlTU1M6nY444tramlar5fF4m5ubCwsLd+7cWV9fn5mZmZqakkqlEolkYmJienradJPx3Nycvb39+Pj4lzc363S6paWlsbGxxcXFjY2Nra0to9G4tramUCgWFxenp6d5PJ5Go1laWhofH19ZWZHJZEKhEMdxPp+/ublJrEsoFBKHkMvli4uLY2NjKysrxF8ZmrchT3Q0kOYnwmfGySDNCGCDNCOASJICpJkEjMWGLU+a79y5ExER8e1vf9tqZwNptthz13IXplAoMjMz09LSIiIiBgcHiWvGe5e7n6/R5vP5sbGxtJPavYtFGwFpRsvz6WUDaUbAFqQZAUSSFCDNJGAsNmxh0lxaWvrhhx8S15gJaT5+/Hi6xW1cLve9997jcrkWtzJY0P8R4HK5kZGRDAbDz8+Pw+GQQUlLSzt9+nRsbCzZgPT09OTk5ODgYDhVHkD0m9/8JiUl5YGgRT50c3NzdHSk6dLu3bt34cIFWv/0tToM1YM0P70ugDQ/PbaHM7OFSXNFRYWzs/Ozzz5LGLOVlZWHh8e8xW3E/7nPzc1Z3MpgQY9BYHZ2NiAgoK+v7zHmwNAdAn/+859nZma+DjBu3bqVmZlJ05UKBIKLFy8ezh+d+6wKpHmfoOg6DKSZrp2jWreFSXNVVVVTU1NpaekPf/jDI0eOwD3NVM8LmEcDAvu5PYMGyziIEuH2jIOgTuWYcHsGFWoPzIErzQ8AQfgQpBkhTFqksjxp7ujoMBgMN27c+PnPf37kyBG4p5kW5yEUSYEASDMFaMQUkGbK6Mw8EaQZAXCQZgQQSVKANJOAsdiwRUozjuNKpbKgoOD73/8+SLPFnrtf+4WBNFM+BUCaKaMz80SQZgTAQZoRQCRJAdJMAsZiw5YqzTiOGwyGkpKSzMxMy2sefE6z5fWUwopAmilAI6aANFNGZ+aJIM0IgIM0I4BIkgKkmQSMxYYtWJoJb6bdF/zu51QDad4PJYsfA9JMucUgzZTRmXkiSDMC4CDNCCCSpABpJgFjsWHLlmZLbRtIs6V29rHWBdL8WLh2DwZp3k3jMO+DNCPoDkgzAogkKUCaScBYbBikmY6tBWmmY9eQ12w0GmtqaqRSKfLMFp8QpJkuLQZpRtApkGYEEElSgDSTgLHYMEgzHVsL0kzHrj2NmnU6Hdn3BT6Nw1lMTpBmurQSpBlBp0CaEUAkSQHSTALGYsMgzXRsLUgzHbsGNR8eAiDNh6cXj64EpPnRfPb1LEjzvjBRGgTSTAkbjSeBNNOxeSDNdOwa1PxoAhiGqVQqo9H46GFIngVpRoLRDElAmhFABmlGAJEkBUgzCRiLDYM007G1IM107BramrVabWxsrLOzs0gk2tra2tzc1Ol029vbm5ubCoVCLpdvbGyoVCoMw6RSqUAgkMvlRAFGo1EkEonFYrVavbGxIRKJ9Hq9RCLZ2toSiUQGg4GYq1QqJRLJxsaGRqMxGo0SiUQoFGq1WmJfIBCo1WqdTicUCokMOp1uY2Nja2tLr9cbDAaxWCwQCJRKpUqlEovFQqFQJpNtbm7K5XIMw7a3t4mSNBqNVCrd3NyUyWQ8Hs/W1nZjY0OtVguFQolEYjAY0EIzZQNpNqE45DsgzQgaBNKMACJJCpBmEjAWGwZppmNrQZrp2DW0NW9sbFhbW2dlZbW3tyclJXE4nIaGhpKSkpCQkJqaGhaLlZqaWlZWJhaLWSwWl8uNj48nvFkulzMYjIKCgps3byYmJqakpPT39zOZzMTExKSkpN7e3szMzJiYmJqamuTk5NTU1PLy8tnZ2eTk5JSUlNLS0qmpqZSUlMzMzKKiotra2rS0tNTU1MHBwdbWVuKgY2Njc3NzbDabw+Gkp6eXl5ezWKyMjIyIiIi8vDwmkykUCvPy8jIzM1NTU5ubmyMiIoqLi3Nycm7evPmnP/2pr6+vpKQkIyMjPT19YmLiKd2xDdKM9mx8etlAmhGwBWlGAJEkBUgzCRiLDYM007G1e6XZuLPRcS1QMzUCRqMxNDS0sbHRzc2tt7d3bGzM3t6exWIRPspms9fX14eHh7e2tu7du9fc3PzJJ59MT0/jOL61tfXRRx+Njo6eP3++p6entLQ0JCTk4sWL7e3tHR0dly9fjoiIqK2tDQ0NLS0tnZ2dZTAY0dHRhYWFQqGws7MzOTk5Nzd3eHjY29vbwcEhICCgpaWFz+ez2WxXV9empiaBQLCystLS0lJZWXnmzJmIiIhbt24JhcKrV6+ura299957N27ciIyMHB4eZjKZvr6+ISEhGxsbSUlJd+7cOXfuXG9vb1hYmFgsrqury8nJ0ev11Pg8ehZI86P5HJ5nQZoR9AKkGQFEkhQgzSRgLDYM0kzH1j4gzVqttri4eG5ujo5rgZopE2Aymc3NzQwGY3JycnFx8cKFC8nJybW1tVwu98aNG2q1em5urq+vz9bWNjw8/K233pqYmCCk+dSpU8vLy8eOHfP39/fx8UlISPj8888nJiZGRkbOnDkTFxc3MDAQGBhYW1srEAhsbW0DAwMrKiq2t7c7Ozu/dFwbG5uwsDB/f//q6moul2tnZ3fjxo2RkZHU1FQ7O7ubN29WV1czGIzg4OCPPvooPDy8ublZo9EwGAy1Wv3BBx9wOBxra+uQkBA3N7fIyEg2m61UKlNTU6uqqs6fP9/V1RUeHq7Vatva2tLS0nQ6HWU+j5gI0vwIOIfqKZBmBO0AaUYAkSQFSDMJGIsNgzTTsbW7pVkqlSYmJv7ud7/r7u6m41qgZsoEWCzWwMBAcXFxVFRUfHx8xs7W3Nzc19fn7u6elJSUlZXV0tLi4eFx+/bt06dPj4yM4DguFosvX76sVqszMzOTdra6urrPPvssNDSUyWRWVFRwOJzx8fHW1tawsDAWi5WYmNjV1RUREcHhcHJycpqbm+Pi4jIzM7lc7q1bt5KTkyMiIsrKyqqrq2NjY8PCwu7cuVNaWhoeHp6fn29tbR0VFdXe3v7lzdA+Pj5fevzZs2c7OzuJGzbi4+Nv3ryZmZmpUqlycnKampqsra3r6uqSk5PT0tLi4+NbWlqe0t8FgjRTPuvMPBGkGQFwkGYEEElSgDSTgLHYMEgzHVtrkmaZTBYeHv7P//zP//Zv/wbSTMdWPknNIpGorq5OJBKtrq4uLy+rVCqJRKJUKvV6/djYmKenJ4/H0+l0Kysr6+vra2trKpWK+G75tbU1DMPUajWfz19eXpbJZBcvXuzo6FhdXdXpdGKxWKPR6PX69fV1Pp+vUCj0er1AIODz+UqlUqfTra+vLywsEMdaWloiDq1SqYhsarVapVKZDrq5ualUKjEMEwqFGIatrKxotdqtra3FxUWBQKBQKCQSidFolEqlSqVyeXlZIpHIZLLFxcX19fWndJkZx3GQ5ic58cw5F6QZAW2QZgQQSVKANJOAsdgwSDMdW0tIs1qtTktL+973vmdlZQXSTMc+PmHNj/ga7Z6enrCwsLW1tf0cQqfTubq6zs/P72ewZYwBaaZLH0GaEXQKpBkBRJIUIM0kYCw2DNJMx9ZiGObs7BwTE/PMM89Y7WzPPvtsfn7+KGxfJwLDw8Oenp4tLS17Fz0wMNDb2zsyMrL3qYdGenp6hoeHH/qURQZff/31wcFBi1zaA4vKyspis9kPBOnycHFx8eLFizidN6vDUDxI89PrAkjz02N7ODODNB/Ovjy6KgzDrly58uqrrx45coSQ5i+vN/v7++fC9nUikJ2dbW1tnZSU9HVaNJq1/va3v83MzEST63Bn8fb2dnFxOdw1klbX1NR04cKFR78ZHvJnQZoPeYOetDyQ5iclSLf5IM1069j/1YthmI+Pz8zMzB/+8IdvfOMbcHsGHZv45DU/4vaMJ09u2Rng9gy69Bduz0DQKbjSjAAiSQqQZhIwFhsGaaZja01/CNjd3f3yyy//zd/8DdzTTMc+PmHNIM2UAYI0U0Zn5okgzQiAgzQjgEiSAqSZBIzFhkGa6dhakzTrdLqOjo4//vGPIM107OMT1gzSTBkgSDNldGaeCNKMADhIMwKIJClAmknAWGwYpJmOrTVJM1H80tLSBx980NPTQ8e1QM2UCYA0U0YH0kwZnZkngjQjAA7SjAAiSQqQZhIwFhsGaaZjax+QZhzHZ2ZmRCIRHdcCNVMmANJMGR1IM2V0Zp4I0owAOEgzAogkKUCaScBYbBikmY6t3SvNX0YwDKPjWqBmygRAmimjA2mmjM7ME7+O0lxeXn7hwoXP0G2//OUvjx8/ji7f/2U6wP/ZLC0tRcvnSch8/PHHL7300pNkQDvX2dlZKpWa+VV6yA+3vLyMEPJ//ud/vv/++wgTVlZW7gZYXl6OMPlXpnrjjTfeeeedrxyGcEBdXd3u9d68eRNhcrJU58+f//Wvf33+/HmyAQjjSUlJGo1m9xq/hvt37txBiBRVKmtr6//6r//69NNPUSVEmCcmJkYmk+3nVCkqKkJ43H2meu6556ytrfc5GNUwV1fX3UCIDyFGlZwsz9tvv/3GG2+QPYsq7uLisntpq6urXl5eSJK/8MILT57H29t7ZWVld4Vm26fykXNBQUHr6+viQ7wVFRU1NTWZDeIDB2KxWJOTk4cYz0GW5uLiss8vtXqAqgU/HBkZ8ff3P8iukB97YWEhJCRkN/zAwMD+/n7yGfR+pqOjIz4+fvd6r1+/vrKyQu9V7ap+ZmaGw+EoFIrda/wa7gcFBa2uru4CA7uPIsDn81NTU4VC4X5OFTc3Nx6P96h0lvLchx9+uBvIwMBAUFCQZSzu1KlTu5c2MTHB5XIPydJEIlF2dvbY2NjuCs22T1Ga1Wq12UqkcKCamprm5mYKE5FMSU5OPqjfgZDU/1STeHl5gTQ/QHhkZCQ8PPyB4CF5KJFI9krzzMzMISkPeRmjo6N7pXl7exv5gQ4qoVAoTE9PB2kOCgpSKpUH1QXaHVcmk2VmZu5fmjc2Nmi3RgoFHzt2bPesgYGBqKio3RH67p87d2538RMTE3l5ebsjB7hvNBpv3boF0oyyBSDNKGkizQXSvBcnSPNeJgcVAWk+KPJmPi5I82MBB2l+KC6Q5odiedpBkGb0hEGa0TNFlBGkeS9IkOa9TA4qAtJ8UOTNfFyQ5scCDtL8UFwgzQ/F8rSDIM3oCYM0o2eKKCNI816QIM17mRxUBKT5oMib+bggzY8FHKT5obhAmh+K5WkHQZrREwZpRs8UUUaQ5r0gQZr3MjmoCEjzQZE383FBmh8LOEjzQ3GBND8Uy9MOgjSjJwzSjJ4poowgzXtBgjTvZXJQEZDmgyJv5uOCND8WcJDmh+ICaX4olqcdBGlGTxikGT1TRBlBmveCBGney+SgIiDNB0XezMcFaX4s4CDND8UF0vxQLE87CNKMnjBIM3qmiDKCNO8FCdK8l8lBRUCaD4q8mY8L0vxYwEGaH4oLpPmhWJ52EKQZPWGQZvRMEWUEad4LEqR5L5ODioA0HxR5Mx8XpPmxgIM0PxQXSPNDsTztIEgzesIgzeiZIsoI0rwXJEjzXiYHFQFpPijyZj4uSPNjAQdpfigukOaHYnnaQcuUZgzDlErl6uoqn88XiUQYhuE4LpPJxGKxVqvd3Nw0GAz7JKvVavc/mMhJC2lWqVTLy8uP/laqra0tpVK5vb29sbHxuBD24tXr9evr6waDQSwWH9SXnIE07+3LPqVZr9cLBIKlpSWBQKDVavfmeWhEo9FsbGwQL8CHDnh0kMI3AiqVyuXl5cWdbXl5WSaTUT76o2v7ymdlMhnxVrO5uanT6b5yPI7j1KRZq9U+0BritSaXy00HlcvlEokE29kkEgmfz38AjlarFQqFRqPRYDCIRCI+n7+ysrL7/QHDMIlEsryzPUBVo9Gsrq4uLS1tbGzo9XrTQffuwDcCEkz2I806nU4oFC4tLa2vr1P7Ely9Xv+VHdndIwzDpFIp0WK5XI72hUOcpYadbf9vIER5T0Oa1Wr1A2f4bhQ4jhsMhs3NTa1Wu729zefzibcUPp+/tbWFhIzBYNjY2NjnO8MDtREPH1eaxWIx8SaA4zjxmjX9IFYqlQKBYO9PeZ1OJxAIjEajqQCj0bi1taVSqUyRfe4YjUaC537GP+43AhoMBoFAoNFovjK5VqvdvRzTeKVSuba2tp/OWqY0LywsODg4/Pu///vzzz//2muv1dfXGwyG2NhYNze34eFha2vr5eVlE6xH7EgkEhaL9bjfSn34pRnDsBs3bjz77LOZmZkPPYGIt4xr166VlZUVFhZ+9NFHAoHgEaD28xSPx3v55ZeFQqGLi8vNmzf3MwX5GJDmvUj3I81SqZTNZv/617/+yU9+8qtf/So6Olomk+1NtTfS3t7+wQcf7HavvWMeEaEgzWVlZc8///yzzz77gx/84Ec/+tGHH354IN93ajQaExMTz58/v7KycurUqcnJyUcs0/QUBWlWq9VsNvsXv/jFs88++6tf/SoyMtJoNC4tLb300ktOTk6mn21sNtvb21uj0QwPD3/00Uc//OEP//Vf//XMmTPj4+PE0VtbW62trbe2tu7evfvyyy8/88wzP/7xj69du2Z6q+zs7Hz33Xd/9rOfvfDCCydOnBgaGiImbm1t+fv7E8x/97vfZWZmPsLwQJoJaF8pzXq9Picn5ze/+c2zzz77H//xHwEBAXuFxnTakO3Mzs6ePHlycXGRbMAD8e7u7mPHjr3wwgs//elPra2tp6enHxjwJA/7+vr+93//d2Fh4datWw0NDY+VCrk0YxhWUlLy3HPPZWZmknnSxsbGyZMnh4aGCgsLn3vuOeIt5Yc//OFrr71metU81ioeGLyxsfHpp5+Ojo4+EN//w8eV5tDQUGdnZ+JL7BsbG3/84x+z2Wxi+VlZWR9//PHerx+fnp5+6623JBKJqSqpVGpjY1NRUWGK7HNHJBJZW1v39vbuZ/zjSvPa2trrr7/e3d396OSbm5uJiYl7l4njeElJyYsvvmh6w3xEHguUZolEYmtra2dn19PTMzw8HBMT8/vf/76zszMmJsbV1VUsFg8ODqpUKgzD1Gq1XC5XKpWEOKrVapVKpVQq5XI58etIb2/vyy+/PD4+bjQa944nw3r4pVkikVy7du3zzz8/e/YscQIZjUaVSqVWq2UyGQEHw7DR0dH19fXCwsIPP/zwAWk2Go3b29tyuVyj0RCvOgzDVCqVXC43nXYGg4EYQyTk8XgvvfTS1tbWxMTEysqKSqWS/mWTy+V6vR7DMI1GI9/ZTJciDAaDYmcjrmDtHmP6HV2v1xNjTBGy1oA07yXzldKsVCqZTOY777xz7969sbGx27dvv/rqqykpKcadbXt7WyaTmV5EppcJ0fS2trb33ntPIpEQL7S9pwrZTyyiTmrSfOzYsd7e3rGxsfb29qtXr7733nt8Pn97e9ukHSqVSqPRqFQqnU63++zCcZyIECc2juN6vZ54XcjlcrVaTZzSu1PpdDq5XK5QKExXWImzUS6Xx8bGWltbr6ysnDx5cmRkZPdbzd4uEBEK0tze3v7+++8XFRUNDw/fuHHjpZdeqq2tXVxc/MMf/vCjH/2ovLyceHNjs9leXl4ikejSpUsuLi59fX1dXV02NjZ2dnY4jmMYFh8fz2Kx5ubmPvnkk6ioqKGhoebm5vfee8/d3V0ul7e0tLz66qvR0dGDO5u/v/+xY8d4PJ5Op8vIyHj11Vfr6+uHhoZSU1NfeeWVlpYWsgWCNBNkvlKax8bG3n///ezs7JGRkeLi4jfeeKO8vJzoFPE2q1arif83UKvVxNumUqkkXnQ4jhuNRoVCIZPJ+vv7iaBpDHE+EG/Xpnd7HMeHhobeffddJpM5PDzc3d1ta2t75swZrVZress1nfZarVaj0RA/KE3X9rRa7e4XglarNf3upNFotFptb2/vm2++OTg4ePz48bS0NOId/oGXG9lpg1yaFQrF5cuXT5w4YWNjIxaLiYtESqWSeDmbiPX390ul0oKCgpMnT3Z1dY2Pj3d3d1tbW3/88cdyuZx4NzC9+xFItVqtQqHQ6XQmbkqlkniXMxqNBDSidxqNpq+vj5ANlUqlUCiIH51731LIsDyuNHd2dh4/fpy4npqYmPjyyy9bW1srFAqDwfDZZ5/5+Pjo9XrTT22iQdPT02+++ebm5qbpDVwqlV69erWsrGx7e5tYKVHe3p/CD6xXJBKdO3eOkGb1zka2LhzHKUjza6+91tbWJpfLt7e3iZOcuKBOGIVOpzMYDI2Nja+//vrs7Czx2jEZC4ZhxcXFv/vd74gfVabX0UMrtEBprqioeP/992dmZogFq9XqmJiYrq6u6OhoV1fX+fn5uLg4kUi0uLgYGRnJYDA8PT37+vqMRmN2dnZAQAAxLDU1dWlpKTAw8LnnngsPDxeLxabxHh4exPiHAsVx/PBL88jIyIkTJ9rb29966+P0qXMAACAASURBVK3W1lYMw0QiUWhoaFRUlJubW1BQ0PT0tNFoTElJ6e7u3ivNBoOhubnZzc3NyckpKiqKz+cbjUYejxcSEuLs7Ozj4zM7O6vVam/fvu3h4cFgMLy9vaenpwlp3tzczMzMbGxsvHnzJmNnu3bt2oULFwYHB5eXl2NjY7/8xcbe3p7D4RBOU1hY6Lqz5eXlbW9vLywsEA1ydHTMy8sjfu25devWl79AOzs7c7lc0zv1Q7sD0rwXy1dK89zc3HvvvVdXV0e89RsMhtra2uLiYpVKVV9f7+Hhcf36dRcXl+HhYYPBMDc3R1zP8PX1nZ6ebmtre+211+Lj4x0dHT08PHg8HoZhc3Nz/v7+Tk5OAQEBw8PDpje4vbVRk+bz588TV1NwHN/Y2Hj11VeTk5P9/f2J6xAKhSI4OLiysjIhISEnJyc4ONjNza2srIy4cSstLc3d3d3R0TE2NlYul4+NjQUGBiYmJnp6ejKZzDt37gQHB3t6enZ0dGAYJhaLs7OzGQyGs7NzQUEBIRMVFRVOTk6+vr6nT58+e/bsysrKxx9/HBQU5Orq6uPj09/f/4jfEyhIc0lJyalTpwiwWq22pKSkoaFhcXHx3XffvXr16rFjxxYWFnAcJ6R5eXn5/fffz8jIIGTo/v37WVlZOI6rVCoHB4ehoaHR0dEPPvigoaHBYDBgGDY8PJyVlbW8vHzu3DlnZ2fTr7ISieT8+fNeXl5SqTQkJOTcuXPE/1lrNJpbt2719/fvbSURAWkmOHylNDc2Nn700Uejo6MYhul0uurq6rt37xId8fHxYTAY4eHhPB5PqVSy2ezo6GgHB4ekpKTIyEhCARcWFuzt7fv7+6OiojY2/n975/nVVpLn/ec/2Bdz5kXPObNzZnc92+t2Y6/b7bYN2NgGk8HkYHIyOVsmiowIQoAEiCzAiGwyAgRC5CyQwUSThEUQILLJkh4d1/PcowMOYwZj2l33BedSqlvhW3XrfupXv7p3icPhxMTEuLu7+/r6tre3HxwcvHr1KiAgwMXFxcvLa3h4+ODg4OnTp1ZWVuByPp//5s2bmJiY9fX12dlZLBYLHpR0Op3H41GpVBwOFx4e7uXllZCQwOVyNzY2UlNTUSgUuJV2d3erqqqSkpLANDUvL6+6urqzs1NGRiYjI0NMTExDQ6Orq2ttbS0pKQncbqGhocvLyx/rNmcOzQMDA/fv3y8vL9fR0enq6hIIBMLbxM/PLy0tzcPDIygo6M2bN+vr61gsdnJyMjc319raen19HRSPTCbfuHFjYmKCRqN5eXm5u7t7enr29fWtra1FR0fj8XhXV9eOjg4WixUREeHm5ubt7T04OMjj8bq6up4/f+7q6hoZGfn27dv19fXIyMiZmZmSkhJ/f383N7f09HQul0sikVxcXNzc3AoLC5E77oPKfCk0z83N6erqvnr1am9vz9HRMTw8/MaNGzMzMwsLC5KSknV1dYeHh7W1tc+ePXNzc4uLi1tbWxsbG5OWlk5ISEChUGg0emBgYG1tzcbGBo1Ge3h42Nvb5+XlgflYfn4+eAqDtabDw8Pm5mYAABEREcBRFkAzl8vFYrEUCuUTI/8poFlcXPzZ+wOFQoHHytzcHDCVOjk5ZWRkTE9Pu7m5/f3vf4+Li9va2nr9+nVQUJCbm1tgYOD09PTLly9//PFHLBbr6Ojo4+MDhs0Pyv4dQnNAQIC5ublobzt8fwAgYzKZRkZG09PTrq6uT58+bWhoIBAI+vr6b9++RaFQEhISFAqltrZWXl6eSqVSKJSbN282NTVtb287OTlZW1vTaLS4uDgQ/4OC/i6gOTc3F8yw7e3tsVjs0dERm83+7bffXFxcOjs7nz9/7u7uLnRttLe3Lykpyc3NPWZpZjKZEhISiYmJTU1Nurq6Xl5es7OzOjo6zs7Ozc3Njo6O9vb2NBpNXFy8qKiIRqPp6Oi4ubkBaOZwOO7u7rm5uTMzMwwGo6enx9raWl5efmpqysPDw9jYmE6n5+bmXr9+vaurq7Gx8eeff87Ozi4oKLhx40Z5ebm/v7+9vX17ezuZTL516xaDwaioqJCVlX358mVpaamMjAyJRPpYuwgNhxCaT4rzWWju7e2Vl5dHlumBHevo6GhgYEBMTCw3N7etrc3MzMzR0XF2dtbMzMza2lp4y7i7uxsbG1dUVPz444/u7u5lZWWampr29vZra2tOTk4ODg6NjY0YDEZNTe2Di2WgnP86NAsEAgsLi6CgIGBhPTw8FBrLr1y50traamhoqKys3N3dnZmZKS4uPjQ0lJmZqaenR6fTy8vLpaSkKisrGxoarl+/npiYWFdXJyMjo6Cg0NnZicFgjI2N19fXX7x4oaCgUF1dXVBQICUlVVJS0t/fr6ysTCaTy8rK7t69q6+vz2az5eTkdHR0GhoaAgICNDQ0PjGvOwU0T09Pq6ioSElJAZQHJv+ZmRk1NbWWlhYzMzMcDnd0dASgeXt7G4vFXr9+3czMLCsri8PhAAP5xMSEvb393t4el8sVOmVdu3bNwcGhuLgYWNCnp6evXbvW0tKCdB7gfCItLb20tNTS0nLlyhUlJaXQ0NDBwcHDw8NPPAshNAMNPwvNYO1eQkLC3d29sbERmANXVlbMzc19fHzodLqHh4epqen6+rqpqam6ujqVSm1qalJRUQEzlvT0dFVV1devX+vq6s7MzMTGxhoZGTU0NERFRZmbm/f19SkoKPj6+jY1NQmnsk+ePGGxWJcuXUpNTUVWY/h8Plhm8fPzs7W1bW1tJRAI8vLybDY7OTn5zp079fX1jY2NWlpa5eXl3d3d2tratbW1+fn52traY2NjwkVwW1tb0LsCAgKIRGJnZ6esrGxzc7OCgkJYWBiXy83KypKWlq6pqamoqLh58+YnfPbOHJoTExMNDQ05HI6DgwOBQACzkV9++cXR0bGpqcnV1VVbW5vNZuvq6vb19YlCM1jHlpaWZjAYqqqq2dnZzc3N9vb2T548mZub09LS0tbWrqurGx0ddXFxMTAwaGxsRKPRqqqqAwMDWlpaISEhNBrN0dHR3Nycw+Ho6OgMDAyEhYVJSkrm5eUxGIyMjAxVVdXGxsaCggIZGZmamhrkpjt58qXQvLm56ejoWFVVxWKxTE1N6XT6w4cPKRRKe3v7jRs3Njc3wVwiLi6upqZGV1c3ODh4bGxMUlJST0+PRqN5enoqKyvPzMzY2NjcuHGjtLQUj8dLSEgMDAwI+4CCgkJ5eXlpaamsrGx2dvabN280NDTweDyNRjM3N3dwcACW5qampoCAAEtLy097vZ4Cmq9evWpoaAgeK0ZGRouLi25ublZWVo2NjTk5OdLS0p2dnfn5+Xfu3Onu7ga+N97e3s3NzdbW1l5eXi9evPi3f/s3f3//4uJiKSmp4ODgj41j3yE0e3p6Pn36VLTCR+8PUWhmMpl//etf8Xh8Y2NjbW2tiopKTU0NCoVycXEBTx1TU9Pc3Fwmk/ngwYPJycnFxcW//vWvcXFxjY2NdXV1ysrKn+jNF9zSzOfznz59GhwczGKx4uLitLS0OBwOm83W0tICAy6DwQCD4weh+fDwEIfDKSgoAF+I7u5uLS2toqKiv/3tb8Bxc319vaWlhcViUanU4eHhlpYWe3t7JSUlUWjOy8sDSyeANl6/fs3n84Xrdx0dHQwGo66u7vr16y9fvnR2dnZwcODxeIeHh52dnePj4319fUwmk8FgVFdXX7lypaKiAo1Gh4SEgNWWlJSUBw8ecLnck+MLCIHQfFKZz0Jzd3e3nJycqH8On8/n8XgrKysVFRXDw8NtbW1CYNLQ0GhsbBQTExsaGhIIBOvr6w0NDVQq9dGjR7Ozs3w+PzU19ebNm69evZKUlCwrK2tqaiooKPj5558bGhpOlgqEnAk0Ozo6BgYGUqlUcXHx4eHhuLg4ExMTFotlYGBQVFQkEAiWl5cvX77c1NQ0Pj7e2dn56tUr8DiJi4traGhQU1MToiSXyzUzM0tNTRUIBDQaTVFRcXx83NHRMTk5GfQ94QNGT08vPj7exsaGx+Pt7++HhoYaGRmx2Wxtbe3m5maBQDA6Onrr1q1PeDGeApr5fP78/HxSUpKJiYmUlJSiomJfXx+A5r6+vtbWVkVFxa6uLgDNe+8POp3u4uKioqJy9+7dqKioo6Oj6urqqKgoUJHNzc3Kykpra2s5OTkJCQmhs+Pg4ODPP//MYDCQZuLz+SQSSVxcHOwdZLPZkZGRT548ERcX19PT+4QTOYRmoOFnoVkgEHA4HBKJZGZmdv/+fTk5OaGltq2t7eHDh+DeSUtL+8///M/R0VFjY+Pi4mKwXIBGo11dXblcroWFRWVl5cTEhK6u7ujoqJycnHCo5PP5m5ubPT09RUVF165dm52dFQgEW1tbysrKtbW1P/zwQ3Z2NrIMwufzgTEFODuB28TAwCAzMzMpKcnd3X1vb0/oXAFMkn19fcrKymlpaWCU3t/f/xg0DwwM6OrqvnjxQiAQjI+PC+8vcLvJyMhERkYiHezYydlCM7iXIyMjWSxWVFSUrKzs5uYmk8l89OjR1NSUQCDo6en529/+1tHRgUDzTz/9JCMjIycnJykpKSsr29PTs76+3tjYODo62t7e7u/vf+PGDTabra6uTqfTBQLBxMTErVu3gCvC1tYWmE6A7VVNTU1EIvGHH34YHBwE0IzBYFAo1N7e3vb2toODQ2ZmJjBMoNFoS0vLT2wI+VJoPjg4wGAwycnJFArF0tJyZWXF29sbhUKRSCQrKysejxcXFycnJ9fQ0NDU1BQSEnL16tXu7u5Hjx6BJ/vw8PCPP/5IpVJtbGwSEhL4fD6XyxUXF6+qqvLz8wsPDwcDSEJCgry8fEZGhomJCdho2NraevPmzd7eXqEPt7q6+k8//TQ6OnqsiY/9ewpovnv3bm1tLf/9fmVVVdXW1taO90dvby+VSn3w4AGNRmttbX306BGbze7t7b127Rrw2l9ZWenq6srNzb1y5cr8/DyPx4uIiHjy5AkygTxWtu8QmhMSEgwNDZHFFD6fX1tb29TUFBERAez2RkZGdDr9z3/+s62tbUBAgL+/v6enZ3d3NwqF8vLyAixoYWFBJpMRaB4ZGfnzn/9sZ2eHxAdrOsfUBP9ecGhms9mXL18WWvhsbW319PTExMRqa2vZbLapqenk5CQYy5SVlQcHBz8IzXt7e76+vpaWlmBaMjo6CljhypUrLBYLKMDj8cbHx+3s7FxdXYODg7W0tOTl5U9Cc3d3t66uLthSwOfzs7KyLC0tvb29IyIiLl++nJOTY25ujoykPB5vd3c3Ly9PeHv7+vqGhoZeunRJ6CSAQqESExNBvlVVVTdv3vzEFBZC88ke+1loHhwcVFJSGhkZQa598+YNhUIZGhpycnJydnYOCgqys7N7/PhxRUXF7du3kY1HR0dHwKcZDJ0vXry4du1aW1vbnTt3vL29AwIC0Gi0ra3tJ26lfx2ahTakx48fx8fHr6ysKCsrp6amGhkZlZSULC0tATuQQCBYXV29cuVKw/vDxsbG09MTg8H8+uuvsbGxDQ0N+vr6+/v7q6urlpaWpaWlAoGgqalJXl5+cHDQxsYGYLdAIEhPT5eXlw8MDPT19QXkAUCWzWYbGBiAxb7Z2VkZGZlPTBJOAc1dXV1glrK7uzs0NOTs7KytrT00NKSmptbX1yd8B4JwUVVdXT0yMtLb25vFYlVWVr579w5sNgfLNbOzs3g8vrKyUiAQzMzMtLa2Hh0dHRwcvH37Fvgo02g0KSmpnJwc0AGAb7evr6++vj6Hw6HT6YuLiwDI+vv7zc3Ng4KCRBf6kG4DQDAtLQ1xnhH96Q91/llo7u3tBbOU/f390dFRoQ+hoqJiQUGBuLg4uHd8fX2tra0HBweNjY1bW1uBu3NdXd3Vq1ebmpr09PQ2NjYANDMYDGlpaRAHOO+SyWRpaWngDrG/v29oaFhaWiolJRUWFoY03NraWn5+fn19vZ6eHmCmjY0NJyen8PDwpKSkwMDAg4MDoSkahULFxsZubm6+ePHCzs5OR0fH2tp6amoKQDNw7fXz80MszaLQTKfTTU1Nnz9/HhYWduvWrfDw8I/1gbOF5u7u7jt37gCHZi0trb/85S91dXVMJlNFRQWYxsfHx3/66ScKhYJAs7q6ekVFBZ1Ob29vB5MNIV35+vqCCbmZmdnVq1ffvn2rrq4OcFA4E7h37x6ChgcHBzk5OeLi4gHvDx8fHysrq/7+fgSagV1zY2PD2toaOK8LBIKEhAQNDQ2EZE6K86XQzOPx8vPzUSiUj48PBoPZ29urrq5+/Pix8K0JeXl5BwcHISEhUlJSoJCenp4oFKq9vV1BQQHIMjMz89tvvxUUFACfZoFAsLm5KSEhUVJS8vz5c2BQADvqJCQkwsPDXVxcgMv78PDw7du36+vrtbS0VFVVJSUlS0pKRM2aJ6t2CmiWlpZmMpkCgWB7e9vQ0JBKpaanp1tZWfn4+ERGRt6+fbuurg6B5rq6OgkJCWT5lMfjAZ9mMEUhEAg6Ojp/IGgG+z1ramrA7j0Wi3X16tXExERRaB4cHPzv//7v8vLyra2t5eXltLS0N2/eoFAob2/vY9B8//79ycnJlZWVf/zjH5WVlVtbWysrK6mpqRMTEydbGoRcZGjm8/kYDEZHR2doaGhmZmZiYsLJycnW1nZqakpdXb29vZ3P57e2tqqoqKyurn4Qmnk8XkJCwr1795BNuJqamhQK5d///d/BKD8/Pw88IA0NDRcWFpaWllAolKys7DFo5nA4T548SU5OBsP02trab7/9lpaWxuVyx8fHr1+/DlyiTUxMgKtoQECAn5+frq5ucXHx6urq0NDQzz//XFZWFhQU5OHhAXYwREREKCkpfeKRDKH5ZKf9LDQDvoyOjga3hnCnhbu7+9OnT4WkdePGjfn5+Y2NDeHWMTC5FxMT6+npEQgEYLEyMzNTVVUVjEQAml+/fi0jIzM8PIx4qH/Ce+xfhObDw8O6urpffvmlra2Nx+MlJyc/evRIT09vdXV1eXnZwMAAGIABNFMoFFdX1/Dw8OXl5dnZWTk5uZiYmGPQDJ5nAJrHx8ddXV2xWCxYCXF3d7ewsMjKyjIzM9vb29vd3fX39weWZi0tLQDK/f39N2/eRCYVJ9viFNAcFhbm5uYGXFH39/dxOJyMjMzAwACAZj6fPzU1de/evatXr3p5eTEYDAkJiebmZjA2MhiMmzdvjoyM+Pr6grdhNDQ0gB1+AMJaW1tv377d09MTHh4OnjFCNNfS0sJgMDIyMoWFhVwu9+nTp7GxscDnZG9vz9vb28PDA9kfdqyO0NIMBPksNMfFxYEVfLA5FXhEUKlUFRWV0dHR7e3toaGhiIiI+fl5Y2Pj9vZ2kOzm5ubDhw/19fWDgoKOjo4ANE9MTKiqqhYUFPB4PDab7eHhkZ6e/j//8z+Ime3Ro0ft7e0kEklaWnp0dBQ4ZpSWlt64caO7u1tTUxNYT+fm5tTV1UtLS09C86tXr4qLi5eWlkZGRvT09CoqKtLS0iwtLbe3t3d3d01NTRFoHhwc1NPTy8rK2t3dNTQ09PX1XV5eZrPZsrKyYWFhx3oL8u8ZQjOfz8fhcA4ODmNjYzMzM2/evLGyshKadbq6uqSlpUdGRvh8fnNz83/8x3+8evUKgWZRn2Zwa5SWlmppabHZ7JWVlZiYGDExMQDNb968AZPP27dvA92Wl5eVlJRiY2OVlJTm5+e3t7eZTGZwcPDMzAwCzWCxdGdnx8XFhUAggC3ITk5OCHciUoiefCk0CwQCBoOhoaFx9+5d4CK/ubkpIyOjpKTEZDL5fH5ycrK2tvby8vLW1lZTUxMejx8YGADjCZ/P7+npuXTpUkdHh42NDTB1AWgGOz18fX3fr+gfgVXHoqIiXV1d8MLfmpqamzdvDg8PGxoa0mi03NxcbW1tYNQXrY7o+SmgWVJSkkKhCBfSFxYWlJSU6HT6pUuXMjMzV1dXx8fHHzx4QKVS29ragKV5cHBQTEwMLPpNTEw4OzsTicSbN2+CvZh/OGg+PDwkEAiPHj0KDg4ODw9XV1d/8uTJ7OysqHvGzMxMYGCgrq6ucHUVjUYbGBiwWKyT0Dw9PX3nzp3Y2Njl5WV/f38kPnACE21j0fOLDM1zc3O3b99GJoUCgQD4k9XU1Ny6dcvU1JREIpmbm8fExIj6NIuJiQUEBODeHxUVFa9fv1ZWVgaDr6amJhaL5XA4zs7OZmZm6enpJiYmPj4+SUlJDx8+zMrKIhAI994fwDsK+DSnpqba2dn97//+L5FIJJPJBQUFTCZTXl7e1tY2OzsbhUL9+OOPZDK5v7//1q1bGAwGi8Xeu3evvLzcwsJC+CvYHfhf//VfhYWFdDpdUVExPDycQCAoKChUVFSItsWxcwjNxwQRCASfheajo6OqqioJCQkUChUVFfX06VMJCQkajVZSUvLTTz9lZGQArxgVFZXJyUngIpmenm5hYeHm5kahUI5Bs/DlwWDyk5KS4u7ufsxd/ljxTgfN9+/fx2AwUVFRXl5eEhIS/v7+gOEGBwd//fXXoKAgZK1ZFJpra2uFO0KMjY3z8vKCg4PFxMSCgoJoNJqopVkUmlksVllZmby8fGxsLA6Hk5eXb2xsnJiYePLkCRqNxuPxd+/eNTAwYLPZioqKenp6oM+7uLggxrxjlT3de5qBF7WxsXFoaOizZ88kJCSKiooQ9wyQBZ1O/9Of/uTp6bm6uurl5fXo0SMfHx+wBGRhYQG2E8zPz4Opjrm5uYKCAlhSk5OTc3Nz29zc5HA4NjY2GhoaYWFhGhoaP/zww507d4aGhvb29srKyn799VdbW9uQkBAnJ6f79+9TqdSTVQMhEJqBDp+FZuASqq+vHxoa6uHhISUl9eLFi7X3+wHMzc1TU1NtbGyMjIzW19dFoVkgEGRkZPz9738vLCzk8/kAmmdmZrKzs3V0dMBePWdn59HRURMTEysrq/T0dBsbGycnp5WVFS6Xa2Njo6Ojg8ViAwICZGVlw8PD9/f3Y2Ji9PX109PT0Wg0WFs4Cc29vb1qamoEAiEhIUFTU5PBYPT19cnKymIwmJCQkFu3biUnJwOf5tHRUbDC2dvb6+rqqqGhQSaTg4KCLl++7OfnhziHHOs/ZwjNGxsburq6WVlZiKWzvr7+8uXLycnJv/zyi5mZGVgg8vX1nZ+f/wQ00+l0eXl5EomUmpoq3MZw6dIlFoslhA0AzTs7OxgMRkNDIy0tzd7e3sLCYnx8HOz3SElJMTMzMzU1XVxcPAbNR0dHJSUlSkpKSUlJOBxOVVW1o6PjmBSi/54CmhcXF9XU1H755RfE6mdqaqqgoAC878bHxxUVFZ89e5aYmKiurh4QEDA2Nnbv3j1jY+Pk5GRLS0tnZ+f5+flj0FxdXU2n05WVlaOioggEgpKSUnV19ezsrPDVHGB3voGBQXBwMPL2jK2tLUtLS+AYJlod0fNTQPP169f19PTS0tJsbW09PDwWFxclJSUdHR2zs7NdXV2vXbsGnAmvXbuWmpq6uLjo6Ohoa2ubnp5uaGgYERFBJpP/uNAM/CmrqqoiIiJCQkJIJNLc3ByPx2tpaamqqpqfn8/Ly1tfX19eXs7Ly8NisfHx8WBzK9ihDGzyRUVFfX19BwcH2dnZqampKysrovHBS+hE21j0/CJD8+zsbFBQ0NzcHFLgpaUlLBZbW1urpqYWGxuLxWLJZPLS0hKPxystLX39+jWTyfT29vb7/0d+fv67d++Gh4fj4+OxWGxxcTHYOL+4uJiVlRUVFZWZmbm8vLy6upqVlYXD4XJycmpra/F4/MLCApFI3NraqqysbGlpiYuL8/X1DXt/4HA4sByJx+Pj4+NpNJrQc7+1tfXw8LClpQWPxxMIhNbW1p2dHSaTCeLU1tYmJyd3dHTs7Oy0tbXFvD/A/l+kaidPIDSf1OSz0Ay8z3t6eqKjo4ODg/F4PIPBODg42NjYKCgowOFwmZmZHR0dJBJpdXWVw+FkZ2eDbsDhcKanpzMyMgAm9vX1xcTEgDX6jIyMyMjI5ORkoZkTeXqdLNspoPn169ehoaF+fn7+/v7h4eEVFRXI+iaHw9HV1QUvRNve3s7NzQXWjp2dnaioqImJicnJyeTk5NjY2PLy8tzc3JKSkrGxsZycnKOjo52dnaKiIuAIMTU1lZaWtr6+/u7du4aGBhwOFxsb29LSApY7+vv7Y2JiiERiVlZWfn7+xsZGdnZ2RUVFTEyM0EUVrO2erCkIOYWl+fDwkMlkEggEf3//iIgIKpV6cHCwtrYmdHZCbvOjo6OUlJTq6mrwtYvCwsLg4OCAgAChXVy4hXdkZCQzMxOsBvB4vJmZGfAeoaCgoMLCwuXlZYAyHA4nPz8/LCwsIiIiPz8fdIb19fXd3d329nYsFuvv7x8VFdXe3v4xMzN0z0Da/bPQzOPxhoaGiESiv79/WFgYhUIBL/ecnp5OTU2NjIwkkUjT09O7u7v5+fmiaxerq6s4HA54yq2srJDJ5NXV1Y2NjaKioqioKLCmenR0NDs7SyKRsFhsWloa8k2Hubk5MpkcGhqKwWDKy8vBjcPlcgsLC8HdCjafdHZ2gk8f8Hi8qqqq1tbW3d1dKpUa+/6g0+m7u7sHBwcVFRURERGZmZlgpyCLxUpNTV1bW+vu7g4PD+/q6pqcnIyPj4+Nja2oqCh7f3xsQfwMoXltbY1IJIqaOXd2dsLDwzMyMh4+fAg6dk5ODpfL3draIpPJc3NzTCazuLj42P7d7e3t0tJSLBabkZFBpVIxGAyHw8nKykLeAcLlcvPy8oDmQOHx8XEikYjFYrOysths9vb2NplMXlhYoNPpDQ0N4C7b3t6ur6/HYrF4PL6jo+NjgoCOdApoPjg4KCgoSElJQarT0NCQl5cHhmgej9ff3x8XFxcVFVVQspqXdgAADm9JREFUUCDc9bi8vJyamtrQ0BATE5OZmQm+s1NcXAxGwr29vYSEhLGxsd3d3dbWVhwOFxMTQ6PRwG7gkZGRxMTEqKgosCT17t27/Px88K6tzs7OrKysTwwUXwrNGxsbCQkJoPlSUlLm5ub4fH5fXx8ej09ISGhoaMjNzWUwGHt7e0Qi8cWLF5ubm7OzsxkZGTgcjkwmr6ysDA4OCt+SBFZT29rayGTyx6Zw36FPM+hPYK/S+zfJ/r+P2QAvdRB+LA5QB0QAP4HlS+CPjzzUQWrITyDmyb8XGZrB9o5jZebxeG/fvn3y5Mnw8PDR0ZFofYEmYNkF/BX99ZgUiD6IhiAE0RxcC9IE3x5D0kQCQZpIWyDtiLSRaJonA49V7di/EJqPCfLPWJrBJaAhQPdARhPR1kE6BhII1jGPhYPUjnWVk6UCIaeAZqScx4rKZDKxWKy1tTWHw0HKgFQE6cmivQsEIuVH4oAsQCJIZZGkkBCQFBhDkMCP1RSEnwKaEZGP1Rcp7cnKgsKAl8oJBALwzTOk/MigdywFJCMQvre3h3xaFUnw5CXH6gstzUCQz0Iz0mrHmhW0DghE4oi2HYiAyI703pM98IP3IHhAHGtH5FqQETI4gy6BBCL3Dshd9CpkeEd6EbgKuQRERop97OQMoRm5H0WzALCooKCwtrYmWndw/rGyiVYQxETUPqYAktcxzUF8UT0RfUSLgVx+7OQU0Izc3UhSJ2uHNAqIg1QNqZ1o2ZBzUTWQxD+YFFJHJNrJky+FZqRZQY5IgkgBEJFFI4BzpBWQCp7UBEkQZFRQUPCJ7c6ikc/8/P+cIsWgoCBkknSKy8/hkosMzR+r/sLCgoODA1ha+lic7yAcQvPJRvxnLM0nrzqfkFNA88cKFh0dLSEhUVNT82njzccuP5/w00Hz+ZTtTHKB0Axk/Ceh+Uw0/w4SOVto/qAgQ0NDhoaG/+SHTj+YwvkHng6az7+cp8jxFNB8ilxOd8l3a2k+nRxnctXvEZr571+hf8xicSZqXKhEIDSfbI4/CDQfHh4KX/yC2BJO6nARQiA0X4RWOIcyQGj+IpHPAZr5fD744s8XFezbRobQ/E30h9B89rL/HqH57FW4kClCaD7ZLH8QaD5Z8QsYAqH5AjbK1ygShOYvUvUcoPmLynNBIkNo/iYNAaH57GWH0Hz2mp5RihCaTwoJofmkJt8qBELzt1L+nPOF0PxFgkNo/qBcEJo/KMvXDoTQfPYKQ2g+e03PKEUIzSeFhNB8UpNvFQKh+Vspf875Qmj+IsEhNH9QLgjNH5TlawdCaD57hSE0n72mZ5QihOaTQkJoPqnJtwqB0PytlD/nfCE0f5HgEJo/KBeE5g/K8rUDITSfvcIQms9e0zNKEULzSSEhNJ/U5FuFQGj+Vsqfc74Qmr9IcAjNH5QLQvMHZfnagRCaz15hCM1nr+kZpQih+aSQEJpPavKtQiA0fyvlzzlfCM1fJDiE5g/KBaH5g7J87UAIzWevMITms9f0jFKE0HxSSAjNJzX5ViEQmr+V8uecL4TmLxIcQvMH5YLQ/EFZvnYghOazVxhC89lrekYpQmg+KSSE5pOafKsQCM3fSvlzzhdC8xcJDqH5g3JBaP6gLF878PcHzRUVFQ4ODvYX+LC1te3t7f3aLfex9MvLyy+4Pt+w6by8vNbX1z8m3R8z/O3btzY2Nt+wUT6RtZ2dHYVCEW2XiooKOzu7T1zyu/7Jzs6ORqOJ1rewsPB3XaNjhbezs0tOTt7b2xOt4x/wvLKy8pgy8N9PK0AgEP7Jz/W9fPnyOx4iRFXy8fERvXdYLNZ3U3EvLy/Rqs3PzwcGBorW/dueBwUFzc3NiZbw3M5P8xntcysczAgqABWACkAFoAJQAagAVAAqcBEUgNB8EVoBlgEqABWACkAFoAJQAagAVOBCKwCh+UI3DywcVAAqABWACkAFoAJQAajARVAAQvNFaAVYBqgAVAAqABWACkAFoAJQgQutAITmC908sHBQAagAVAAqABWACkAFoAIXQQEIzRehFWAZoAJQAagAVAAqABWACnxGgcPDw8/E+Jo/894fR0dHPB7va+ZzcdOG0Hxx2waWDCoAFYAKQAWgAlABqABQYH9/v7CwcH9//5sIwufz+/r6RkdHe3t7x8fH+Xz+NynGt80UQvO31R/mDhWACkAFoAJQAagAVODzCmxvb1taWr579+7zUb9CDD6fTyaTq6urJyYm5ufnv0IOv4MkITT/DhoJFhEqABWACkAFoAJQgd+FAi0tLb6+vouLi1ZWVlNTU1VVVZqamsXFxW/fvrWwsJiamvLx8dHW1h4YGEhMTHRxcZmcnHz69KlAINjb23Nzc+vv7yeRSFgsdmVlJTo6urq6Wk1NTVtbu6amZnNz8+7duxoaGsbGxvPz8zQaTVNT8/Hjx42NjZOTk6ampo8fP87NzeXxeDk5OWpqaubm5n5+fiQSqba2dmtrKyoqampqqr29XVtbW09Pr7+/n06n29raampq2tnZzc/PDwwM6OrqamhodHV1DQwMmJuba2trUygULpcbEREhLy+vpqZWWloaGxubn59fWFiopqampKQk/OAdl8v18PBQVlZWU1Orr6+PjIxUUlKKj48vKyvT1NR88OBBeXk5hUKxsbHR1NS0tra2tbVVU1Nrb2/v7u7W0dHR0NCoqakBjbu9vR0dHa2oqIhGo5eWlmJjYxUVFR0dHRcXF9PT001MTBQVFe3t7c3MzExMTJaWls65S0BoPmfBYXZQAagAVAAqABWACny3CszPz+vq6vb396urq1MoFCwWGx0dTSAQ6HS6kpJSS0uLgYFBdHR0WVmZp6enkZERmUxOSUkRCARHR0dJSUlZWVng83sDAwOBgYGWlpYEAiEpKcne3n5hYUFNTa2/vz81NTUwMDA6OhqPx5eXl9fX1/v7+/v4+JBIJD09vampKRQKNTIyEhMT4+npmZaWBoA7IiKir6/P0NAQj8djsVg1NTUqlerj47O1tRUdHV1ZWWlhYUGj0Xp6eigUio+PT1BQUEJCgry8fHl5eWho6OLiYkBAQElJCQ6Hy87OLi0tpdPp8fHxGAwmPz//+fPnw8PD5ubmdXV1WCw2KyuLy+VWVlZSqVQsFuvi4lJeXm5vb89isZycnLq7uwsLC4lEYmJi4vPnz0tLS9vb20GH6OjosLGxmZycrKmpoVAoRkZGMzMzeDw+Ojo6KSkpJSVlZWVFX19/bGzMysqKTqefczeC0HzOgsPsoAJQAagAVAAqABX4bhU4OjpCoVARERGBgYEuLi6+vr5dXV0hISHPnj3z8/PDYDDe3t4dHR0Ac/39/R0cHHp6eoAcHR0dKBQKjUa7urpGR0cTiUQTE5PCwsL8/PzMzEwOh2NlZfXu3btXr16Bq4hE4rNnz2JjY62trePj4wsLC+Pj4/v7+9Fo9NbWlpAp/fz80tLSKBTK5uYmBoNpbGxUUVHJzMzMzc3F4/E1NTVpaWl8Pj89PZ1MJuvo6HA4nJ2dnbGxMWtr6+jo6Pz8fBwOl5+fn56ezufzc3JyqqurcTgciUQiEAjR0dGRkZEYDAaHwyUmJu7s7ISGhtbV1SUmJra1te3v7xOJRBwOFx4e7uDgUFZWhsfjgdF6enqaSqUSicShoaGUlBQUCpWamgo2F1IolJCQEB6Pt7Ky8vLlSw8PDz6f39DQ4OrqmpKSUlNTs7e3h0KhlpaWPDw8EPv0uXUmCM3nJjXMCCoAFYAKQAWgAlCB71+Bpqamu3fv1tTU3Lp1KywsbGVlJTg4WFxcvLa29v79+93d3QsLC/r6+pGRkTk5OY8fP56bm1teXl5YWFhcXDQ0NAwMDAwPD5eUlBweHn727Fl5eXlPTw8Oh1teXlZXVx8dHSUSiXg8Pjs7u6Ojo7u7+9mzZ15eXng8nslkBgQEcLlcFArV2dkZGBjo6emZl5cXERHBYDDMzc2ZTKalpSWFQqmpqUGhUPX19SQSic/nk0ik8vJyBweH0tLSqqqq0PdHZmZmW1ubs7MznU738fFhsVgeHh4vX77EvT9QKNTU1FR6erq3t3dlZaWtrW1PT4+2tnZdXV1SUlJHR8fy8rK7u3t/fz+BQDA3Ny8rK4uLi+NyuZGRkQCaCQQCmUwGFms0Gr2xsTE5Odnb22tmZjY4OBgbG1taWqqlpTU0NOTn50ckEjMzM2tra/f29p4/f768vAyh+fu/kWANoQJQAagAVAAqABX4vhXY2try9PScnp4ODg6m0Wg8Hq+qqgqDwbBYLDQaffD+iI+Pb25ufvXqFZFI3NnZ6e7uptPpBwcHSUlJtbW1LS0tKBTq6OhofHzc09PT19e3paXl3bt3KBQKi8XGxMSsra319fX5+/uj0eiOjg42mx0SEuLl5UWhUAQCQUtLCxqNdnJyQqPRc3NzwcHB/v7+OBxuYWFhcHAQjUb7+vq+fv2ayWRSqVQ+n0+lUvv6+qampgICAgIDA0dHR9+8eYPBYHx8fBobGzc3NwsLCz08PAICAjo6OoqLi6lU6osXL7y8vMLCwjIzM1ksVmhoqJubm9CDubm5mUKhjIyMHB4e5uXl+fj4AIN0a2treXn55uZmUVHR4uIig8GoqqoaGhoKDAxEo9FNTU1zc3O5ubkrKysFBQWenp5ZWVkbGxsg34SEhNXV1fr6egaDcXBwkJ6evr6+np6e3tvbe84dCVqaz1lwmB1UACoAFYAKQAWgAt+5AuCNbKLvZTsWgvyEnBxTBAnnvz/Ar+D8Ez8hifD5/Pr6+oCAAIFA8OmrQATR9D92juQrGoHP509MTAQHBwtdLHx9fd++fYtEQ/JFQkTzEk0EOUdOkEtAIiAc+fVkOqIRvt45hOavpy1MGSoAFYAKQAWgAlABqMC3UYDD4QwPD59D3vv7+729vTQabWJiAoHdc8j3/LP4v5U0W3dqSgiuAAAAAElFTkSuQmCC;" vertex="1" parent="1">
          <mxGeometry y="590" width="956" height="602" as="geometry" />
        </mxCell>
        <mxCell id="aMVBu54jZsCjfHD0HlwL-1" value="webhook" style="whiteSpace=wrap;html=1;" vertex="1" parent="1">
          <mxGeometry x="720" y="90" width="120" height="60" as="geometry" />
        </mxCell>
        <mxCell id="aMVBu54jZsCjfHD0HlwL-3" style="edgeStyle=orthogonalEdgeStyle;rounded=0;orthogonalLoop=1;jettySize=auto;html=1;entryX=0.5;entryY=0;entryDx=0;entryDy=0;entryPerimeter=0;" edge="1" parent="1" source="aMVBu54jZsCjfHD0HlwL-1" target="UWpe6jo6Uluqze3PuRvI-2">
          <mxGeometry relative="1" as="geometry" />
        </mxCell>
      </root>
    </mxGraphModel>
  </diagram>
</mxfile>
